{"glyphs":{"0":{"ha":592,"x_min":0,"x_max":0,"o":"m 297 -11 b 558 456 442 -11 558 132 b 301 914 558 671 511 914 b 33 447 115 914 33 707 b 296 -11 33 214 100 -11 z m 299 144 b 215 451 239 144 213 240 b 300 758 214 661 243 758 b 376 451 358 758 376 646 b 300 144 376 244 356 144 z "},"1":{"ha":592,"x_min":0,"x_max":0,"o":"m 249 0 l 429 0 l 429 903 l 269 903 l 63 796 l 93 653 l 246 732 l 249 732 z "},"2":{"ha":592,"x_min":0,"x_max":0,"o":"m 528 0 l 528 160 l 251 160 l 251 163 l 306 226 b 515 653 410 347 515 483 b 254 914 515 782 451 914 b 53 858 172 914 94 885 l 86 718 b 221 763 118 738 164 763 b 336 639 296 763 336 713 b 124 236 336 510 240 386 l 35 122 l 35 0 z "},"3":{"ha":592,"x_min":0,"x_max":0,"o":"m 33 29 b 210 -11 72 7 138 -11 b 513 261 407 -11 513 124 b 358 490 513 382 444 461 l 358 493 b 489 696 439 531 489 606 b 250 914 489 813 408 914 b 64 867 175 914 101 890 l 89 731 b 203 765 122 751 161 765 b 307 661 267 765 307 726 b 156 544 307 574 222 546 l 138 544 l 138 411 l 163 411 b 331 268 253 410 331 368 b 193 138 331 193 282 138 b 58 172 146 138 94 153 z "},"4":{"ha":592,"x_min":0,"x_max":0,"o":"m 486 0 l 486 215 l 575 215 l 575 361 l 486 361 l 486 903 l 311 903 l 15 340 l 15 215 l 325 215 l 325 0 z m 171 361 l 171 364 l 267 554 b 329 694 290 604 310 644 l 335 694 b 325 546 331 646 325 593 l 325 361 z "},"5":{"ha":592,"x_min":0,"x_max":0,"o":"m 507 903 l 133 903 l 82 450 b 147 453 101 453 122 453 b 343 290 251 453 343 413 b 196 138 343 194 285 138 b 67 168 146 138 100 151 l 39 25 b 208 -11 75 6 144 -11 b 522 307 406 -11 522 132 b 444 515 522 399 494 467 b 274 583 392 564 313 582 b 247 582 264 583 256 583 l 268 744 l 507 744 z "},"6":{"ha":592,"x_min":0,"x_max":0,"o":"m 493 914 b 401 904 475 913 444 913 b 179 782 328 890 239 847 b 32 363 96 693 32 560 b 307 -11 32 138 136 -11 b 565 310 483 -11 565 151 b 361 589 565 479 482 589 b 221 517 300 589 253 560 l 215 517 b 418 757 239 631 299 732 b 493 767 446 763 471 765 z m 306 121 b 217 318 250 121 217 200 b 225 399 217 361 221 388 b 300 458 242 439 271 458 b 385 310 360 458 383 386 b 307 121 385 201 365 121 z "},"7":{"ha":592,"x_min":0,"x_max":0,"o":"m 56 903 l 56 743 l 363 743 l 363 740 l 86 0 l 263 0 l 547 785 l 547 903 z "},"8":{"ha":592,"x_min":0,"x_max":0,"o":"m 307 914 b 53 676 169 914 53 824 b 164 478 53 606 86 528 l 164 475 b 28 235 89 428 28 347 b 292 -11 28 86 136 -11 b 563 253 440 -11 563 85 b 422 488 563 360 506 443 l 422 492 b 542 692 518 550 542 632 b 308 914 542 825 438 914 z m 296 111 b 204 254 236 111 204 176 b 282 413 204 324 236 381 b 386 244 333 385 386 331 b 297 111 386 169 356 111 z m 303 792 b 375 674 354 792 375 735 b 313 546 375 621 351 565 b 224 681 260 574 224 618 b 301 792 224 738 247 792 z "},"9":{"ha":592,"x_min":0,"x_max":0,"o":"m 103 -11 b 186 -7 131 -11 158 -11 b 410 107 275 7 354 47 b 558 543 493 196 558 339 b 301 914 558 761 469 914 b 33 597 128 914 33 751 b 246 328 33 432 129 328 b 375 383 304 328 346 351 l 379 383 b 292 201 364 303 331 239 b 185 147 260 172 221 154 b 103 140 156 142 138 140 z m 293 782 b 375 596 342 782 375 714 b 367 500 375 536 374 517 b 297 453 357 476 329 453 b 213 613 242 453 214 525 b 292 782 210 722 246 782 z "}," ":{"ha":221,"x_min":0,"x_max":0,"o":""},"!":{"ha":328,"x_min":0,"x_max":0,"o":"m 242 304 l 264 936 l 65 936 l 88 304 z m 165 -11 b 268 100 228 -11 268 36 b 164 213 268 167 224 213 b 60 100 107 213 60 167 b 164 -11 60 36 106 -11 z "},"\"":{"ha":460,"x_min":0,"x_max":0,"o":"m 46 950 l 74 589 l 164 589 l 192 950 z m 269 950 l 297 589 l 388 589 l 415 950 z "},"#":{"ha":592,"x_min":0,"x_max":0,"o":"m 238 375 l 257 535 l 356 535 l 336 375 z m 190 0 l 224 271 l 322 271 l 288 0 l 392 0 l 426 271 l 543 271 l 543 375 l 439 375 l 458 535 l 571 535 l 571 639 l 472 639 l 506 903 l 403 903 l 369 639 l 271 639 l 303 903 l 200 903 l 168 639 l 50 639 l 50 535 l 154 535 l 135 375 l 21 375 l 21 271 l 121 271 l 86 0 z "},"$":{"ha":592,"x_min":0,"x_max":0,"o":"m 343 -117 l 343 36 b 521 274 450 64 521 149 b 363 522 521 371 481 451 b 249 653 267 579 249 606 b 350 739 249 700 283 739 b 469 706 406 739 440 721 l 500 843 b 364 879 468 861 418 878 l 364 1007 l 244 1007 l 244 865 b 78 639 140 829 78 743 b 244 397 78 529 135 465 b 350 256 315 353 350 313 b 247 164 350 204 315 164 b 104 203 192 164 144 179 l 76 60 b 225 24 110 43 165 26 l 225 -117 z "},"%":{"ha":913,"x_min":0,"x_max":0,"o":"m 208 914 b 25 633 90 914 25 781 b 207 361 25 499 81 361 b 386 640 299 361 386 449 b 210 914 386 765 343 914 z m 207 818 b 264 636 251 818 264 743 b 207 457 264 524 250 457 b 147 638 164 457 146 521 b 206 818 147 751 167 818 z m 260 -14 l 746 915 l 653 915 l 165 -14 z m 710 544 b 526 265 592 544 526 411 b 708 -8 526 129 582 -8 b 888 271 800 -8 888 79 b 711 544 888 396 844 544 z m 708 449 b 765 267 753 449 765 374 b 708 88 765 154 751 88 b 649 269 667 88 647 151 b 707 449 649 383 668 449 z "},"&":{"ha":736,"x_min":0,"x_max":0,"o":"m 729 0 b 599 168 676 68 629 129 b 715 499 661 243 704 371 l 561 499 b 521 279 558 428 553 340 b 382 478 485 325 424 417 l 382 483 b 544 738 518 576 544 653 b 339 947 544 864 458 947 b 104 714 193 947 104 842 b 174 511 104 649 125 578 l 174 508 b 26 251 81 449 26 364 b 285 -11 26 104 122 -11 b 488 61 364 -11 438 17 b 532 0 506 35 518 19 z m 317 124 b 193 274 242 124 193 193 b 246 403 193 332 219 375 b 415 168 300 325 367 229 b 318 124 392 140 361 124 z m 332 826 b 392 729 381 826 392 772 b 311 582 392 675 369 628 b 265 722 279 628 265 668 b 331 826 265 779 289 826 z "},"’":{"ha":264,"x_min":0,"x_max":0,"o":"m 99 936 b 6 588 83 826 46 703 l 100 600 b 256 950 158 700 217 825 z "},"(":{"ha":358,"x_min":0,"x_max":0,"o":"m 204 961 b 43 396 125 856 49 667 b 204 -167 43 128 125 -62 l 335 -167 b 188 394 254 -36 188 143 b 335 961 188 654 254 835 z "},")":{"ha":358,"x_min":0,"x_max":0,"o":"m 154 -167 b 315 400 233 -58 310 125 b 154 961 315 675 233 860 l 24 961 b 171 400 104 833 171 653 b 24 -167 171 147 104 -39 z "},"*":{"ha":535,"x_min":0,"x_max":0,"o":"m 342 947 l 269 751 l 265 751 l 192 946 l 78 881 l 214 721 l 211 718 l 21 753 l 21 625 l 213 667 l 215 664 l 78 499 l 182 433 l 261 632 l 264 636 l 338 435 l 454 500 l 315 657 l 318 661 l 514 625 l 514 753 l 318 717 l 317 721 l 454 883 z "},"+":{"ha":828,"x_min":0,"x_max":0,"o":"m 356 739 l 356 428 l 56 428 l 56 314 l 356 314 l 356 0 l 472 0 l 472 314 l 772 314 l 772 428 l 472 428 l 472 739 z "},",":{"ha":324,"x_min":0,"x_max":0,"o":"m 131 -162 b 292 208 192 -62 250 83 l 107 194 b 14 -175 92 85 54 -60 z "},"-":{"ha":360,"x_min":0,"x_max":0,"o":"m 42 449 l 42 318 l 318 318 l 318 449 z "},".":{"ha":324,"x_min":0,"x_max":0,"o":"m 172 -11 b 279 108 236 -11 279 36 b 174 231 279 185 232 231 b 67 108 117 231 67 179 b 171 -11 67 36 115 -11 z "},"/":{"ha":389,"x_min":0,"x_max":0,"o":"m 88 -56 l 414 947 l 296 947 l -31 -56 z "},":":{"ha":324,"x_min":0,"x_max":0,"o":"m 174 444 b 276 560 236 444 276 492 b 174 675 276 629 232 675 b 71 560 118 675 71 624 b 172 444 71 492 115 444 z m 174 -11 b 276 104 236 -11 276 36 b 174 219 276 174 232 219 b 71 104 118 219 71 168 b 172 -11 71 36 115 -11 z "},";":{"ha":324,"x_min":0,"x_max":0,"o":"m 126 -161 b 288 210 189 -61 247 85 l 108 196 b 15 -174 93 86 56 -58 z m 181 444 b 283 560 243 444 283 492 b 181 675 283 629 239 675 b 78 560 125 675 78 624 b 179 444 78 492 122 444 z "},"<":{"ha":828,"x_min":0,"x_max":0,"o":"m 81 326 l 747 0 l 747 140 l 258 367 l 258 369 l 747 597 l 747 739 l 81 413 z "},"=":{"ha":828,"x_min":0,"x_max":0,"o":"m 772 444 l 772 558 l 56 558 l 56 444 z m 772 185 l 772 299 l 56 299 l 56 185 z "},">":{"ha":828,"x_min":0,"x_max":0,"o":"m 747 431 l 79 739 l 79 601 l 613 371 l 613 368 l 79 138 l 79 0 l 747 308 z "},"?":{"ha":464,"x_min":0,"x_max":0,"o":"m 276 292 l 276 322 b 336 493 275 386 299 435 b 439 739 385 564 439 643 b 204 953 439 833 388 953 b 42 911 136 953 71 931 l 72 772 b 161 796 99 790 131 796 b 253 710 219 796 253 761 b 193 554 253 657 233 615 b 119 318 142 474 110 400 l 122 292 z m 200 -11 b 304 100 264 -11 304 36 b 200 214 304 168 260 214 b 96 100 144 213 96 168 b 199 -11 96 36 140 -11 z "},"@":{"ha":863,"x_min":0,"x_max":0,"o":"m 483 322 b 389 186 472 256 432 186 b 340 264 356 186 340 217 b 479 510 340 404 414 510 b 515 503 494 510 507 508 z m 593 -24 b 411 -74 536 -57 476 -74 b 119 279 244 -74 119 43 b 478 761 119 569 294 761 b 746 444 665 761 746 622 b 632 167 746 260 688 167 b 593 310 590 167 576 210 l 640 565 b 513 594 610 582 558 594 b 224 257 331 594 224 431 b 343 90 224 154 269 90 b 496 208 404 90 464 133 l 500 208 b 603 90 500 133 532 90 b 821 464 736 90 821 224 b 493 824 821 651 715 824 b 44 279 222 824 44 557 b 392 -137 44 4 214 -137 b 614 -82 471 -137 540 -124 z "},"A":{"ha":636,"x_min":0,"x_max":0,"o":"m 397 214 l 436 0 l 614 0 l 432 936 l 214 936 l 11 0 l 188 0 l 229 214 z m 247 356 l 282 551 b 315 764 292 606 306 701 l 319 764 b 350 551 328 703 340 608 l 381 356 z "},"B":{"ha":671,"x_min":0,"x_max":0,"o":"m 81 3 b 250 -7 122 -3 181 -7 b 557 88 407 -7 501 26 b 626 271 601 133 626 194 b 461 494 626 375 569 464 l 461 500 b 596 703 553 540 596 621 b 525 874 596 769 575 832 b 288 940 460 929 375 940 b 81 922 210 940 136 935 z m 263 799 b 311 804 274 803 290 804 b 417 682 385 804 417 751 b 301 551 417 607 367 551 l 263 551 z m 263 417 l 301 417 b 438 274 374 417 438 368 b 303 133 438 179 378 133 b 263 136 288 133 274 133 z "},"C":{"ha":549,"x_min":0,"x_max":0,"o":"m 511 167 b 424 153 489 160 454 153 b 228 464 313 153 228 240 b 424 785 228 696 321 785 b 508 767 464 785 488 776 l 539 919 b 413 944 521 931 476 944 b 35 454 231 944 35 807 b 389 -8 35 188 149 -8 b 529 14 451 -8 503 1 z "},"D":{"ha":682,"x_min":0,"x_max":0,"o":"m 81 3 b 232 -7 117 -1 174 -7 b 517 83 361 -7 453 24 b 647 479 599 156 647 290 b 525 857 647 661 606 785 b 265 940 465 913 383 940 b 81 922 193 940 126 933 z m 263 790 b 299 794 274 794 286 794 b 458 486 408 794 458 678 b 294 142 458 228 382 142 b 263 144 285 142 272 142 z "},"E":{"ha":547,"x_min":0,"x_max":0,"o":"m 475 563 l 263 563 l 263 778 l 488 778 l 488 936 l 81 936 l 81 0 l 503 0 l 503 158 l 263 158 l 263 411 l 475 411 z "},"F":{"ha":544,"x_min":0,"x_max":0,"o":"m 81 0 l 263 0 l 263 386 l 474 386 l 474 538 l 263 538 l 263 778 l 488 778 l 488 936 l 81 936 z "},"G":{"ha":656,"x_min":0,"x_max":0,"o":"m 600 525 l 349 525 l 349 376 l 433 376 l 433 151 b 397 146 426 147 414 146 b 224 453 311 146 224 226 b 447 781 224 694 322 781 b 554 760 492 781 526 772 l 585 917 b 433 944 556 931 504 944 b 35 463 232 944 39 803 b 156 85 32 301 75 164 b 407 -8 217 22 299 -8 b 600 25 475 -8 560 8 z "},"H":{"ha":715,"x_min":0,"x_max":0,"o":"m 81 936 l 81 0 l 263 0 l 263 392 l 453 392 l 453 0 l 635 0 l 635 936 l 453 936 l 453 561 l 263 561 l 263 936 z "},"I":{"ha":344,"x_min":0,"x_max":0,"o":"m 81 936 l 81 0 l 263 0 l 263 936 z "},"J":{"ha":411,"x_min":0,"x_max":0,"o":"m 160 290 b 63 149 160 171 115 149 b 3 156 39 149 19 151 l -12 3 b 79 -11 7 -6 42 -11 b 342 299 211 -11 342 29 l 342 936 l 160 936 z "},"K":{"ha":638,"x_min":0,"x_max":0,"o":"m 81 0 l 263 0 l 263 311 l 304 388 l 440 0 l 640 0 l 426 529 l 638 936 l 436 936 l 311 636 b 267 515 296 596 282 554 l 263 515 l 263 936 l 81 936 z "},"L":{"ha":528,"x_min":0,"x_max":0,"o":"m 81 0 l 501 0 l 501 154 l 263 154 l 263 936 l 81 936 z "},"M":{"ha":885,"x_min":0,"x_max":0,"o":"m 669 0 l 832 0 l 775 936 l 583 936 l 508 597 b 450 269 485 479 464 374 l 446 269 b 381 597 429 375 406 479 l 306 936 l 113 936 l 46 0 l 201 0 l 218 325 b 232 638 222 418 229 536 l 235 638 b 293 344 250 536 275 419 l 371 15 l 499 15 l 581 350 b 640 638 599 422 624 538 l 643 638 b 653 328 642 536 647 417 z "},"N":{"ha":717,"x_min":0,"x_max":0,"o":"m 240 0 l 240 211 b 228 638 240 399 233 543 l 231 638 b 326 357 253 554 294 435 l 469 0 l 636 0 l 636 936 l 476 936 l 476 729 b 494 296 476 557 489 393 l 492 296 b 392 568 465 376 421 497 l 247 936 l 81 936 l 81 0 z "},"O":{"ha":668,"x_min":0,"x_max":0,"o":"m 332 -11 b 633 485 508 -11 633 132 b 344 947 633 699 569 947 b 35 471 136 947 35 726 b 331 -11 35 214 118 -11 z m 336 147 b 224 472 256 147 221 286 b 336 789 222 642 256 789 b 444 476 419 789 444 642 b 338 147 444 286 415 147 z "},"P":{"ha":635,"x_min":0,"x_max":0,"o":"m 81 0 l 263 0 l 263 349 b 299 347 275 347 286 347 b 526 438 375 347 468 375 b 606 663 575 489 606 561 b 525 868 606 742 581 818 b 271 940 465 924 379 940 b 81 922 201 940 132 933 z m 263 786 b 307 793 274 790 290 793 b 425 647 392 793 425 729 b 293 494 425 560 385 494 b 263 496 282 494 272 494 z "},"Q":{"ha":668,"x_min":0,"x_max":0,"o":"m 676 -15 b 493 54 618 7 553 28 l 493 61 b 633 485 582 110 633 253 b 346 947 633 699 572 947 b 35 471 136 947 35 722 b 329 -11 35 165 146 -11 b 372 -31 336 -11 351 -19 b 613 -153 443 -72 533 -119 z m 338 147 b 224 472 256 147 221 282 b 338 789 222 649 261 789 b 444 476 418 789 444 651 b 339 147 444 282 413 147 z "},"R":{"ha":653,"x_min":0,"x_max":0,"o":"m 81 0 l 263 0 l 263 374 l 290 374 b 396 225 350 374 379 340 b 443 0 410 121 431 26 l 633 0 b 574 254 617 35 592 150 b 460 440 556 356 524 414 l 460 443 b 604 676 554 486 604 576 b 529 871 604 757 586 819 b 279 940 469 926 379 940 b 81 922 210 940 138 933 z m 263 793 b 307 799 272 797 290 799 b 419 660 388 796 419 740 b 296 514 419 578 375 514 l 263 514 z "},"S":{"ha":547,"x_min":0,"x_max":0,"o":"m 33 29 b 213 -8 65 11 138 -8 b 521 275 394 -8 521 104 b 351 543 521 374 476 468 b 224 690 251 604 224 633 b 339 786 224 739 261 786 b 457 754 390 786 431 771 l 486 911 b 339 944 460 926 401 944 b 44 669 144 944 44 819 b 221 408 44 585 93 486 b 342 256 300 357 342 324 b 214 150 342 194 299 150 b 60 186 163 150 97 165 z "},"T":{"ha":546,"x_min":0,"x_max":0,"o":"m 182 0 l 364 0 l 364 768 l 531 768 l 531 936 l 17 936 l 17 768 l 182 768 z "},"U":{"ha":694,"x_min":0,"x_max":0,"o":"m 75 936 l 75 358 b 347 -11 75 125 151 -11 b 618 360 526 -11 618 119 l 618 936 l 436 936 l 436 328 b 346 149 436 186 399 149 b 257 328 297 149 257 190 l 257 936 z "},"V":{"ha":628,"x_min":0,"x_max":0,"o":"m 415 0 l 629 936 l 429 936 l 365 536 b 321 207 349 431 333 318 l 318 207 b 271 532 306 317 286 431 l 204 936 l 3 936 l 211 0 z "},"W":{"ha":943,"x_min":0,"x_max":0,"o":"m 358 0 l 421 306 b 472 614 440 397 456 501 l 475 614 b 517 307 488 500 501 393 l 572 0 l 760 0 l 925 936 l 747 936 l 701 565 b 665 235 689 457 678 357 l 663 235 b 618 567 651 357 635 461 l 556 936 l 408 936 l 342 564 b 289 235 322 451 301 350 l 285 235 b 253 563 274 349 265 456 l 207 936 l 18 936 l 178 0 z "},"X":{"ha":565,"x_min":0,"x_max":0,"o":"m 571 0 l 386 471 l 561 936 l 379 936 l 332 765 b 292 613 319 714 307 669 l 289 613 b 247 763 275 665 261 714 l 192 936 l 3 936 l 171 479 l -4 0 l 176 0 l 226 169 b 269 339 240 222 254 279 l 274 339 b 324 172 289 279 306 226 l 382 0 z "},"Y":{"ha":558,"x_min":0,"x_max":0,"o":"m 367 0 l 367 365 l 576 936 l 388 936 l 332 717 b 289 514 315 650 300 582 l 286 514 b 236 713 272 583 254 653 l 174 936 l -21 936 l 185 358 l 185 0 z "},"Z":{"ha":538,"x_min":0,"x_max":0,"o":"m 15 0 l 515 0 l 515 158 l 233 158 l 233 163 l 517 803 l 517 936 l 43 936 l 43 778 l 311 778 l 311 774 l 15 106 z "},"[":{"ha":358,"x_min":0,"x_max":0,"o":"m 325 -156 l 325 -39 l 207 -39 l 207 836 l 325 836 l 325 953 l 69 953 l 69 -156 z "},"\\":{"ha":324,"x_min":0,"x_max":0,"o":"m 354 -56 l 94 947 l -24 947 l 236 -56 z "},"]":{"ha":358,"x_min":0,"x_max":0,"o":"m 33 953 l 33 836 l 151 836 l 151 -39 l 33 -39 l 33 -156 l 289 -156 l 289 953 z "},"^":{"ha":828,"x_min":0,"x_max":0,"o":"m 767 246 l 472 903 l 357 903 l 63 246 l 199 246 l 410 747 l 417 747 l 628 246 z "},"_":{"ha":694,"x_min":0,"x_max":0,"o":"m 0 -104 l 0 -174 l 694 -174 l 694 -104 z "},"‘":{"ha":264,"x_min":0,"x_max":0,"o":"m 168 601 b 261 950 183 713 221 835 l 167 938 b 11 588 108 838 50 713 z "},"a":{"ha":586,"x_min":0,"x_max":0,"o":"m 522 407 b 282 690 522 546 489 690 b 69 639 186 690 108 660 l 103 515 b 242 556 144 540 188 556 b 338 463 307 556 338 517 l 338 447 b 26 194 183 446 26 374 b 206 -11 26 75 103 -11 b 356 67 265 -11 319 14 l 360 67 l 369 0 l 532 0 b 522 156 525 46 522 101 z m 343 213 b 339 181 343 200 342 189 b 264 122 326 139 294 122 b 199 214 236 122 199 147 b 343 331 199 308 283 329 z "},"b":{"ha":621,"x_min":0,"x_max":0,"o":"m 63 200 b 57 0 63 136 60 60 l 213 0 l 222 79 l 226 79 b 360 -11 263 13 303 -11 b 581 358 486 -11 581 119 b 389 690 581 540 519 690 b 247 610 324 690 279 658 l 244 610 l 244 961 l 63 961 z m 244 432 b 251 474 244 444 247 463 b 313 536 261 507 285 536 b 400 343 374 536 400 461 b 314 138 400 214 375 138 b 251 199 292 138 267 150 b 244 243 247 210 244 225 z "},"c":{"ha":449,"x_min":0,"x_max":0,"o":"m 425 154 b 357 140 406 144 383 140 b 221 339 272 140 221 215 b 360 539 221 456 272 539 b 428 526 390 539 413 532 l 451 669 b 351 688 433 678 394 688 b 40 332 164 688 40 542 b 325 -8 40 111 153 -8 b 440 13 376 -8 422 3 z "},"d":{"ha":621,"x_min":0,"x_max":0,"o":"m 375 961 l 375 621 l 372 621 b 258 690 354 660 318 690 b 40 338 144 690 40 574 b 251 -11 40 149 107 -11 b 392 76 313 -11 367 28 l 396 76 l 406 0 l 563 0 b 557 200 560 63 557 136 l 557 961 z m 375 239 b 369 196 375 222 374 207 b 306 138 356 150 329 138 b 221 333 256 138 221 204 b 308 536 221 444 244 536 b 372 457 344 536 367 499 b 375 418 375 444 375 429 z "},"e":{"ha":582,"x_min":0,"x_max":0,"o":"m 538 275 b 543 369 540 294 543 321 b 313 690 543 575 458 690 b 40 326 160 690 40 554 b 328 -8 40 114 142 -8 b 513 24 396 -8 467 4 l 489 153 b 360 131 456 142 411 131 b 217 275 279 131 218 169 z m 217 403 b 301 557 218 471 242 557 b 378 403 356 557 378 489 z "},"f":{"ha":397,"x_min":0,"x_max":0,"o":"m 278 0 l 278 550 l 396 550 l 396 679 l 278 679 l 278 711 b 361 824 278 769 300 824 b 417 815 383 824 403 821 l 438 957 b 328 972 411 965 375 972 b 167 910 264 972 206 950 b 96 706 113 854 96 783 l 96 679 l 4 679 l 4 550 l 96 550 l 96 0 z "},"g":{"ha":621,"x_min":0,"x_max":0,"o":"m 560 464 b 567 679 560 546 563 617 l 407 679 l 397 610 l 394 610 b 269 690 368 661 324 690 b 42 333 144 690 42 558 b 253 4 42 171 101 4 b 375 72 304 4 351 29 l 378 72 l 378 31 b 250 -135 378 -74 342 -135 b 121 -107 197 -135 154 -122 l 88 -246 b 257 -278 136 -267 193 -278 b 478 -203 356 -278 428 -250 b 560 76 532 -150 560 -71 z m 378 250 b 369 196 378 231 376 211 b 310 147 356 160 333 147 b 221 338 257 147 221 211 b 313 536 221 447 247 536 b 371 481 343 536 363 510 b 378 431 375 467 378 449 z "},"h":{"ha":636,"x_min":0,"x_max":0,"o":"m 64 0 l 246 0 l 246 422 b 253 474 246 438 250 463 b 324 538 267 519 293 538 b 390 413 378 538 390 479 l 390 0 l 572 0 l 572 413 b 399 690 572 585 524 690 b 307 665 365 690 333 681 b 249 608 285 650 265 632 l 246 608 l 246 961 l 64 961 z "},"i":{"ha":310,"x_min":0,"x_max":0,"o":"m 246 0 l 246 679 l 64 679 l 64 0 z m 151 760 b 246 858 206 760 247 800 b 153 958 246 919 206 958 b 60 858 103 958 58 919 b 150 760 58 800 100 760 z "},"j":{"ha":311,"x_min":0,"x_max":0,"o":"m -39 -278 b 158 -219 26 -276 108 -260 b 249 49 217 -174 249 -103 l 249 679 l 67 679 l 67 83 b 36 -97 67 -19 61 -69 b -53 -133 14 -122 -21 -129 z m 156 760 b 250 858 210 760 251 800 b 157 958 250 919 210 958 b 64 858 107 958 63 919 b 154 760 63 800 104 760 z "},"k":{"ha":574,"x_min":0,"x_max":0,"o":"m 244 961 l 63 961 l 63 0 l 244 0 l 244 221 l 275 279 l 372 0 l 575 0 l 400 394 l 565 679 l 369 679 l 281 476 b 247 382 269 449 260 421 l 244 382 z "},"l":{"ha":313,"x_min":0,"x_max":0,"o":"m 64 0 l 246 0 l 246 961 l 64 961 z "},"m":{"ha":944,"x_min":0,"x_max":0,"o":"m 63 0 l 244 0 l 244 426 b 251 478 244 447 247 467 b 319 539 264 519 292 539 b 381 425 376 539 381 475 l 381 0 l 563 0 l 563 429 b 568 478 563 449 564 468 b 636 539 579 517 604 539 b 699 400 690 539 699 476 l 699 0 l 881 0 l 881 431 b 704 690 881 593 826 690 b 610 665 669 690 638 682 b 540 597 583 649 557 624 l 538 597 b 389 690 514 656 465 690 b 228 600 319 690 263 650 l 225 600 l 215 679 l 57 679 b 63 475 60 614 63 549 z "},"n":{"ha":636,"x_min":0,"x_max":0,"o":"m 64 0 l 246 0 l 246 414 b 256 476 246 440 250 463 b 324 538 268 517 293 538 b 390 425 376 538 390 482 l 390 0 l 572 0 l 572 436 b 392 690 572 588 521 690 b 228 601 321 690 263 654 l 225 601 l 215 679 l 58 679 b 64 475 61 614 64 549 z "},"o":{"ha":599,"x_min":0,"x_max":0,"o":"m 301 -11 b 560 342 403 -11 560 60 b 303 690 560 556 464 690 b 40 338 168 690 40 581 b 300 -11 40 118 138 -11 z m 303 128 b 221 340 239 128 221 225 b 301 551 221 435 235 551 b 379 340 364 551 379 435 b 304 128 379 242 364 128 z "},"p":{"ha":621,"x_min":0,"x_max":0,"o":"m 63 -267 l 244 -267 l 244 54 l 247 54 b 360 -11 267 24 304 -11 b 581 340 475 -11 581 99 b 371 690 581 528 519 690 b 228 600 307 690 256 656 l 225 600 l 215 679 l 57 679 b 63 464 60 614 63 546 z m 244 431 b 253 479 244 447 246 465 b 314 536 260 510 286 536 b 400 338 368 536 400 467 b 313 138 400 232 376 138 b 254 190 292 138 268 149 b 244 247 247 204 244 225 z "},"q":{"ha":621,"x_min":0,"x_max":0,"o":"m 376 -267 l 558 -267 l 558 464 b 564 679 558 543 561 617 l 407 679 l 397 606 l 394 608 b 269 690 365 669 314 690 b 42 324 140 690 42 554 b 244 -11 42 142 115 -11 b 374 58 303 -11 346 18 l 376 58 z m 376 242 b 369 197 376 228 375 211 b 308 138 357 154 332 138 b 222 338 253 138 222 214 b 308 536 222 461 251 536 b 371 471 336 536 361 511 b 376 429 375 460 376 442 z "},"r":{"ha":408,"x_min":0,"x_max":0,"o":"m 64 0 l 246 0 l 246 344 b 254 413 246 372 249 397 b 364 508 274 482 325 508 b 403 507 379 508 392 508 l 403 688 b 364 690 393 689 383 690 b 231 579 315 690 260 651 l 225 579 l 215 679 l 58 679 b 64 475 61 615 64 542 z "},"s":{"ha":450,"x_min":0,"x_max":0,"o":"m 26 31 b 181 -8 57 7 124 -8 b 421 206 321 -8 421 67 b 283 410 421 282 383 353 b 204 496 219 447 204 465 b 272 553 204 526 225 553 b 367 525 308 553 340 540 l 399 658 b 261 690 363 676 318 690 b 38 475 125 690 38 597 b 175 281 38 413 65 343 b 254 188 235 244 254 224 b 181 128 254 149 228 128 b 58 164 135 128 85 147 z "},"t":{"ha":432,"x_min":0,"x_max":0,"o":"m 96 799 l 96 679 l 15 679 l 15 550 l 96 550 l 96 229 b 153 35 96 122 117 71 b 285 -8 186 4 232 -8 b 396 4 332 -8 371 -3 l 394 146 b 346 142 378 143 364 142 b 278 240 311 142 278 161 l 278 550 l 411 550 l 411 679 l 278 679 l 278 856 z "},"u":{"ha":628,"x_min":0,"x_max":0,"o":"m 561 679 l 379 679 l 379 246 b 368 188 379 222 375 201 b 308 142 360 165 340 142 b 240 288 258 142 240 199 l 240 679 l 58 679 l 58 268 b 239 -11 58 85 110 -11 b 397 72 310 -11 365 26 l 400 72 l 410 0 l 567 0 b 561 207 564 64 561 135 z "},"v":{"ha":549,"x_min":0,"x_max":0,"o":"m 7 679 l 193 0 l 360 0 l 542 679 l 363 679 l 310 375 b 283 186 300 313 292 256 l 281 186 b 251 375 271 254 261 315 l 200 679 z "},"w":{"ha":856,"x_min":0,"x_max":0,"o":"m 7 679 l 174 0 l 331 0 l 388 236 b 428 449 403 300 418 371 l 431 449 b 465 238 439 371 451 300 l 515 0 l 671 0 l 846 679 l 665 679 l 624 389 b 600 181 614 315 606 244 l 597 181 b 561 390 589 247 576 314 l 504 679 l 364 679 l 304 383 b 267 181 290 318 276 244 l 263 181 b 239 386 257 244 247 313 l 203 679 z "},"x":{"ha":550,"x_min":0,"x_max":0,"o":"m 10 679 l 160 338 l 8 0 l 190 0 l 232 126 b 263 232 242 161 253 197 l 265 232 b 297 128 275 197 285 161 l 344 0 l 542 0 l 385 346 l 539 679 l 357 679 l 317 558 b 285 444 304 521 294 479 l 282 444 b 249 558 272 478 261 518 l 207 679 z "},"y":{"ha":543,"x_min":0,"x_max":0,"o":"m 7 679 l 193 50 b 199 25 196 42 199 33 b 189 -4 199 15 194 7 b 132 -86 176 -33 157 -62 b 43 -142 106 -111 74 -131 l 97 -299 b 251 -192 126 -292 194 -260 b 403 154 325 -106 369 26 l 542 679 l 364 679 l 307 322 b 292 211 301 285 296 246 l 289 211 b 269 325 283 249 276 285 l 203 679 z "},"z":{"ha":488,"x_min":0,"x_max":0,"o":"m 25 0 l 460 0 l 460 149 l 226 149 l 226 153 b 290 264 242 181 268 224 l 453 556 l 453 679 l 46 679 l 46 531 l 256 531 l 256 526 b 192 417 242 500 214 454 l 25 114 z "},"{":{"ha":358,"x_min":0,"x_max":0,"o":"m 14 344 b 106 267 89 344 106 300 b 97 158 106 231 101 194 b 89 44 93 121 89 83 b 297 -156 89 -104 183 -156 l 326 -156 l 326 -43 l 308 -43 b 231 54 244 -37 231 3 b 236 142 231 83 233 113 b 242 229 239 171 242 200 b 136 399 242 322 206 378 l 136 401 b 242 571 206 424 242 482 b 236 654 242 599 239 625 b 231 746 233 683 231 713 b 306 840 231 797 253 836 l 326 840 l 326 953 l 301 953 b 89 751 169 953 89 885 b 97 639 89 713 93 675 b 106 532 101 604 106 569 b 14 454 106 494 89 454 z "},"|":{"ha":303,"x_min":0,"x_max":0,"o":"m 85 1042 l 85 -347 l 219 -347 l 219 1042 z "},"}":{"ha":358,"x_min":0,"x_max":0,"o":"m 344 454 b 253 532 269 454 253 494 b 261 639 253 569 257 604 b 269 751 265 675 269 713 b 57 953 269 885 189 953 l 32 953 l 32 840 l 53 840 b 128 746 106 836 128 797 b 124 654 128 713 125 683 b 117 571 119 625 117 599 b 222 401 117 482 153 424 l 222 399 b 117 229 153 378 117 322 b 124 142 117 200 119 171 b 128 54 125 113 128 83 b 50 -43 128 3 114 -37 l 32 -43 l 32 -156 l 61 -156 b 269 44 175 -156 269 -104 b 261 158 269 83 265 121 b 253 267 257 194 253 231 b 344 344 253 300 269 344 z "},"~":{"ha":828,"x_min":0,"x_max":0,"o":"m 196 281 b 260 394 197 368 222 394 b 397 329 290 394 322 376 b 579 265 479 279 518 265 b 749 503 693 265 756 350 l 633 503 b 574 388 633 424 614 388 b 451 444 544 388 519 404 b 267 514 382 488 331 515 b 79 281 178 514 78 456 z "},"¡":{"ha":328,"x_min":0,"x_max":0,"o":"m 264 -267 l 242 367 l 88 367 l 65 -267 z m 164 685 b 60 572 107 685 60 639 b 165 461 60 508 106 461 b 268 572 228 461 268 508 b 165 685 268 639 224 685 z "},"¢":{"ha":592,"x_min":0,"x_max":0,"o":"m 411 -10 l 411 125 b 517 146 457 126 492 133 l 503 283 b 393 263 467 268 439 263 b 257 449 314 263 257 333 b 385 640 257 556 304 640 b 489 618 422 640 451 636 l 511 757 b 414 781 488 769 453 778 l 414 911 l 297 911 l 297 771 b 76 450 165 738 76 614 b 142 224 76 354 101 276 b 294 131 181 174 233 143 l 294 -10 z "},"£":{"ha":592,"x_min":0,"x_max":0,"o":"m 532 0 l 532 153 l 256 153 l 256 156 b 325 268 292 189 314 232 b 338 390 338 307 340 346 l 465 390 l 465 511 l 322 511 b 307 650 314 557 307 600 b 401 761 307 713 338 761 b 479 743 436 761 460 753 l 506 890 b 392 914 485 901 449 914 b 135 646 229 914 135 793 b 150 511 135 601 142 551 l 60 511 l 60 390 l 169 390 b 174 314 172 368 174 343 b 50 114 174 242 133 147 l 50 0 z "},"⁄":{"ha":438,"x_min":0,"x_max":0,"o":"m 26 -11 l 510 914 l 415 914 l -69 -11 z "},"¥":{"ha":592,"x_min":0,"x_max":0,"o":"m 378 0 l 378 229 l 558 229 l 558 322 l 378 322 l 378 404 l 558 404 l 558 497 l 417 497 l 585 903 l 417 903 l 342 654 b 304 501 325 596 313 539 l 301 501 b 261 651 294 539 278 597 l 188 903 l 8 903 l 172 497 l 31 497 l 31 404 l 211 404 l 211 322 l 31 322 l 31 229 l 211 229 l 211 0 z "},"ƒ":{"ha":592,"x_min":0,"x_max":0,"o":"m 106 418 l 196 418 l 171 168 b 85 31 160 57 124 31 b 32 40 71 31 49 35 l 7 -89 b 106 -111 31 -103 68 -111 b 343 161 278 -111 329 14 l 368 418 l 504 418 l 504 558 l 378 558 l 385 625 b 489 771 394 708 424 771 b 542 763 508 771 525 768 l 565 897 b 478 914 544 907 514 914 b 211 622 313 914 228 788 l 206 558 l 106 558 z "},"§":{"ha":599,"x_min":0,"x_max":0,"o":"m 176 486 b 221 560 176 517 199 546 b 343 499 251 539 296 519 b 425 400 397 475 425 438 b 390 325 425 371 408 338 b 279 385 367 342 332 363 b 176 485 199 419 176 454 z m 494 913 b 346 947 456 935 404 947 b 97 739 203 947 97 867 b 143 624 97 692 118 651 b 46 457 76 574 46 514 b 240 233 46 344 126 283 b 369 121 332 192 369 165 b 271 49 369 74 329 49 b 114 93 200 49 143 75 l 82 -25 b 272 -69 125 -54 200 -69 b 518 146 411 -69 518 14 b 474 263 518 203 490 246 b 553 439 524 313 553 368 b 350 668 553 569 464 622 b 246 765 272 697 246 715 b 338 829 246 806 288 829 b 467 799 389 829 433 815 z "},"¤":{"ha":592,"x_min":0,"x_max":0,"o":"m 297 744 b 158 690 249 744 197 726 l 68 800 l -8 721 l 100 615 b 63 447 76 569 63 513 b 96 288 63 388 74 332 l -6 183 l 68 106 l 156 210 b 292 161 192 178 240 161 b 429 214 338 161 390 178 l 522 106 l 597 183 l 489 294 b 521 456 510 338 521 393 b 490 615 521 514 511 568 l 600 721 l 524 800 l 435 694 b 299 744 400 725 351 744 z m 293 618 b 367 453 351 618 367 532 b 292 288 367 358 350 286 b 217 450 242 288 217 361 b 292 618 217 544 235 618 z "},"'":{"ha":236,"x_min":0,"x_max":0,"o":"m 46 950 l 74 589 l 164 589 l 192 950 z "},"“":{"ha":468,"x_min":0,"x_max":0,"o":"m 163 601 b 256 950 178 713 215 835 l 161 938 b 6 588 103 838 43 713 z m 378 601 b 471 950 393 713 431 835 l 378 938 b 221 588 318 838 260 713 z "},"«":{"ha":532,"x_min":0,"x_max":0,"o":"m 300 607 l 168 607 l 22 350 l 168 94 l 300 94 l 150 350 z m 522 607 l 390 607 l 244 350 l 392 94 l 522 94 l 372 350 z "},"‹":{"ha":307,"x_min":0,"x_max":0,"o":"m 300 607 l 168 607 l 22 350 l 169 94 l 300 94 l 150 350 z "},"›":{"ha":307,"x_min":0,"x_max":0,"o":"m 157 350 l 7 94 l 139 94 l 285 350 l 138 607 l 7 607 z "},"ﬁ":{"ha":679,"x_min":0,"x_max":0,"o":"m 278 0 l 278 550 l 433 550 l 433 0 l 615 0 l 615 679 l 278 679 l 278 703 b 404 824 278 767 306 824 b 532 801 460 824 500 813 l 557 944 b 397 972 521 960 463 972 b 96 715 151 972 96 803 l 96 679 l 4 679 l 4 550 l 96 550 l 96 0 z "},"ﬂ":{"ha":679,"x_min":0,"x_max":0,"o":"m 278 0 l 278 550 l 378 550 l 378 679 l 278 679 l 278 714 b 375 829 278 774 304 829 b 435 819 401 829 421 826 l 435 0 l 617 0 l 617 935 b 400 972 568 954 485 972 b 179 901 290 972 225 942 b 96 704 118 846 96 754 l 96 679 l 4 679 l 4 550 l 96 550 l 96 0 z "},"–":{"ha":694,"x_min":0,"x_max":0,"o":"m 42 424 l 42 300 l 653 300 l 653 424 z "},"†":{"ha":590,"x_min":0,"x_max":0,"o":"m 218 936 l 226 675 l 43 683 l 43 535 l 226 543 l 218 -69 l 371 -69 l 363 543 l 546 535 l 546 683 l 363 675 l 371 936 z "},"‡":{"ha":590,"x_min":0,"x_max":0,"o":"m 218 936 l 226 685 l 44 693 l 44 544 l 226 553 l 226 317 l 44 325 l 44 176 l 225 185 l 219 -69 l 372 -69 l 364 185 l 546 176 l 546 325 l 364 317 l 364 553 l 546 544 l 546 693 l 364 685 l 372 936 z "},"·":{"ha":324,"x_min":0,"x_max":0,"o":"m 161 254 b 268 374 225 254 268 301 b 163 494 268 449 221 494 b 56 374 106 494 56 444 b 160 254 56 301 104 254 z "},"¶":{"ha":599,"x_min":0,"x_max":0,"o":"m 336 -69 l 336 835 l 418 835 l 418 -69 l 517 -69 l 517 925 b 367 936 475 932 443 936 b 29 618 121 936 21 778 b 226 367 40 424 189 367 l 238 367 l 238 -69 z "},"•":{"ha":399,"x_min":0,"x_max":0,"o":"m 199 221 b 346 372 285 221 346 279 b 200 524 346 467 281 524 b 53 371 117 524 53 464 b 197 221 53 281 117 221 z "},"‚":{"ha":264,"x_min":0,"x_max":0,"o":"m 100 -140 b 256 210 158 -40 217 85 l 99 196 b 6 -153 83 85 46 -37 z "},"„":{"ha":468,"x_min":0,"x_max":0,"o":"m 93 -140 b 250 210 153 -40 211 85 l 93 196 b 0 -153 78 85 40 -37 z m 310 -140 b 465 210 368 -40 428 85 l 308 196 b 215 -153 293 85 256 -37 z "},"”":{"ha":468,"x_min":0,"x_max":0,"o":"m 93 936 b 0 588 78 826 40 703 l 93 600 b 250 950 153 700 211 825 z m 308 936 b 215 588 293 826 256 703 l 310 600 b 465 950 368 700 428 825 z "},"»":{"ha":532,"x_min":0,"x_max":0,"o":"m 160 350 l 10 94 l 142 94 l 288 350 l 140 607 l 10 607 z m 382 350 l 232 94 l 364 94 l 510 350 l 363 607 l 232 607 z "},"…":{"ha":1389,"x_min":0,"x_max":0,"o":"m 231 -11 b 338 108 294 -11 338 36 b 232 231 338 185 290 231 b 125 108 175 231 125 179 b 229 -11 125 36 174 -11 z m 694 -11 b 801 108 758 -11 801 36 b 696 231 801 185 754 231 b 589 108 639 231 589 179 b 693 -11 589 36 638 -11 z m 1158 -11 b 1265 108 1222 -11 1265 36 b 1160 231 1265 185 1218 231 b 1053 108 1103 231 1053 179 b 1157 -11 1053 36 1101 -11 z "},"‰":{"ha":1331,"x_min":0,"x_max":0,"o":"m 208 914 b 25 635 90 914 25 781 b 207 361 25 499 81 361 b 386 640 299 361 386 449 b 210 914 386 765 343 914 z m 207 818 b 264 636 251 818 264 743 b 207 457 264 524 250 457 b 147 639 164 457 146 521 b 206 818 147 751 167 818 z m 260 -14 l 746 915 l 651 915 l 164 -14 z m 710 544 b 526 265 592 544 526 411 b 708 -8 526 129 582 -8 b 888 271 800 -8 888 79 b 711 544 888 396 844 544 z m 708 449 b 765 267 753 449 765 374 b 708 88 765 154 751 88 b 649 269 665 88 647 151 b 707 449 649 382 668 449 z m 1128 544 b 944 265 1010 544 944 411 b 1126 -8 944 129 1000 -8 b 1306 271 1218 -8 1306 79 b 1129 544 1306 396 1263 544 z m 1126 449 b 1183 267 1171 449 1183 374 b 1126 88 1183 154 1169 88 b 1067 269 1083 88 1065 151 b 1125 449 1067 382 1086 449 z "},"¿":{"ha":464,"x_min":0,"x_max":0,"o":"m 265 685 b 161 571 208 685 161 639 b 267 460 161 507 207 460 b 369 571 331 460 369 507 b 267 685 369 639 325 685 z m 188 382 l 188 353 b 128 182 188 288 165 239 b 25 -64 79 111 25 32 b 260 -278 25 -158 76 -278 b 422 -236 328 -278 393 -256 l 392 -97 b 303 -121 365 -115 333 -121 b 211 -35 244 -121 211 -86 b 271 121 211 18 231 60 b 344 357 322 201 354 275 l 342 382 z "},"`":{"ha":417,"x_min":0,"x_max":0,"o":"m 40 957 l 181 763 l 294 763 l 199 957 z "},"´":{"ha":417,"x_min":0,"x_max":0,"o":"m 240 957 l 144 763 l 258 763 l 399 957 z "},"ˆ":{"ha":417,"x_min":0,"x_max":0,"o":"m 146 957 l 26 763 l 153 763 l 207 874 l 210 874 l 267 763 l 390 763 l 272 957 z "},"˜":{"ha":417,"x_min":0,"x_max":0,"o":"m 122 774 b 154 828 122 808 136 828 b 208 804 174 828 186 815 b 282 782 228 794 256 782 b 379 940 340 782 379 829 l 299 940 b 269 889 299 896 286 889 b 218 911 250 889 235 900 b 138 936 194 922 172 936 b 39 774 71 936 39 863 z "},"¯":{"ha":417,"x_min":0,"x_max":0,"o":"m 63 911 l 63 807 l 357 807 l 357 911 z "},"˘":{"ha":417,"x_min":0,"x_max":0,"o":"m 44 943 b 206 768 40 843 107 768 b 374 943 308 768 378 843 l 285 943 b 207 869 285 904 258 869 b 135 943 168 869 139 896 z "},"˙":{"ha":417,"x_min":0,"x_max":0,"o":"m 208 778 b 292 867 257 778 292 815 b 208 956 292 919 256 956 b 125 867 164 956 125 918 b 207 778 125 815 163 778 z "},"¨":{"ha":417,"x_min":0,"x_max":0,"o":"m 85 778 b 168 867 133 778 168 815 b 85 956 168 919 132 956 b 1 867 40 956 1 918 b 83 778 1 815 39 778 z m 331 778 b 414 867 379 778 414 815 b 331 956 414 919 378 956 b 247 867 286 956 247 918 b 329 778 247 815 285 778 z "},"˚":{"ha":556,"x_min":0,"x_max":0,"o":"m 279 1001 b 136 871 182 1001 136 943 b 279 749 136 803 185 749 b 421 875 369 749 421 804 b 281 1001 421 949 374 1001 z m 278 942 b 335 875 325 942 335 906 b 278 808 335 846 322 808 b 222 872 235 808 222 849 b 276 942 222 903 235 942 z "},"¸":{"ha":417,"x_min":0,"x_max":0,"o":"m 182 7 l 129 -114 b 224 -165 190 -119 224 -139 b 179 -200 224 -192 201 -200 b 106 -181 156 -200 129 -192 l 81 -258 b 185 -283 106 -274 147 -283 b 338 -162 263 -283 338 -251 b 244 -61 338 -108 293 -69 l 279 7 z "},"˝":{"ha":417,"x_min":0,"x_max":0,"o":"m 168 957 l 68 763 l 161 763 l 300 957 z m 360 957 l 260 763 l 353 763 l 492 957 z "},"˛":{"ha":417,"x_min":0,"x_max":0,"o":"m 131 8 b 81 -151 117 -18 81 -83 b 215 -285 81 -231 125 -285 b 338 -250 251 -285 297 -278 l 315 -158 b 261 -167 301 -164 285 -167 b 206 -108 231 -167 206 -142 b 243 8 206 -72 222 -26 z "},"ˇ":{"ha":417,"x_min":0,"x_max":0,"o":"m 272 763 l 392 957 l 265 957 l 210 846 l 207 846 l 150 957 l 26 957 l 144 763 z "},"—":{"ha":1389,"x_min":0,"x_max":0,"o":"m 42 424 l 42 300 l 1347 300 l 1347 424 z "},"Æ":{"ha":826,"x_min":0,"x_max":0,"o":"m 169 0 l 232 256 l 404 256 l 419 0 l 806 0 l 806 158 l 579 158 l 565 396 l 776 396 l 776 547 l 551 547 l 538 778 l 785 778 l 785 936 l 272 936 l -10 0 z m 267 397 l 313 589 b 363 810 324 639 346 732 l 368 810 b 378 629 372 747 375 683 l 389 397 z "},"ª":{"ha":419,"x_min":0,"x_max":0,"o":"m 372 365 b 367 469 368 397 367 435 l 367 626 b 203 817 367 717 338 817 b 74 782 156 817 110 803 l 93 696 b 181 722 114 711 143 722 b 253 667 233 722 253 693 l 253 656 b 43 492 146 654 43 608 b 161 358 43 411 93 358 b 264 411 204 358 239 376 l 267 411 l 274 365 z m 256 503 b 247 479 256 494 251 486 b 200 451 236 460 217 451 b 151 504 174 451 151 472 b 256 576 151 561 208 576 z "},"Ł":{"ha":531,"x_min":0,"x_max":0,"o":"m 504 0 l 504 154 l 265 154 l 265 451 l 394 551 l 394 706 l 265 606 l 265 936 l 83 936 l 83 479 l 0 414 l 0 260 l 83 325 l 83 0 z "},"Ø":{"ha":668,"x_min":0,"x_max":0,"o":"m 149 -71 l 194 32 b 335 -11 235 3 282 -11 b 633 485 510 -11 633 132 b 551 835 633 603 615 740 l 610 967 l 514 1007 l 471 910 b 338 947 432 935 388 947 b 35 469 135 947 35 721 b 117 113 35 333 57 203 l 57 -21 z m 222 326 l 219 326 b 213 472 214 375 213 426 b 336 789 213 681 261 789 b 401 750 364 789 388 775 z m 446 615 l 449 615 b 456 475 454 568 456 519 b 336 147 456 261 413 147 b 261 192 307 147 276 161 z "},"Œ":{"ha":903,"x_min":0,"x_max":0,"o":"m 858 158 l 618 158 l 618 411 l 831 411 l 831 563 l 618 563 l 618 778 l 843 778 l 843 936 l 501 936 b 450 942 486 936 469 939 b 389 947 432 944 411 947 b 35 468 140 947 35 726 b 381 -11 35 229 104 -11 b 439 -6 400 -11 419 -8 b 494 0 456 -3 475 0 l 858 0 z m 436 158 b 382 147 425 151 404 147 b 224 472 290 147 221 242 b 378 789 222 699 297 789 b 436 775 404 789 422 783 z "},"º":{"ha":432,"x_min":0,"x_max":0,"o":"m 215 817 b 42 586 124 817 42 743 b 215 358 42 443 106 358 b 385 590 288 358 385 406 b 217 817 385 728 326 817 z m 214 721 b 268 588 258 721 268 649 b 214 454 268 525 261 454 b 158 588 172 454 158 514 b 213 721 158 633 167 721 z "},"æ":{"ha":879,"x_min":0,"x_max":0,"o":"m 835 297 b 839 369 836 321 839 343 b 625 690 839 571 756 690 b 440 583 547 690 482 656 l 438 583 b 263 690 410 651 344 690 b 69 639 193 690 121 669 l 103 518 b 228 556 132 538 183 556 b 333 460 297 556 333 511 l 333 439 b 26 203 182 438 26 371 b 214 -11 26 78 106 -11 b 411 107 300 -11 365 29 l 415 107 b 629 -11 451 28 538 -11 b 811 26 689 -11 751 -3 l 786 153 b 661 125 753 136 711 125 b 513 297 581 125 513 169 z m 336 222 b 331 185 336 208 335 196 b 258 125 319 146 289 125 b 189 210 226 125 189 150 b 336 325 189 306 275 325 z m 513 415 b 599 563 514 475 539 563 b 674 415 654 563 675 492 z "},"ı":{"ha":310,"x_min":0,"x_max":0,"o":"m 246 0 l 246 679 l 64 679 l 64 0 z "},"ł":{"ha":315,"x_min":0,"x_max":0,"o":"m 249 0 l 249 490 l 326 556 l 326 707 l 249 642 l 249 961 l 67 961 l 67 533 l -10 468 l -10 318 l 67 382 l 67 0 z "},"ø":{"ha":599,"x_min":0,"x_max":0,"o":"m 301 690 b 40 338 168 690 40 581 b 107 88 40 231 63 146 l 54 -6 l 131 -57 l 175 22 b 301 -11 211 1 253 -11 b 558 342 403 -11 558 60 b 493 592 558 447 535 532 l 549 692 l 468 736 l 424 656 b 303 690 388 678 346 690 z m 218 253 l 214 256 b 208 340 210 286 208 315 b 299 551 208 415 219 551 b 354 517 328 551 344 539 z m 379 415 l 385 415 b 390 324 390 383 390 351 b 301 128 390 228 369 128 b 249 164 275 128 257 142 z "},"œ":{"ha":924,"x_min":0,"x_max":0,"o":"m 883 282 b 888 369 885 297 888 326 b 668 690 888 568 804 690 b 478 576 589 690 524 651 l 475 576 b 300 690 439 657 371 690 b 40 338 168 690 40 579 b 285 -11 40 117 140 -11 b 469 104 351 -11 431 24 l 472 104 b 679 -11 517 19 593 -11 b 858 26 739 -11 804 -4 l 835 150 b 704 128 801 139 758 128 b 558 282 631 128 565 167 z m 303 551 b 383 343 369 551 383 439 b 303 128 383 235 372 128 b 221 339 240 128 221 224 b 301 551 221 429 232 551 z m 561 400 b 650 556 563 469 588 556 b 721 400 701 556 722 486 z "},"ß":{"ha":685,"x_min":0,"x_max":0,"o":"m 246 0 l 246 615 b 356 826 246 772 292 826 b 443 729 406 826 443 788 b 433 665 443 710 443 686 b 340 504 382 635 340 574 b 422 322 340 431 372 382 b 482 203 463 275 482 244 b 403 129 482 167 456 129 b 317 146 372 129 343 133 l 296 7 b 415 -11 328 -4 368 -11 b 653 218 550 -11 653 79 b 564 433 653 301 629 360 b 514 535 531 472 514 497 b 582 629 514 572 540 606 b 615 736 601 653 615 697 b 365 972 615 864 532 972 b 156 892 283 972 210 944 b 64 600 97 833 64 751 l 64 0 z "},"¹":{"ha":332,"x_min":0,"x_max":0,"o":"m 267 579 l 267 1121 l 150 1121 l 13 1054 l 36 960 l 133 1006 l 136 1006 l 136 579 z "},"¬":{"ha":828,"x_min":0,"x_max":0,"o":"m 56 585 l 56 471 l 657 471 l 657 147 l 772 147 l 772 585 z "},"µ":{"ha":632,"x_min":0,"x_max":0,"o":"m 421 68 b 540 -11 443 18 476 -11 b 596 -3 563 -11 583 -8 l 613 124 b 565 196 576 124 565 140 l 565 679 l 383 679 l 383 244 b 374 183 383 222 381 197 b 311 135 364 161 344 135 b 246 250 268 135 246 174 l 246 679 l 64 679 l 64 0 b 86 -267 64 -143 74 -232 l 253 -267 b 238 -24 244 -224 238 -122 l 238 31 b 313 -1 257 7 283 -1 b 417 68 361 -1 400 32 z "},"™":{"ha":749,"x_min":0,"x_max":0,"o":"m 35 936 l 35 847 l 113 847 l 113 557 l 221 557 l 221 847 l 299 847 l 299 936 z m 731 557 l 714 936 l 569 936 l 550 846 b 532 724 544 808 538 769 l 531 724 b 515 846 524 786 519 808 l 497 936 l 343 936 l 325 557 l 418 557 l 424 724 b 428 871 426 767 426 819 l 433 871 b 450 725 440 821 447 763 l 474 564 l 572 564 l 599 724 b 622 871 606 757 614 807 l 628 871 b 628 724 629 814 628 765 l 635 557 z "},"Ð":{"ha":685,"x_min":0,"x_max":0,"o":"m 0 421 l 83 421 l 83 3 b 235 -8 119 -3 176 -8 b 521 82 365 -8 457 22 b 651 479 603 154 651 289 b 529 857 651 661 610 785 b 268 940 469 913 388 940 b 83 922 196 940 129 933 l 83 547 l 0 547 z m 368 547 l 265 547 l 265 790 b 301 794 276 793 286 794 b 463 486 413 794 463 678 b 297 140 463 226 386 140 b 265 143 288 140 275 140 l 265 421 l 368 421 z "},"½":{"ha":926,"x_min":0,"x_max":0,"o":"m 264 365 l 264 907 l 147 907 l 10 840 l 33 746 l 131 792 l 133 792 l 133 365 z m 221 -11 l 704 914 l 610 914 l 126 -11 z m 535 0 l 874 0 l 874 111 l 697 111 l 697 115 l 722 142 b 868 392 792 213 868 290 b 693 549 868 465 826 549 b 542 503 626 549 571 528 l 569 407 b 658 439 592 424 624 439 b 728 365 699 439 728 418 b 600 153 728 303 671 240 l 535 74 z "},"±":{"ha":828,"x_min":0,"x_max":0,"o":"m 356 786 l 356 547 l 56 547 l 56 433 l 356 433 l 356 189 l 472 189 l 472 433 l 772 433 l 772 547 l 472 547 l 472 786 z m 56 114 l 56 0 l 772 0 l 772 114 z "},"Þ":{"ha":629,"x_min":0,"x_max":0,"o":"m 81 0 l 258 0 l 258 197 b 310 193 271 194 289 193 b 601 503 438 193 601 271 b 519 714 601 583 579 661 b 317 778 460 767 392 778 b 258 775 294 778 275 776 l 258 936 l 81 936 z m 258 625 b 306 631 272 629 288 631 b 424 490 392 631 424 569 b 299 343 424 406 379 343 b 258 347 283 343 269 343 z "},"¼":{"ha":926,"x_min":0,"x_max":0,"o":"m 279 365 l 279 907 l 163 907 l 25 840 l 49 746 l 146 792 l 149 792 l 149 365 z m 258 -11 l 740 914 l 647 914 l 163 -11 z m 821 0 l 821 124 l 879 124 l 879 219 l 821 219 l 821 543 l 693 543 l 499 206 l 499 124 l 703 124 l 703 0 z m 703 219 l 607 219 l 607 221 l 671 338 b 704 410 685 363 692 383 l 707 410 b 703 317 706 386 703 354 z "},"÷":{"ha":828,"x_min":0,"x_max":0,"o":"m 414 525 b 496 610 468 525 496 563 b 415 694 496 658 464 694 b 333 610 367 694 333 658 b 413 525 333 563 365 525 z m 772 314 l 772 428 l 56 428 l 56 314 z m 414 47 b 496 132 468 47 496 85 b 415 217 496 181 464 217 b 333 132 367 217 333 181 b 413 47 333 85 365 47 z "},"¦":{"ha":303,"x_min":0,"x_max":0,"o":"m 85 242 l 85 -244 l 219 -244 l 219 242 z m 85 936 l 85 450 l 219 450 l 219 936 z "},"°":{"ha":399,"x_min":0,"x_max":0,"o":"m 204 949 b 36 775 119 949 36 874 b 201 611 36 681 106 611 b 371 783 278 611 371 671 b 206 949 371 872 307 949 z m 203 878 b 289 778 263 878 289 828 b 204 682 289 721 251 682 b 118 775 158 682 118 724 b 203 878 118 832 158 878 z "},"þ":{"ha":621,"x_min":0,"x_max":0,"o":"m 63 932 l 63 -267 l 244 -267 l 244 63 l 247 63 b 372 -11 265 25 306 -11 b 581 340 475 -11 581 100 b 382 690 581 528 519 690 b 246 596 319 690 274 656 l 243 596 l 243 932 z m 244 432 b 254 482 244 451 247 467 b 315 536 264 511 288 536 b 400 338 368 536 400 464 b 313 138 400 231 376 138 b 256 186 293 138 269 149 b 244 249 249 200 244 222 z "},"¾":{"ha":926,"x_min":0,"x_max":0,"o":"m 78 792 b 160 815 103 806 128 815 b 222 758 197 815 222 794 b 121 696 222 713 167 696 l 111 696 l 111 610 l 128 610 b 231 529 186 610 231 582 b 150 457 231 488 196 457 b 57 481 113 457 81 468 l 38 385 b 156 358 63 369 104 358 b 367 525 286 358 367 429 b 261 653 367 590 319 643 l 261 656 b 351 783 317 679 351 721 b 189 914 351 846 304 914 b 57 882 138 914 88 899 z m 279 -11 l 764 914 l 669 914 l 185 -11 z m 829 0 l 829 124 l 888 124 l 888 219 l 829 219 l 829 543 l 701 543 l 507 206 l 507 124 l 711 124 l 711 0 z m 711 219 l 614 219 l 614 221 l 678 338 b 713 410 693 363 700 383 l 715 410 b 711 317 714 386 711 354 z "},"²":{"ha":381,"x_min":0,"x_max":0,"o":"m 10 579 l 349 579 l 349 690 l 172 690 l 172 694 l 197 721 b 343 971 265 793 343 869 b 168 1128 343 1044 301 1128 b 17 1082 101 1128 46 1107 l 44 986 b 133 1018 67 1003 99 1018 b 203 943 174 1018 203 996 b 75 732 203 882 146 819 l 10 653 z "},"®":{"ha":519,"x_min":0,"x_max":0,"o":"m 232 697 l 251 697 b 286 667 272 697 283 688 b 301 624 292 649 294 632 l 364 624 b 351 672 361 631 357 643 b 310 725 344 701 332 718 l 310 728 b 356 775 338 735 356 754 b 335 819 356 796 347 811 b 258 836 319 829 300 836 b 175 828 218 836 188 831 l 175 624 l 232 624 z m 235 790 b 256 792 239 790 247 792 b 290 765 278 792 290 783 b 253 740 290 750 275 740 l 235 740 z m 260 953 b 38 729 136 953 38 851 b 260 506 38 606 136 506 b 482 729 385 506 482 606 b 261 953 482 851 385 953 z m 260 897 b 417 728 350 897 417 822 b 260 561 417 635 350 560 b 103 728 169 561 103 635 b 258 897 103 822 169 897 z "},"−":{"ha":828,"x_min":0,"x_max":0,"o":"m 56 428 l 56 314 l 772 314 l 772 428 z "},"ð":{"ha":599,"x_min":0,"x_max":0,"o":"m 301 128 b 221 342 243 128 221 224 b 303 556 221 421 233 556 b 365 493 338 556 354 529 b 378 335 378 453 378 397 b 303 128 378 233 365 128 z m 118 699 l 253 769 b 331 665 282 743 311 703 l 328 660 b 250 669 303 672 278 674 b 40 338 146 653 40 551 b 296 -11 40 118 135 -11 b 558 361 403 -11 558 60 b 501 663 558 472 544 575 b 383 838 468 728 431 789 l 494 894 l 457 958 l 328 892 b 210 983 288 929 246 960 l 106 892 b 192 821 138 867 169 843 l 79 760 z "},"×":{"ha":828,"x_min":0,"x_max":0,"o":"m 56 649 l 333 365 l 56 85 l 136 0 l 414 283 l 692 0 l 772 85 l 496 365 l 772 649 l 694 731 l 414 446 l 133 731 z "},"³":{"ha":361,"x_min":0,"x_max":0,"o":"m 49 1006 b 131 1029 74 1019 99 1029 b 193 972 168 1029 193 1008 b 92 910 193 926 138 910 l 82 910 l 82 824 l 99 824 b 201 744 157 824 201 796 b 121 671 201 701 167 671 b 28 694 83 671 51 682 l 8 599 b 126 572 33 583 75 572 b 338 740 257 572 338 643 b 232 867 338 804 290 857 l 232 869 b 322 997 288 893 322 935 b 160 1128 322 1060 275 1128 b 28 1096 108 1128 58 1113 z "},"©":{"ha":940,"x_min":0,"x_max":0,"o":"m 472 900 b 43 472 235 900 43 708 b 472 42 43 233 235 42 b 897 472 710 42 897 233 b 474 900 897 708 710 900 z m 471 822 b 807 471 658 822 807 665 b 471 119 807 276 658 118 b 133 471 283 121 133 276 b 469 822 133 665 283 822 z m 658 686 b 513 722 640 701 575 722 b 236 464 353 722 236 624 b 489 213 236 324 329 213 b 656 251 557 213 607 225 l 635 324 b 503 294 604 308 557 294 b 333 467 401 294 333 364 b 508 640 333 575 403 640 b 638 611 571 640 619 621 z "},"Á":{"ha":636,"x_min":0,"x_max":0,"o":"m 397 214 l 436 0 l 614 0 l 432 936 l 214 936 l 11 0 l 188 0 l 229 214 z m 247 356 l 282 551 b 315 764 292 606 306 701 l 319 764 b 350 551 328 703 340 608 l 381 356 z m 354 1143 l 240 986 l 369 986 l 539 1143 z "},"Â":{"ha":636,"x_min":0,"x_max":0,"o":"m 397 214 l 436 0 l 614 0 l 432 936 l 214 936 l 11 0 l 188 0 l 229 214 z m 247 356 l 282 551 b 315 764 292 606 306 701 l 319 764 b 350 551 328 703 340 608 l 381 356 z m 250 1139 l 138 986 l 267 986 l 319 1058 l 322 1058 l 376 986 l 510 986 l 393 1139 z "},"Ä":{"ha":636,"x_min":0,"x_max":0,"o":"m 397 214 l 436 0 l 614 0 l 432 936 l 214 936 l 11 0 l 188 0 l 229 214 z m 247 356 l 282 551 b 315 764 292 606 306 701 l 319 764 b 350 551 328 703 340 608 l 381 356 z m 200 990 b 282 1079 244 990 282 1029 b 200 1167 282 1128 244 1167 b 118 1079 157 1167 118 1128 b 199 990 118 1029 156 990 z m 456 990 b 538 1079 500 990 538 1029 b 456 1167 538 1128 500 1167 b 372 1079 411 1167 372 1128 b 454 990 372 1029 410 990 z "},"À":{"ha":636,"x_min":0,"x_max":0,"o":"m 397 214 l 436 0 l 614 0 l 432 936 l 214 936 l 11 0 l 188 0 l 229 214 z m 247 356 l 282 551 b 315 764 292 606 306 701 l 319 764 b 350 551 328 703 340 608 l 381 356 z m 115 1143 l 285 986 l 414 986 l 300 1143 z "},"Å":{"ha":636,"x_min":0,"x_max":0,"o":"m 397 214 l 436 0 l 614 0 l 432 936 l 214 936 l 11 0 l 188 0 l 229 214 z m 247 356 l 282 551 b 315 764 292 606 306 701 l 319 764 b 350 551 328 703 340 608 l 381 356 z m 321 1228 b 172 1097 219 1228 172 1163 b 321 972 172 1035 215 972 b 467 1101 421 972 467 1035 b 322 1228 467 1168 425 1228 z m 318 1163 b 372 1100 357 1163 372 1131 b 318 1039 372 1068 358 1039 b 267 1099 281 1039 267 1071 b 317 1163 267 1128 279 1163 z "},"Ã":{"ha":636,"x_min":0,"x_max":0,"o":"m 397 214 l 436 0 l 614 0 l 432 936 l 214 936 l 11 0 l 188 0 l 229 214 z m 247 356 l 282 551 b 315 764 292 606 306 701 l 319 764 b 350 551 328 703 340 608 l 381 356 z m 246 997 b 275 1046 249 1029 260 1046 b 324 1025 292 1046 304 1036 b 399 1003 343 1013 368 1003 b 494 1163 463 1003 497 1046 l 414 1163 b 381 1110 408 1122 401 1110 b 329 1133 365 1110 349 1121 b 256 1157 310 1146 288 1157 b 164 997 199 1157 161 1100 z "},"Ç":{"ha":558,"x_min":0,"x_max":0,"o":"m 510 167 b 422 153 488 160 453 153 b 228 464 313 153 228 240 b 424 785 228 696 321 785 b 508 767 463 785 486 776 l 538 919 b 411 944 519 931 475 944 b 35 454 231 944 35 807 b 313 -1 35 210 122 39 l 261 -112 b 356 -164 322 -118 356 -137 b 311 -199 356 -190 333 -199 b 239 -179 288 -199 261 -190 l 213 -257 b 317 -282 239 -272 279 -282 b 469 -161 394 -282 469 -250 b 376 -61 469 -107 425 -69 l 404 -8 b 528 14 453 -8 503 1 z "},"É":{"ha":547,"x_min":0,"x_max":0,"o":"m 475 563 l 263 563 l 263 778 l 488 778 l 488 936 l 81 936 l 81 0 l 503 0 l 503 158 l 263 158 l 263 411 l 475 411 z m 319 1143 l 206 986 l 335 986 l 504 1143 z "},"Ê":{"ha":547,"x_min":0,"x_max":0,"o":"m 475 563 l 263 563 l 263 778 l 488 778 l 488 936 l 81 936 l 81 0 l 503 0 l 503 158 l 263 158 l 263 411 l 475 411 z m 217 1139 l 104 986 l 233 986 l 286 1058 l 289 1058 l 343 986 l 476 986 l 360 1139 z "},"Ë":{"ha":547,"x_min":0,"x_max":0,"o":"m 475 563 l 263 563 l 263 778 l 488 778 l 488 936 l 81 936 l 81 0 l 503 0 l 503 158 l 263 158 l 263 411 l 475 411 z m 160 993 b 242 1082 204 993 242 1032 b 160 1169 242 1131 204 1169 b 78 1082 117 1169 78 1131 b 158 993 78 1032 115 993 z m 415 993 b 497 1082 460 993 497 1032 b 415 1169 497 1131 460 1169 b 332 1082 371 1169 332 1131 b 414 993 332 1032 369 993 z "},"È":{"ha":547,"x_min":0,"x_max":0,"o":"m 475 563 l 263 563 l 263 778 l 488 778 l 488 936 l 81 936 l 81 0 l 503 0 l 503 158 l 263 158 l 263 411 l 475 411 z m 86 1143 l 256 986 l 385 986 l 271 1143 z "},"Í":{"ha":344,"x_min":0,"x_max":0,"o":"m 81 936 l 81 0 l 263 0 l 263 936 z m 197 1143 l 83 986 l 213 986 l 382 1143 z "},"Î":{"ha":344,"x_min":0,"x_max":0,"o":"m 81 936 l 81 0 l 263 0 l 263 936 z m 99 1139 l -14 986 l 115 986 l 168 1058 l 171 1058 l 225 986 l 358 986 l 242 1139 z "},"Ï":{"ha":344,"x_min":0,"x_max":0,"o":"m 81 936 l 81 0 l 263 0 l 263 936 z m 43 993 b 125 1082 88 993 125 1032 b 43 1169 125 1131 88 1169 b -39 1082 0 1169 -39 1131 b 42 993 -39 1032 -1 993 z m 299 993 b 381 1082 343 993 381 1032 b 299 1169 381 1131 343 1169 b 215 1082 254 1169 215 1131 b 297 993 215 1032 253 993 z "},"Ì":{"ha":344,"x_min":0,"x_max":0,"o":"m 81 936 l 81 0 l 263 0 l 263 936 z m -43 1143 l 126 986 l 256 986 l 142 1143 z "},"Ñ":{"ha":717,"x_min":0,"x_max":0,"o":"m 240 0 l 240 211 b 228 638 240 399 233 543 l 231 638 b 326 357 253 554 294 435 l 469 0 l 636 0 l 636 936 l 476 936 l 476 729 b 494 296 476 557 489 393 l 492 296 b 392 568 465 376 421 497 l 247 936 l 81 936 l 81 0 z m 279 997 b 308 1046 282 1029 293 1046 b 357 1025 325 1046 338 1036 b 432 1003 376 1013 401 1003 b 528 1163 496 1003 531 1046 l 447 1163 b 414 1110 442 1122 435 1110 b 363 1133 399 1110 382 1121 b 289 1157 343 1146 321 1157 b 197 997 232 1157 194 1100 z "},"Ó":{"ha":668,"x_min":0,"x_max":0,"o":"m 332 -11 b 633 485 508 -11 633 132 b 344 947 633 699 569 947 b 35 471 136 947 35 726 b 331 -11 35 214 118 -11 z m 336 147 b 224 472 256 147 221 286 b 336 789 222 642 256 789 b 444 476 419 789 444 642 b 338 147 444 286 415 147 z m 371 1143 l 257 986 l 386 986 l 556 1143 z "},"Ô":{"ha":668,"x_min":0,"x_max":0,"o":"m 332 -11 b 633 485 508 -11 633 132 b 344 947 633 699 569 947 b 35 471 136 947 35 726 b 331 -11 35 214 118 -11 z m 336 147 b 224 472 256 147 221 286 b 336 789 222 642 256 789 b 444 476 419 789 444 642 b 338 147 444 286 415 147 z m 261 1139 l 149 986 l 278 986 l 331 1058 l 333 1058 l 388 986 l 521 986 l 404 1139 z "},"Ö":{"ha":668,"x_min":0,"x_max":0,"o":"m 332 -11 b 633 485 508 -11 633 132 b 344 947 633 699 569 947 b 35 471 136 947 35 726 b 331 -11 35 214 118 -11 z m 336 147 b 224 472 256 147 221 286 b 336 789 222 642 256 789 b 444 476 419 789 444 642 b 338 147 444 286 415 147 z m 206 993 b 288 1082 250 993 288 1032 b 206 1169 288 1131 250 1169 b 124 1082 163 1169 124 1131 b 204 993 124 1032 161 993 z m 461 993 b 543 1082 506 993 543 1032 b 461 1169 543 1131 506 1169 b 378 1082 417 1169 378 1131 b 460 993 378 1032 415 993 z "},"Ò":{"ha":668,"x_min":0,"x_max":0,"o":"m 332 -11 b 633 485 508 -11 633 132 b 344 947 633 699 569 947 b 35 471 136 947 35 726 b 331 -11 35 214 118 -11 z m 336 147 b 224 472 256 147 221 286 b 336 789 222 642 256 789 b 444 476 419 789 444 642 b 338 147 444 286 415 147 z m 125 1143 l 294 986 l 424 986 l 310 1143 z "},"Õ":{"ha":668,"x_min":0,"x_max":0,"o":"m 332 -11 b 633 485 508 -11 633 132 b 344 947 633 699 569 947 b 35 471 136 947 35 726 b 331 -11 35 214 118 -11 z m 336 147 b 224 472 256 147 221 286 b 336 789 222 642 256 789 b 444 476 419 789 444 642 b 338 147 444 286 415 147 z m 251 990 b 281 1039 254 1022 265 1039 b 329 1018 297 1039 310 1029 b 404 996 349 1006 374 996 b 500 1156 468 996 503 1039 l 419 1156 b 386 1103 414 1115 407 1103 b 335 1126 371 1103 354 1114 b 261 1150 315 1139 293 1150 b 169 990 204 1150 167 1093 z "},"Š":{"ha":547,"x_min":0,"x_max":0,"o":"m 33 29 b 213 -8 65 11 138 -8 b 521 275 394 -8 521 104 b 351 543 521 374 476 468 b 224 690 251 604 224 633 b 339 786 224 739 261 786 b 457 754 390 786 431 771 l 486 911 b 339 944 460 926 401 944 b 44 669 144 944 44 819 b 221 408 44 585 93 486 b 342 256 300 357 342 324 b 214 150 342 194 299 150 b 60 186 163 150 97 165 z m 364 986 l 476 1139 l 347 1139 l 294 1067 l 292 1067 l 238 1139 l 104 1139 l 221 986 z "},"Ú":{"ha":694,"x_min":0,"x_max":0,"o":"m 75 936 l 75 358 b 347 -11 75 125 151 -11 b 618 360 526 -11 618 119 l 618 936 l 436 936 l 436 328 b 346 149 436 186 399 149 b 257 328 297 149 257 190 l 257 936 z m 365 1143 l 251 986 l 381 986 l 550 1143 z "},"Û":{"ha":694,"x_min":0,"x_max":0,"o":"m 75 936 l 75 358 b 347 -11 75 125 151 -11 b 618 360 526 -11 618 119 l 618 936 l 436 936 l 436 328 b 346 149 436 186 399 149 b 257 328 297 149 257 190 l 257 936 z m 279 1139 l 167 986 l 296 986 l 349 1058 l 351 1058 l 406 986 l 539 986 l 422 1139 z "},"Ü":{"ha":694,"x_min":0,"x_max":0,"o":"m 75 936 l 75 358 b 347 -11 75 125 151 -11 b 618 360 526 -11 618 119 l 618 936 l 436 936 l 436 328 b 346 149 436 186 399 149 b 257 328 297 149 257 190 l 257 936 z m 218 993 b 300 1082 263 993 300 1032 b 218 1169 300 1131 263 1169 b 136 1082 175 1169 136 1131 b 217 993 136 1032 174 993 z m 474 993 b 556 1082 518 993 556 1032 b 474 1169 556 1131 518 1169 b 390 1082 429 1169 390 1131 b 472 993 390 1032 428 993 z "},"Ù":{"ha":694,"x_min":0,"x_max":0,"o":"m 75 936 l 75 358 b 347 -11 75 125 151 -11 b 618 360 526 -11 618 119 l 618 936 l 436 936 l 436 328 b 346 149 436 186 399 149 b 257 328 297 149 257 190 l 257 936 z m 142 1143 l 311 986 l 440 986 l 326 1143 z "},"Ý":{"ha":558,"x_min":0,"x_max":0,"o":"m 367 0 l 367 365 l 576 936 l 388 936 l 332 717 b 289 514 315 650 300 582 l 286 514 b 236 713 272 583 254 653 l 174 936 l -21 936 l 185 358 l 185 0 z m 319 1143 l 206 986 l 335 986 l 504 1143 z "},"Ÿ":{"ha":558,"x_min":0,"x_max":0,"o":"m 367 0 l 367 365 l 576 936 l 388 936 l 332 717 b 289 514 315 650 300 582 l 286 514 b 236 713 272 583 254 653 l 174 936 l -21 936 l 185 358 l 185 0 z m 158 990 b 240 1079 203 990 240 1029 b 158 1167 240 1128 203 1167 b 76 1079 115 1167 76 1128 b 157 990 76 1029 114 990 z m 414 990 b 496 1079 458 990 496 1029 b 414 1167 496 1128 458 1167 b 331 1079 369 1167 331 1128 b 413 990 331 1029 368 990 z "},"Ž":{"ha":538,"x_min":0,"x_max":0,"o":"m 15 0 l 515 0 l 515 158 l 233 158 l 233 163 l 517 803 l 517 936 l 43 936 l 43 778 l 311 778 l 311 774 l 15 106 z m 356 986 l 468 1139 l 339 1139 l 286 1067 l 283 1067 l 229 1139 l 96 1139 l 213 986 z "},"á":{"ha":586,"x_min":0,"x_max":0,"o":"m 522 407 b 282 690 522 546 489 690 b 69 639 186 690 108 660 l 103 515 b 242 556 144 540 188 556 b 338 463 307 556 338 517 l 338 447 b 26 194 183 446 26 374 b 206 -11 26 75 103 -11 b 356 67 265 -11 319 14 l 360 67 l 369 0 l 532 0 b 522 156 525 46 522 101 z m 343 213 b 339 181 343 200 342 189 b 264 122 326 139 294 122 b 199 214 236 122 199 147 b 343 331 199 308 283 329 z m 319 957 l 224 763 l 338 763 l 478 957 z "},"â":{"ha":586,"x_min":0,"x_max":0,"o":"m 522 407 b 282 690 522 546 489 690 b 69 639 186 690 108 660 l 103 515 b 242 556 144 540 188 556 b 338 463 307 556 338 517 l 338 447 b 26 194 183 446 26 374 b 206 -11 26 75 103 -11 b 356 67 265 -11 319 14 l 360 67 l 369 0 l 532 0 b 522 156 525 46 522 101 z m 343 213 b 339 181 343 200 342 189 b 264 122 326 139 294 122 b 199 214 236 122 199 147 b 343 331 199 308 283 329 z m 229 957 l 110 763 l 236 763 l 290 874 l 293 874 l 350 763 l 474 763 l 356 957 z "},"ä":{"ha":586,"x_min":0,"x_max":0,"o":"m 522 407 b 282 690 522 546 489 690 b 69 639 186 690 108 660 l 103 515 b 242 556 144 540 188 556 b 338 463 307 556 338 517 l 338 447 b 26 194 183 446 26 374 b 206 -11 26 75 103 -11 b 356 67 265 -11 319 14 l 360 67 l 369 0 l 532 0 b 522 156 525 46 522 101 z m 343 213 b 339 181 343 200 342 189 b 264 122 326 139 294 122 b 199 214 236 122 199 147 b 343 331 199 308 283 329 z m 169 778 b 253 867 218 778 253 815 b 169 956 253 919 217 956 b 86 867 125 956 86 918 b 168 778 86 815 124 778 z m 415 778 b 499 867 464 778 499 815 b 415 956 499 919 463 956 b 332 867 371 956 332 918 b 414 778 332 815 369 778 z "},"à":{"ha":586,"x_min":0,"x_max":0,"o":"m 522 407 b 282 690 522 546 489 690 b 69 639 186 690 108 660 l 103 515 b 242 556 144 540 188 556 b 338 463 307 556 338 517 l 338 447 b 26 194 183 446 26 374 b 206 -11 26 75 103 -11 b 356 67 265 -11 319 14 l 360 67 l 369 0 l 532 0 b 522 156 525 46 522 101 z m 343 213 b 339 181 343 200 342 189 b 264 122 326 139 294 122 b 199 214 236 122 199 147 b 343 331 199 308 283 329 z m 110 957 l 250 763 l 364 763 l 268 957 z "},"å":{"ha":586,"x_min":0,"x_max":0,"o":"m 522 407 b 282 690 522 546 489 690 b 69 639 186 690 108 660 l 103 515 b 242 556 144 540 188 556 b 338 463 307 556 338 517 l 338 447 b 26 194 183 446 26 374 b 206 -11 26 75 103 -11 b 356 67 265 -11 319 14 l 360 67 l 369 0 l 532 0 b 522 156 525 46 522 101 z m 343 213 b 339 181 343 200 342 189 b 264 122 326 139 294 122 b 199 214 236 122 199 147 b 343 331 199 308 283 329 z m 296 1001 b 153 871 199 1001 153 943 b 296 749 153 803 201 749 b 438 875 386 749 438 804 b 297 1001 438 949 390 1001 z m 294 942 b 351 875 342 942 351 906 b 294 808 351 846 339 808 b 239 872 251 808 239 849 b 293 942 239 903 251 942 z "},"ã":{"ha":586,"x_min":0,"x_max":0,"o":"m 522 407 b 282 690 522 546 489 690 b 69 639 186 690 108 660 l 103 515 b 242 556 144 540 188 556 b 338 463 307 556 338 517 l 338 447 b 26 194 183 446 26 374 b 206 -11 26 75 103 -11 b 356 67 265 -11 319 14 l 360 67 l 369 0 l 532 0 b 522 156 525 46 522 101 z m 343 213 b 339 181 343 200 342 189 b 264 122 326 139 294 122 b 199 214 236 122 199 147 b 343 331 199 308 283 329 z m 207 774 b 239 828 207 808 221 828 b 293 804 258 828 271 815 b 367 782 313 794 340 782 b 464 940 425 782 464 829 l 383 940 b 354 889 383 896 371 889 b 303 911 335 889 319 900 b 222 936 279 922 257 936 b 124 774 156 936 124 863 z "},"ç":{"ha":449,"x_min":0,"x_max":0,"o":"m 425 154 b 357 140 406 146 383 140 b 221 339 272 140 221 215 b 360 539 221 456 272 539 b 426 526 389 539 411 532 l 450 669 b 351 688 433 678 394 688 b 40 332 164 688 40 542 b 240 3 40 149 117 36 l 189 -114 b 283 -165 251 -119 283 -137 b 239 -200 283 -192 261 -200 b 167 -181 215 -200 189 -192 l 140 -258 b 244 -283 167 -274 207 -283 b 397 -162 322 -283 397 -251 b 304 -61 397 -107 353 -69 l 332 -8 b 440 13 379 -7 422 4 z "},"é":{"ha":582,"x_min":0,"x_max":0,"o":"m 538 275 b 543 369 540 294 543 321 b 313 690 543 575 458 690 b 40 326 160 690 40 554 b 328 -8 40 114 142 -8 b 513 24 396 -8 467 4 l 489 153 b 360 131 456 142 411 131 b 217 275 279 131 218 169 z m 217 403 b 301 557 218 471 242 557 b 378 403 356 557 378 489 z m 344 957 l 249 763 l 363 763 l 503 957 z "},"ê":{"ha":582,"x_min":0,"x_max":0,"o":"m 538 275 b 543 369 540 294 543 321 b 313 690 543 575 458 690 b 40 326 160 690 40 554 b 328 -8 40 114 142 -8 b 513 24 396 -8 467 4 l 489 153 b 360 131 456 142 411 131 b 217 275 279 131 218 169 z m 217 403 b 301 557 218 471 242 557 b 378 403 356 557 378 489 z m 249 957 l 129 763 l 256 763 l 310 874 l 313 874 l 369 763 l 493 763 l 375 957 z "},"ë":{"ha":582,"x_min":0,"x_max":0,"o":"m 538 275 b 543 369 540 294 543 321 b 313 690 543 575 458 690 b 40 326 160 690 40 554 b 328 -8 40 114 142 -8 b 513 24 396 -8 467 4 l 489 153 b 360 131 456 142 411 131 b 217 275 279 131 218 169 z m 217 403 b 301 557 218 471 242 557 b 378 403 356 557 378 489 z m 194 778 b 278 867 243 778 278 815 b 194 956 278 919 242 956 b 111 867 150 956 111 918 b 193 778 111 815 149 778 z m 440 778 b 524 867 489 778 524 815 b 440 956 524 919 488 956 b 357 867 396 956 357 918 b 439 778 357 815 394 778 z "},"è":{"ha":582,"x_min":0,"x_max":0,"o":"m 538 275 b 543 369 540 294 543 321 b 313 690 543 575 458 690 b 40 326 160 690 40 554 b 328 -8 40 114 142 -8 b 513 24 396 -8 467 4 l 489 153 b 360 131 456 142 411 131 b 217 275 279 131 218 169 z m 217 403 b 301 557 218 471 242 557 b 378 403 356 557 378 489 z m 131 957 l 271 763 l 385 763 l 289 957 z "},"í":{"ha":310,"x_min":0,"x_max":0,"o":"m 246 0 l 246 679 l 64 679 l 64 0 z m 188 957 l 92 763 l 206 763 l 346 957 z "},"î":{"ha":310,"x_min":0,"x_max":0,"o":"m 246 0 l 246 679 l 64 679 l 64 0 z m 93 957 l -26 763 l 100 763 l 154 874 l 157 874 l 214 763 l 338 763 l 219 957 z "},"ï":{"ha":310,"x_min":0,"x_max":0,"o":"m 246 0 l 246 679 l 64 679 l 64 0 z m 32 778 b 115 867 81 778 115 815 b 32 956 115 919 79 956 b -51 867 -12 956 -51 918 b 31 778 -51 815 -14 778 z m 278 778 b 361 867 326 778 361 815 b 278 956 361 919 325 956 b 194 867 233 956 194 918 b 276 778 194 815 232 778 z "},"ì":{"ha":310,"x_min":0,"x_max":0,"o":"m 246 0 l 246 679 l 64 679 l 64 0 z m -33 957 l 107 763 l 221 763 l 125 957 z "},"ñ":{"ha":636,"x_min":0,"x_max":0,"o":"m 64 0 l 246 0 l 246 414 b 256 476 246 440 250 463 b 324 538 268 517 293 538 b 390 425 376 538 390 482 l 390 0 l 572 0 l 572 436 b 392 690 572 588 521 690 b 228 601 321 690 263 654 l 225 601 l 215 679 l 58 679 b 64 475 61 614 64 549 z m 238 774 b 269 828 238 808 251 828 b 324 804 289 828 301 815 b 397 782 343 794 371 782 b 494 940 456 782 494 829 l 414 940 b 385 889 414 896 401 889 b 333 911 365 889 350 900 b 253 936 310 922 288 936 b 154 774 186 936 154 863 z "},"ó":{"ha":599,"x_min":0,"x_max":0,"o":"m 301 -11 b 560 342 403 -11 560 60 b 303 690 560 556 464 690 b 40 338 168 690 40 581 b 300 -11 40 118 138 -11 z m 303 128 b 221 340 239 128 221 225 b 301 551 221 435 235 551 b 379 340 364 551 379 435 b 304 128 379 242 364 128 z m 338 957 l 242 763 l 356 763 l 496 957 z "},"ô":{"ha":599,"x_min":0,"x_max":0,"o":"m 301 -11 b 560 342 403 -11 560 60 b 303 690 560 556 464 690 b 40 338 168 690 40 581 b 300 -11 40 118 138 -11 z m 303 128 b 221 340 239 128 221 225 b 301 551 221 435 235 551 b 379 340 364 551 379 435 b 304 128 379 242 364 128 z m 238 957 l 118 763 l 244 763 l 299 874 l 301 874 l 358 763 l 482 763 l 364 957 z "},"ö":{"ha":599,"x_min":0,"x_max":0,"o":"m 301 -11 b 560 342 403 -11 560 60 b 303 690 560 556 464 690 b 40 338 168 690 40 581 b 300 -11 40 118 138 -11 z m 303 128 b 221 340 239 128 221 225 b 301 551 221 435 235 551 b 379 340 364 551 379 435 b 304 128 379 242 364 128 z m 176 778 b 260 867 225 778 260 815 b 176 956 260 919 224 956 b 93 867 132 956 93 918 b 175 778 93 815 131 778 z m 422 778 b 506 867 471 778 506 815 b 422 956 506 919 469 956 b 339 867 378 956 339 918 b 421 778 339 815 376 778 z "},"ò":{"ha":599,"x_min":0,"x_max":0,"o":"m 301 -11 b 560 342 403 -11 560 60 b 303 690 560 556 464 690 b 40 338 168 690 40 581 b 300 -11 40 118 138 -11 z m 303 128 b 221 340 239 128 221 225 b 301 551 221 435 235 551 b 379 340 364 551 379 435 b 304 128 379 242 364 128 z m 118 957 l 258 763 l 372 763 l 276 957 z "},"õ":{"ha":599,"x_min":0,"x_max":0,"o":"m 301 -11 b 560 342 403 -11 560 60 b 303 690 560 556 464 690 b 40 338 168 690 40 581 b 300 -11 40 118 138 -11 z m 303 128 b 221 340 239 128 221 225 b 301 551 221 435 235 551 b 379 340 364 551 379 435 b 304 128 379 242 364 128 z m 214 774 b 246 828 214 808 228 828 b 300 804 265 828 278 815 b 374 782 319 794 347 782 b 471 940 432 782 471 829 l 390 940 b 361 889 390 896 378 889 b 310 911 342 889 326 900 b 229 936 286 922 264 936 b 131 774 163 936 131 863 z "},"š":{"ha":450,"x_min":0,"x_max":0,"o":"m 26 31 b 181 -8 57 7 124 -8 b 421 206 321 -8 421 67 b 283 410 421 282 383 353 b 204 496 219 447 204 465 b 272 553 204 526 225 553 b 367 525 308 553 340 540 l 399 658 b 261 690 363 676 318 690 b 38 475 125 690 38 597 b 175 281 38 413 65 343 b 254 188 235 244 254 224 b 181 128 254 149 228 128 b 58 164 135 128 85 147 z m 290 763 l 410 957 l 283 957 l 228 846 l 225 846 l 168 957 l 44 957 l 163 763 z "},"ú":{"ha":628,"x_min":0,"x_max":0,"o":"m 561 679 l 379 679 l 379 246 b 368 188 379 222 375 201 b 308 142 360 165 340 142 b 240 288 258 142 240 199 l 240 679 l 58 679 l 58 268 b 239 -11 58 85 110 -11 b 397 72 310 -11 365 26 l 400 72 l 410 0 l 567 0 b 561 207 564 64 561 135 z m 350 957 l 254 763 l 368 763 l 508 957 z "},"û":{"ha":628,"x_min":0,"x_max":0,"o":"m 561 679 l 379 679 l 379 246 b 368 188 379 222 375 201 b 308 142 360 165 340 142 b 240 288 258 142 240 199 l 240 679 l 58 679 l 58 268 b 239 -11 58 85 110 -11 b 397 72 310 -11 365 26 l 400 72 l 410 0 l 567 0 b 561 207 564 64 561 135 z m 251 957 l 132 763 l 258 763 l 313 874 l 315 874 l 372 763 l 496 763 l 378 957 z "},"ü":{"ha":628,"x_min":0,"x_max":0,"o":"m 561 679 l 379 679 l 379 246 b 368 188 379 222 375 201 b 308 142 360 165 340 142 b 240 288 258 142 240 199 l 240 679 l 58 679 l 58 268 b 239 -11 58 85 110 -11 b 397 72 310 -11 365 26 l 400 72 l 410 0 l 567 0 b 561 207 564 64 561 135 z m 194 778 b 278 867 243 778 278 815 b 194 956 278 919 242 956 b 111 867 150 956 111 918 b 193 778 111 815 149 778 z m 440 778 b 524 867 489 778 524 815 b 440 956 524 919 488 956 b 357 867 396 956 357 918 b 439 778 357 815 394 778 z "},"ù":{"ha":628,"x_min":0,"x_max":0,"o":"m 561 679 l 379 679 l 379 246 b 368 188 379 222 375 201 b 308 142 360 165 340 142 b 240 288 258 142 240 199 l 240 679 l 58 679 l 58 268 b 239 -11 58 85 110 -11 b 397 72 310 -11 365 26 l 400 72 l 410 0 l 567 0 b 561 207 564 64 561 135 z m 135 957 l 275 763 l 389 763 l 293 957 z "},"ý":{"ha":543,"x_min":0,"x_max":0,"o":"m 7 679 l 193 50 b 199 25 196 42 199 33 b 189 -4 199 15 194 7 b 132 -86 176 -33 157 -62 b 43 -142 106 -111 74 -131 l 97 -299 b 251 -192 126 -292 194 -260 b 403 154 325 -106 369 26 l 542 679 l 364 679 l 307 322 b 292 211 301 285 296 246 l 289 211 b 269 325 283 249 276 285 l 203 679 z m 307 957 l 211 763 l 325 763 l 465 957 z "},"ÿ":{"ha":543,"x_min":0,"x_max":0,"o":"m 7 679 l 193 50 b 199 25 196 42 199 33 b 189 -4 199 15 194 7 b 132 -86 176 -33 157 -62 b 43 -142 106 -111 74 -131 l 97 -299 b 251 -192 126 -292 194 -260 b 403 154 325 -106 369 26 l 542 679 l 364 679 l 307 322 b 292 211 301 285 296 246 l 289 211 b 269 325 283 249 276 285 l 203 679 z m 154 778 b 238 867 203 778 238 815 b 154 956 238 919 201 956 b 71 867 110 956 71 918 b 153 778 71 815 108 778 z m 400 778 b 483 867 449 778 483 815 b 400 956 483 919 447 956 b 317 867 356 956 317 918 b 399 778 317 815 354 778 z "},"ž":{"ha":488,"x_min":0,"x_max":0,"o":"m 25 0 l 460 0 l 460 149 l 226 149 l 226 153 b 290 264 242 181 268 224 l 453 556 l 453 679 l 46 679 l 46 531 l 256 531 l 256 526 b 192 417 242 500 214 454 l 25 114 z m 324 763 l 443 957 l 317 957 l 261 846 l 258 846 l 201 957 l 78 957 l 196 763 z "},"":{"ha":371,"x_min":0,"x_max":0,"o":"m 217 507 l 217 599 b 336 744 290 617 336 672 b 231 899 336 806 310 856 b 160 968 168 932 160 944 b 218 1010 160 990 174 1010 b 300 988 250 1010 282 997 l 321 1085 b 229 1108 299 1097 269 1106 l 229 1183 l 147 1183 l 147 1099 b 36 957 75 1075 36 1021 b 146 808 36 890 69 850 b 213 736 200 779 213 761 b 153 690 213 707 192 690 b 54 715 114 690 82 701 l 35 614 b 135 592 57 603 96 594 l 135 507 z "},"⁽":{"ha":226,"x_min":0,"x_max":0,"o":"m 138 1176 b 40 838 90 1114 40 999 b 138 501 40 676 90 564 l 229 501 b 142 838 181 581 142 688 b 229 1176 142 993 181 1101 z "},"⁾":{"ha":226,"x_min":0,"x_max":0,"o":"m 89 501 b 186 840 136 567 186 682 b 89 1176 186 1004 136 1115 l -3 1176 b 85 842 46 1099 85 992 b -3 501 85 689 46 579 z "},"":{"ha":599,"x_min":0,"x_max":0,"o":"m 299 -11 b 558 340 426 -11 558 89 b 299 693 558 593 426 693 b 40 340 172 693 40 593 b 297 -11 40 89 172 -11 z m 299 128 b 210 340 244 128 210 193 b 299 554 210 489 243 554 b 389 340 354 554 389 489 b 300 128 389 193 356 128 z "},"":{"ha":446,"x_min":0,"x_max":0,"o":"m 360 0 l 360 681 l 217 681 l 18 583 l 49 447 l 176 515 l 179 515 l 179 0 z "},"":{"ha":507,"x_min":0,"x_max":0,"o":"m 476 0 l 476 150 l 365 150 b 244 143 335 150 275 146 l 244 147 l 281 182 b 444 476 374 268 444 354 b 229 697 444 614 354 697 b 21 635 146 697 68 665 l 64 517 b 169 549 93 533 129 549 b 272 443 233 549 272 513 b 86 164 272 351 185 257 l 25 107 l 25 0 z "},"":{"ha":496,"x_min":0,"x_max":0,"o":"m 22 -154 b 151 -171 49 -162 93 -171 b 465 97 313 -171 465 -72 b 294 303 465 207 393 283 l 294 306 b 438 500 369 325 438 397 b 213 693 438 613 346 693 b 35 653 136 693 69 674 l 60 519 b 174 544 90 533 131 544 b 269 463 232 544 269 517 b 128 351 269 397 203 358 l 90 349 l 92 210 b 147 211 106 211 128 211 b 285 99 231 211 285 168 b 126 -24 285 25 221 -24 b 40 -14 93 -24 58 -19 z "},"":{"ha":582,"x_min":0,"x_max":0,"o":"m 558 54 l 558 196 l 469 196 l 469 682 l 294 682 l 17 176 l 17 54 l 314 54 l 314 -167 l 469 -167 l 469 54 z m 314 196 l 169 196 l 169 200 l 256 363 b 315 504 276 403 303 464 l 318 504 b 314 374 314 458 314 417 z "},"":{"ha":501,"x_min":0,"x_max":0,"o":"m 29 -154 b 143 -171 51 -162 100 -171 b 465 125 325 -171 465 -56 b 403 292 465 196 443 251 b 213 374 356 338 286 365 l 238 525 l 442 525 l 463 681 l 118 681 l 50 253 b 247 203 133 254 210 239 b 283 110 274 181 283 146 b 131 -24 283 21 204 -24 b 44 -15 89 -24 64 -19 z "},"":{"ha":600,"x_min":0,"x_max":0,"o":"m 501 853 b 42 332 204 836 42 608 b 301 -11 42 88 164 -11 b 558 289 439 -11 558 104 b 360 556 558 465 461 556 b 240 496 313 556 264 531 l 236 497 b 515 717 260 603 340 700 z m 303 118 b 222 290 261 118 222 157 b 244 399 222 343 231 381 b 296 428 258 415 276 428 b 378 272 343 428 378 376 b 304 118 378 156 340 118 z "},"":{"ha":500,"x_min":0,"x_max":0,"o":"m 475 681 l 24 681 l 24 525 l 293 525 l 293 522 b 7 -142 254 375 108 43 l 175 -162 b 475 578 282 39 458 488 z "},"":{"ha":611,"x_min":0,"x_max":0,"o":"m 433 454 b 547 642 508 501 547 561 b 319 858 547 785 438 858 b 68 626 182 858 68 774 b 175 442 68 557 104 492 l 175 438 b 43 224 100 389 43 318 b 303 -11 43 85 150 -11 b 568 239 442 -11 568 76 b 433 449 568 338 510 404 z m 314 743 b 385 638 349 742 385 710 b 325 506 385 575 358 536 b 235 638 265 539 235 585 b 314 743 235 692 263 744 z m 307 110 b 215 231 251 110 215 169 b 290 376 215 297 246 347 b 396 221 349 344 396 296 b 308 110 396 158 363 110 z "},"":{"ha":600,"x_min":0,"x_max":0,"o":"m 82 -169 b 557 357 382 -160 557 54 b 301 693 557 581 438 693 b 42 399 160 693 42 579 b 238 131 42 221 143 131 b 358 185 296 131 336 153 l 361 183 b 65 -35 335 69 249 -17 z m 306 250 b 219 410 258 250 219 299 b 296 561 219 525 258 561 b 376 386 342 561 376 508 b 354 278 376 333 368 294 b 307 250 342 261 325 250 z "},"":{"ha":211,"x_min":0,"x_max":0,"o":"m 82 485 b 188 721 125 554 160 640 l 58 713 b -1 476 49 640 25 554 z "},"":{"ha":211,"x_min":0,"x_max":0,"o":"m 106 572 b 181 654 150 572 181 604 b 107 736 181 706 147 736 b 32 654 67 736 32 701 b 104 572 32 604 64 572 z "},"":{"ha":371,"x_min":0,"x_max":0,"o":"m 261 572 l 261 653 b 329 665 292 654 313 658 l 319 763 b 249 750 297 754 278 750 b 164 850 203 750 164 788 b 243 953 164 915 197 953 b 310 939 268 953 288 950 l 326 1038 b 263 1051 311 1044 288 1049 l 263 1131 l 181 1131 l 181 1046 b 33 849 90 1024 33 949 b 74 719 33 797 49 751 b 179 657 100 686 135 665 l 179 572 z "},"ﬀ":{"ha":738,"x_min":0,"x_max":0,"o":"m 618 0 l 618 550 l 736 550 l 736 679 l 618 679 l 618 711 b 701 824 618 769 640 824 b 757 815 724 824 743 821 l 778 957 b 668 972 751 965 715 972 b 507 910 604 972 546 950 b 436 706 453 854 436 783 l 436 679 l 278 679 l 278 697 b 343 810 278 763 293 810 b 386 801 358 810 374 807 l 417 940 b 338 953 397 947 363 953 b 161 889 256 953 199 928 b 96 694 114 839 96 767 l 96 679 l 4 679 l 4 550 l 96 550 l 96 0 l 278 0 l 278 550 l 436 550 l 436 0 z "},"ﬃ":{"ha":1035,"x_min":0,"x_max":0,"o":"m 914 944 b 754 972 878 960 819 972 b 451 715 507 972 451 803 l 451 679 l 278 679 l 278 696 b 303 786 278 728 282 763 b 354 810 314 800 333 810 b 401 800 375 810 389 806 l 447 935 b 344 953 425 943 388 953 b 194 908 286 953 235 938 b 96 690 129 861 96 783 l 96 679 l 4 679 l 4 550 l 96 550 l 96 0 l 278 0 l 278 550 l 451 550 l 451 0 l 633 0 l 633 550 l 790 550 l 790 0 l 972 0 l 972 679 l 633 679 l 633 703 b 761 824 633 767 661 824 b 889 801 817 824 857 813 z "},"ﬄ":{"ha":1035,"x_min":0,"x_max":0,"o":"m 447 935 b 344 953 425 943 388 953 b 194 908 286 953 235 938 b 96 690 129 861 96 783 l 96 679 l 4 679 l 4 550 l 96 550 l 96 0 l 278 0 l 278 550 l 451 550 l 451 0 l 633 0 l 633 550 l 733 550 l 733 679 l 633 679 l 633 714 b 731 829 633 774 660 829 b 790 819 757 829 776 826 l 790 0 l 972 0 l 972 935 b 756 972 924 954 840 972 b 535 901 646 972 581 942 b 451 704 474 846 451 754 l 451 679 l 278 679 l 278 696 b 303 786 278 728 282 763 b 354 810 314 800 333 810 b 401 800 375 810 389 806 z "},"₍":{"ha":226,"x_min":0,"x_max":0,"o":"m 138 393 b 40 54 90 331 40 215 b 138 -282 40 -107 90 -219 l 229 -282 b 142 54 181 -203 142 -96 b 229 393 142 210 181 318 z "},"₎":{"ha":226,"x_min":0,"x_max":0,"o":"m 89 -282 b 186 57 136 -217 186 -101 b 89 393 186 221 136 332 l -3 393 b 85 58 46 315 85 208 b -3 -282 85 -94 46 -204 z "},"":{"ha":222,"x_min":0,"x_max":0,"o":"m 25 888 l 25 797 l 197 797 l 197 888 z "},"":{"ha":222,"x_min":0,"x_max":0,"o":"m 25 104 l 25 14 l 197 14 l 197 104 z "},"⁰":{"ha":404,"x_min":0,"x_max":0,"o":"m 203 572 b 382 853 308 572 382 668 b 206 1128 382 978 349 1128 b 22 847 76 1128 22 996 b 201 572 22 714 67 572 z m 204 679 b 151 850 169 679 151 725 b 206 1021 151 974 172 1021 b 253 850 239 1021 253 967 b 206 679 253 725 236 679 z "},"⁴":{"ha":418,"x_min":0,"x_max":0,"o":"m 338 579 l 338 703 l 396 703 l 396 799 l 338 799 l 338 1122 l 210 1122 l 14 785 l 14 703 l 219 703 l 219 579 z m 219 799 l 122 799 l 122 800 l 186 917 b 221 989 201 942 208 963 l 224 989 b 219 896 222 965 219 932 z "},"⁵":{"ha":382,"x_min":0,"x_max":0,"o":"m 335 1121 l 79 1121 l 49 839 b 96 842 63 840 78 842 b 221 754 168 842 221 818 b 132 676 221 703 185 676 b 42 696 97 676 64 686 l 22 596 b 142 572 46 583 93 572 b 350 764 275 572 350 661 b 299 890 350 819 332 863 b 183 931 265 919 215 931 b 164 931 181 931 167 931 l 172 1011 l 335 1011 z "},"⁶":{"ha":410,"x_min":0,"x_max":0,"o":"m 336 1128 b 278 1124 324 1128 306 1126 b 122 1050 222 1115 164 1090 b 26 800 68 997 26 918 b 213 572 26 665 94 572 b 386 767 326 572 386 669 b 249 938 386 872 328 938 b 161 899 211 938 182 922 l 158 899 b 288 1021 172 960 210 1010 b 336 1025 306 1024 321 1025 z m 210 667 b 156 769 175 667 156 714 b 161 817 156 794 158 810 b 207 849 171 836 188 849 b 257 768 243 849 257 806 b 211 667 257 715 246 667 z "},"⁷":{"ha":360,"x_min":0,"x_max":0,"o":"m 17 1121 l 17 1010 l 215 1010 l 215 1007 l 36 579 l 164 579 l 347 1038 l 347 1121 z "},"⁸":{"ha":417,"x_min":0,"x_max":0,"o":"m 214 1128 b 43 981 119 1128 43 1072 b 111 863 43 939 63 892 l 111 861 b 28 724 63 835 28 788 b 204 572 28 635 96 572 b 388 736 307 572 388 631 b 300 872 388 801 350 849 l 300 875 b 372 992 357 908 372 956 b 215 1128 372 1072 307 1128 z m 210 658 b 153 735 174 658 153 692 b 199 818 153 774 174 804 b 261 729 229 807 261 775 b 211 658 261 690 243 658 z m 211 1044 b 256 979 243 1044 256 1010 b 218 911 256 951 240 919 b 163 983 185 925 163 950 b 210 1044 163 1013 178 1044 z "},"⁹":{"ha":404,"x_min":0,"x_max":0,"o":"m 69 572 b 122 574 86 572 104 571 b 283 640 188 579 243 601 b 378 900 336 692 378 778 b 203 1128 378 1032 318 1128 b 24 936 89 1128 24 1032 b 165 771 24 833 89 771 b 246 801 201 771 228 783 l 249 801 b 194 708 239 763 219 728 b 124 679 174 692 147 683 b 69 676 101 676 90 676 z m 199 1033 b 247 938 232 1033 247 992 b 242 881 247 903 246 892 b 200 857 238 869 221 857 b 150 943 165 857 150 900 b 197 1033 150 997 169 1033 z "},"₀":{"ha":404,"x_min":0,"x_max":0,"o":"m 203 -211 b 382 69 308 -211 382 -115 b 206 344 382 194 349 344 b 22 64 76 344 22 213 b 201 -211 22 -69 67 -211 z m 204 -104 b 151 67 169 -104 151 -58 b 206 238 151 190 172 238 b 253 67 239 238 253 183 b 206 -104 253 -58 236 -104 z "},"₁":{"ha":332,"x_min":0,"x_max":0,"o":"m 267 -204 l 267 338 l 150 338 l 13 271 l 36 176 l 133 222 l 136 222 l 136 -204 z "},"₂":{"ha":381,"x_min":0,"x_max":0,"o":"m 10 -204 l 349 -204 l 349 -93 l 172 -93 l 172 -89 l 197 -62 b 343 188 265 10 343 86 b 168 344 343 261 301 344 b 17 299 101 344 46 324 l 44 203 b 133 235 67 219 99 235 b 203 160 174 235 203 213 b 75 -51 203 99 146 36 l 10 -131 z "},"₃":{"ha":361,"x_min":0,"x_max":0,"o":"m 49 222 b 131 246 74 236 99 246 b 193 189 168 246 193 225 b 92 126 193 143 138 126 l 82 126 l 82 40 l 99 40 b 201 -39 157 40 201 13 b 121 -112 201 -82 167 -112 b 28 -89 83 -112 51 -101 l 8 -185 b 126 -211 33 -200 75 -211 b 338 -43 257 -211 338 -140 b 232 83 338 21 290 74 l 232 86 b 322 214 288 110 322 151 b 160 344 322 276 275 344 b 28 313 108 344 58 329 z "},"₄":{"ha":418,"x_min":0,"x_max":0,"o":"m 338 -204 l 338 -81 l 396 -81 l 396 15 l 338 15 l 338 339 l 210 339 l 14 1 l 14 -81 l 219 -81 l 219 -204 z m 219 15 l 122 15 l 122 17 l 186 133 b 221 206 201 158 208 179 l 224 206 b 219 113 222 182 219 149 z "},"₅":{"ha":382,"x_min":0,"x_max":0,"o":"m 335 338 l 79 338 l 49 56 b 96 58 63 57 78 58 b 221 -29 168 58 221 35 b 132 -107 221 -81 185 -107 b 42 -87 97 -107 64 -97 l 22 -187 b 142 -211 46 -200 93 -211 b 350 -19 275 -211 350 -122 b 299 107 350 36 332 79 b 183 147 265 136 215 147 b 164 147 181 147 167 147 l 172 228 l 335 228 z "},"₆":{"ha":410,"x_min":0,"x_max":0,"o":"m 336 344 b 278 340 324 344 306 343 b 122 267 222 332 164 307 b 26 17 68 214 26 135 b 213 -211 26 -118 94 -211 b 386 -17 326 -211 386 -114 b 249 154 386 89 328 154 b 161 115 211 154 182 139 l 158 115 b 288 238 172 176 210 226 b 336 242 306 240 321 242 z m 210 -117 b 156 -14 175 -117 156 -69 b 161 33 156 11 158 26 b 207 65 171 53 188 65 b 257 -15 243 65 257 22 b 211 -117 257 -68 246 -117 z "},"₇":{"ha":360,"x_min":0,"x_max":0,"o":"m 17 338 l 17 226 l 215 226 l 215 224 l 36 -204 l 164 -204 l 347 254 l 347 338 z "},"₈":{"ha":417,"x_min":0,"x_max":0,"o":"m 214 344 b 43 197 119 344 43 289 b 111 79 43 156 63 108 l 111 78 b 28 -60 63 51 28 4 b 204 -211 28 -149 96 -211 b 388 -47 307 -211 388 -153 b 300 89 388 18 350 65 l 300 92 b 372 208 357 125 372 172 b 215 344 372 289 307 344 z m 210 -125 b 153 -49 174 -125 153 -92 b 199 35 153 -10 174 21 b 261 -54 229 24 261 -8 b 211 -125 261 -93 243 -125 z m 211 261 b 256 196 243 261 256 226 b 218 128 256 168 240 136 b 163 200 185 142 163 167 b 210 261 163 229 178 261 z "},"₉":{"ha":404,"x_min":0,"x_max":0,"o":"m 69 -211 b 122 -210 86 -211 104 -212 b 283 -143 188 -204 243 -182 b 378 117 336 -92 378 -6 b 203 344 378 249 318 344 b 24 153 89 344 24 249 b 165 -12 24 50 89 -12 b 246 18 201 -12 228 0 l 249 18 b 194 -75 239 -21 219 -56 b 124 -104 174 -92 147 -100 b 69 -107 101 -107 90 -107 z m 199 250 b 247 154 232 250 247 208 b 242 97 247 119 246 108 b 200 74 238 86 221 74 b 150 160 165 74 150 117 b 197 250 150 214 169 250 z "},"":{"ha":371,"x_min":0,"x_max":0,"o":"m 261 -211 l 261 -131 b 329 -118 292 -129 313 -125 l 319 -21 b 249 -33 297 -29 278 -33 b 164 67 203 -33 164 4 b 243 169 164 132 197 169 b 310 156 268 169 288 167 l 326 254 b 263 268 311 261 288 265 l 263 347 l 181 347 l 181 263 b 33 65 90 240 33 165 b 74 -64 33 14 49 -32 b 179 -126 100 -97 135 -118 l 179 -211 z "},"":{"ha":371,"x_min":0,"x_max":0,"o":"m 217 -276 l 217 -185 b 336 -39 290 -167 336 -111 b 231 115 336 22 310 72 b 160 185 168 149 160 161 b 218 226 160 207 174 226 b 300 204 250 226 282 214 l 321 301 b 229 325 299 314 269 322 l 229 400 l 147 400 l 147 315 b 36 174 75 292 36 238 b 146 25 36 107 69 67 b 213 -47 200 -4 213 -22 b 153 -93 213 -76 192 -93 b 54 -68 114 -93 82 -82 l 35 -169 b 135 -192 57 -181 96 -189 l 135 -276 z "},"":{"ha":211,"x_min":0,"x_max":0,"o":"m 106 -211 b 181 -129 150 -211 181 -179 b 107 -47 181 -78 147 -47 b 32 -129 67 -47 32 -82 b 104 -211 32 -179 64 -211 z "},"":{"ha":211,"x_min":0,"x_max":0,"o":"m 82 -299 b 188 -62 125 -229 160 -143 l 58 -71 b -1 -307 49 -143 25 -229 z "},"":{"ha":417,"x_min":0,"x_max":0,"o":"m 121 -311 b 311 -158 225 -301 311 -256 b 260 -57 311 -106 283 -72 l 128 -74 b 172 -158 146 -92 172 -125 b 92 -231 172 -197 126 -221 z "},"Ă":{"ha":636,"x_min":0,"x_max":0,"o":"m 397 214 l 436 0 l 614 0 l 432 936 l 214 936 l 11 0 l 188 0 l 229 214 z m 247 356 l 282 551 b 315 764 292 606 306 701 l 319 764 b 350 551 328 703 340 608 l 381 356 z m 151 1146 b 319 983 151 1047 207 983 b 486 1146 431 983 486 1049 l 389 1146 b 318 1085 388 1108 361 1085 b 249 1146 276 1085 250 1110 z "},"Ā":{"ha":636,"x_min":0,"x_max":0,"o":"m 397 214 l 436 0 l 614 0 l 432 936 l 214 936 l 11 0 l 188 0 l 229 214 z m 247 356 l 282 551 b 315 764 292 606 306 701 l 319 764 b 350 551 328 703 340 608 l 381 356 z m 156 1132 l 156 1022 l 482 1022 l 482 1132 z "},"Ą":{"ha":636,"x_min":0,"x_max":0,"o":"m 432 936 l 214 936 l 11 0 l 188 0 l 229 214 l 397 214 l 436 3 b 386 -151 422 -24 386 -83 b 521 -285 386 -231 431 -285 b 643 -250 557 -285 603 -278 l 621 -158 b 567 -167 607 -164 590 -167 b 511 -108 536 -167 511 -142 b 549 0 511 -74 528 -33 l 614 0 z m 249 356 l 282 551 b 315 764 292 604 306 701 l 319 764 b 350 551 329 703 342 608 l 381 356 z "},"Ǽ":{"ha":826,"x_min":0,"x_max":0,"o":"m 169 0 l 232 256 l 404 256 l 419 0 l 806 0 l 806 158 l 579 158 l 565 396 l 776 396 l 776 547 l 551 547 l 538 778 l 785 778 l 785 936 l 272 936 l -10 0 z m 267 397 l 313 589 b 363 810 324 639 346 732 l 368 810 b 378 629 372 747 375 683 l 389 397 z m 514 1143 l 400 986 l 529 986 l 699 1143 z "},"Ć":{"ha":549,"x_min":0,"x_max":0,"o":"m 511 167 b 424 153 489 160 454 153 b 228 464 313 153 228 240 b 424 785 228 696 321 785 b 508 767 464 785 488 776 l 539 919 b 413 944 521 931 476 944 b 35 454 231 944 35 807 b 389 -8 35 188 149 -8 b 529 14 451 -8 503 1 z m 383 1143 l 269 986 l 399 986 l 568 1143 z "},"Č":{"ha":549,"x_min":0,"x_max":0,"o":"m 511 167 b 424 153 489 160 454 153 b 228 464 313 153 228 240 b 424 785 228 696 321 785 b 508 767 464 785 488 776 l 539 919 b 413 944 521 931 476 944 b 35 454 231 944 35 807 b 389 -8 35 188 149 -8 b 529 14 451 -8 503 1 z m 436 986 l 549 1139 l 419 1139 l 367 1067 l 364 1067 l 310 1139 l 176 1139 l 293 986 z "},"Ĉ":{"ha":549,"x_min":0,"x_max":0,"o":"m 511 167 b 424 153 489 160 454 153 b 228 464 313 153 228 240 b 424 785 228 696 321 785 b 508 767 464 785 488 776 l 539 919 b 413 944 521 931 476 944 b 35 454 231 944 35 807 b 389 -8 35 188 149 -8 b 529 14 451 -8 503 1 z m 276 1139 l 164 986 l 293 986 l 346 1058 l 349 1058 l 403 986 l 536 986 l 419 1139 z "},"Ċ":{"ha":549,"x_min":0,"x_max":0,"o":"m 511 167 b 424 153 489 160 454 153 b 228 464 313 153 228 240 b 424 785 228 696 321 785 b 508 767 464 785 488 776 l 539 919 b 413 944 521 931 476 944 b 35 454 231 944 35 807 b 389 -8 35 188 149 -8 b 529 14 451 -8 503 1 z m 353 990 b 440 1079 401 990 440 1031 b 353 1168 440 1129 401 1168 b 267 1079 307 1168 267 1129 b 351 990 267 1031 306 990 z "},"Ď":{"ha":682,"x_min":0,"x_max":0,"o":"m 81 3 b 232 -7 117 -1 174 -7 b 517 83 361 -7 453 24 b 647 479 599 156 647 290 b 525 857 647 661 606 785 b 265 940 465 913 383 940 b 81 922 193 940 126 933 z m 263 790 b 299 794 274 794 286 794 b 458 486 408 794 458 678 b 294 142 458 228 382 142 b 263 144 285 142 272 142 z m 376 986 l 489 1139 l 360 1139 l 307 1067 l 304 1067 l 250 1139 l 117 1139 l 233 986 z "},"Đ":{"ha":685,"x_min":0,"x_max":0,"o":"m 0 421 l 83 421 l 83 3 b 235 -8 119 -3 176 -8 b 521 82 365 -8 457 22 b 651 479 603 154 651 289 b 529 857 651 661 610 785 b 268 940 469 913 388 940 b 83 922 196 940 129 933 l 83 547 l 0 547 z m 368 547 l 265 547 l 265 790 b 301 794 276 793 286 794 b 463 486 413 794 463 678 b 297 140 463 226 386 140 b 265 143 288 140 275 140 l 265 421 l 368 421 z "},"Ĕ":{"ha":547,"x_min":0,"x_max":0,"o":"m 475 563 l 263 563 l 263 778 l 488 778 l 488 936 l 81 936 l 81 0 l 503 0 l 503 158 l 263 158 l 263 411 l 475 411 z m 119 1151 b 288 989 119 1053 175 989 b 454 1151 399 989 454 1054 l 357 1151 b 286 1090 356 1114 329 1090 b 217 1151 244 1090 218 1115 z "},"Ě":{"ha":547,"x_min":0,"x_max":0,"o":"m 475 563 l 263 563 l 263 778 l 488 778 l 488 936 l 81 936 l 81 0 l 503 0 l 503 158 l 263 158 l 263 411 l 475 411 z m 358 986 l 471 1139 l 342 1139 l 289 1067 l 286 1067 l 232 1139 l 99 1139 l 215 986 z "},"Ė":{"ha":547,"x_min":0,"x_max":0,"o":"m 475 563 l 263 563 l 263 778 l 488 778 l 488 936 l 81 936 l 81 0 l 503 0 l 503 158 l 263 158 l 263 411 l 475 411 z m 281 993 b 368 1082 329 993 368 1033 b 281 1171 368 1132 329 1171 b 194 1082 235 1171 194 1132 b 279 993 194 1033 233 993 z "},"Ē":{"ha":547,"x_min":0,"x_max":0,"o":"m 475 563 l 263 563 l 263 778 l 488 778 l 488 936 l 81 936 l 81 0 l 503 0 l 503 158 l 263 158 l 263 411 l 475 411 z m 118 1132 l 118 1022 l 444 1022 l 444 1132 z "},"Ŋ":{"ha":717,"x_min":0,"x_max":0,"o":"m 240 0 l 240 211 b 228 638 240 399 233 543 l 231 638 b 326 357 253 554 294 435 l 472 -21 b 358 -144 471 -79 433 -122 l 404 -281 b 636 43 568 -251 636 -135 l 636 936 l 476 936 l 476 729 b 494 296 476 557 489 394 l 492 296 b 392 569 465 378 421 497 l 247 936 l 81 936 l 81 0 z "},"Ę":{"ha":547,"x_min":0,"x_max":0,"o":"m 501 -160 b 444 -168 486 -165 467 -168 b 394 -124 417 -168 394 -154 b 482 0 394 -86 428 -42 b 504 1 490 0 497 1 l 504 160 l 263 160 l 263 411 l 476 411 l 476 563 l 263 563 l 263 778 l 489 778 l 489 936 l 81 936 l 81 1 l 357 1 b 265 -167 307 -43 265 -103 b 390 -286 265 -237 310 -286 b 522 -251 432 -286 481 -279 z "},"Ğ":{"ha":656,"x_min":0,"x_max":0,"o":"m 600 525 l 349 525 l 349 376 l 433 376 l 433 151 b 397 146 426 147 414 146 b 224 453 311 146 224 226 b 447 781 224 694 322 781 b 554 760 492 781 526 772 l 585 917 b 433 944 556 931 504 944 b 35 463 232 944 39 803 b 156 85 32 301 75 164 b 407 -8 217 22 299 -8 b 600 25 475 -8 560 8 z m 215 1146 b 383 983 215 1047 271 983 b 550 1146 494 983 550 1049 l 453 1146 b 382 1085 451 1108 425 1085 b 313 1146 340 1085 314 1110 z "},"Ĝ":{"ha":656,"x_min":0,"x_max":0,"o":"m 600 525 l 349 525 l 349 376 l 433 376 l 433 151 b 397 146 426 147 414 146 b 224 453 311 146 224 226 b 447 781 224 694 322 781 b 554 760 492 781 526 772 l 585 917 b 433 944 556 931 504 944 b 35 463 232 944 39 803 b 156 85 32 301 75 164 b 407 -8 217 22 299 -8 b 600 25 475 -8 560 8 z m 301 1139 l 189 986 l 318 986 l 371 1058 l 374 1058 l 428 986 l 561 986 l 444 1139 z "},"Ģ":{"ha":656,"x_min":0,"x_max":0,"o":"m 600 525 l 349 525 l 349 376 l 433 376 l 433 151 b 397 146 426 147 414 146 b 224 453 311 146 224 226 b 447 781 224 694 322 781 b 554 760 492 781 526 772 l 585 917 b 433 944 556 931 504 944 b 35 463 232 944 39 803 b 156 85 32 301 75 164 b 407 -8 217 22 299 -8 b 600 25 475 -8 560 8 z m 288 -311 b 478 -158 392 -301 478 -256 b 426 -57 478 -106 450 -72 l 294 -74 b 339 -158 313 -92 339 -125 b 258 -231 339 -197 293 -221 z "},"Ġ":{"ha":656,"x_min":0,"x_max":0,"o":"m 600 525 l 349 525 l 349 376 l 433 376 l 433 151 b 397 146 426 147 414 146 b 224 453 311 146 224 226 b 447 781 224 694 322 781 b 554 760 492 781 526 772 l 585 917 b 433 944 556 931 504 944 b 35 463 232 944 39 803 b 156 85 32 301 75 164 b 407 -8 217 22 299 -8 b 600 25 475 -8 560 8 z m 378 990 b 465 1079 426 990 465 1031 b 378 1168 465 1129 426 1168 b 292 1079 332 1168 292 1129 b 376 990 292 1031 331 990 z "},"Ħ":{"ha":715,"x_min":0,"x_max":0,"o":"m 696 653 l 696 776 l 635 776 l 635 936 l 453 936 l 453 776 l 263 776 l 263 936 l 81 936 l 81 776 l 19 776 l 19 653 l 81 653 l 81 0 l 263 0 l 263 368 l 453 368 l 453 0 l 635 0 l 635 653 z m 453 538 l 263 538 l 263 653 l 453 653 z "},"Ĥ":{"ha":715,"x_min":0,"x_max":0,"o":"m 81 936 l 81 0 l 263 0 l 263 392 l 453 392 l 453 0 l 635 0 l 635 936 l 453 936 l 453 561 l 263 561 l 263 936 z m 286 1139 l 174 986 l 303 986 l 356 1058 l 358 1058 l 413 986 l 546 986 l 429 1139 z "},"Ĭ":{"ha":344,"x_min":0,"x_max":0,"o":"m 81 936 l 81 0 l 263 0 l 263 936 z m 3 1153 b 171 990 3 1054 58 990 b 338 1153 282 990 338 1056 l 240 1153 b 169 1092 239 1115 213 1092 b 100 1153 128 1092 101 1117 z "},"Ĳ":{"ha":756,"x_min":0,"x_max":0,"o":"m 81 936 l 81 0 l 263 0 l 263 936 z m 504 290 b 407 149 504 171 460 149 b 347 156 383 149 364 151 l 332 3 b 424 -11 351 -6 386 -11 b 686 299 556 -11 686 29 l 686 936 l 504 936 z "},"Ī":{"ha":344,"x_min":0,"x_max":0,"o":"m 81 936 l 81 0 l 263 0 l 263 936 z m 10 1132 l 10 1022 l 336 1022 l 336 1132 z "},"Į":{"ha":344,"x_min":0,"x_max":0,"o":"m 263 936 l 81 936 l 81 0 b 32 -157 67 -26 32 -86 b 167 -287 32 -233 76 -287 b 289 -253 203 -287 247 -282 l 267 -161 b 213 -169 254 -167 238 -169 b 157 -108 182 -169 157 -149 b 192 0 157 -74 172 -33 l 263 0 z "},"Ĩ":{"ha":344,"x_min":0,"x_max":0,"o":"m 81 936 l 81 0 l 263 0 l 263 936 z m 89 997 b 118 1046 92 1029 103 1046 b 167 1025 135 1046 147 1036 b 242 1003 186 1013 211 1003 b 338 1163 306 1003 340 1046 l 257 1163 b 224 1110 251 1122 244 1110 b 172 1133 208 1110 192 1121 b 99 1157 153 1146 131 1157 b 7 997 42 1157 4 1100 z "},"Ĵ":{"ha":411,"x_min":0,"x_max":0,"o":"m 160 290 b 63 149 160 171 115 149 b 3 156 39 149 19 151 l -12 3 b 79 -11 7 -6 42 -11 b 342 299 211 -11 342 29 l 342 936 l 160 936 z m 176 1139 l 64 986 l 193 986 l 246 1058 l 249 1058 l 303 986 l 436 986 l 319 1139 z "},"Ķ":{"ha":638,"x_min":0,"x_max":0,"o":"m 81 0 l 263 0 l 263 311 l 304 388 l 440 0 l 640 0 l 426 529 l 638 936 l 436 936 l 311 636 b 267 515 296 596 282 554 l 263 515 l 263 936 l 81 936 z m 243 -308 b 433 -156 347 -299 433 -253 b 382 -54 433 -103 406 -69 l 250 -71 b 294 -156 268 -89 294 -122 b 214 -228 294 -194 249 -218 z "},"Ĺ":{"ha":528,"x_min":0,"x_max":0,"o":"m 81 0 l 501 0 l 501 154 l 263 154 l 263 936 l 81 936 z m 218 1143 l 104 986 l 233 986 l 403 1143 z "},"Ľ":{"ha":528,"x_min":0,"x_max":0,"o":"m 81 0 l 501 0 l 501 154 l 263 154 l 263 936 l 81 936 z m 331 683 b 521 836 435 693 521 739 b 469 938 521 889 493 922 l 338 921 b 382 836 356 903 382 869 b 301 764 382 797 336 774 z "},"Ļ":{"ha":528,"x_min":0,"x_max":0,"o":"m 81 0 l 501 0 l 501 154 l 263 154 l 263 936 l 81 936 z m 179 -311 b 369 -158 283 -301 369 -256 b 318 -57 369 -106 342 -72 l 186 -74 b 231 -158 204 -92 231 -125 b 150 -231 231 -197 185 -221 z "},"Ŀ":{"ha":528,"x_min":0,"x_max":0,"o":"m 81 0 l 501 0 l 501 154 l 263 154 l 263 936 l 81 936 z m 408 418 b 496 507 457 418 496 458 b 408 596 496 557 457 596 b 322 507 363 596 322 557 b 407 418 322 458 361 418 z "},"Ń":{"ha":717,"x_min":0,"x_max":0,"o":"m 240 0 l 240 211 b 228 638 240 399 233 543 l 231 638 b 326 357 253 554 294 435 l 469 0 l 636 0 l 636 936 l 476 936 l 476 729 b 494 296 476 557 489 393 l 492 296 b 392 568 465 376 421 497 l 247 936 l 81 936 l 81 0 z m 400 1143 l 286 986 l 415 986 l 585 1143 z "},"Ň":{"ha":717,"x_min":0,"x_max":0,"o":"m 240 0 l 240 211 b 228 638 240 399 233 543 l 231 638 b 326 357 253 554 294 435 l 469 0 l 636 0 l 636 936 l 476 936 l 476 729 b 494 296 476 557 489 393 l 492 296 b 392 568 465 376 421 497 l 247 936 l 81 936 l 81 0 z m 432 986 l 544 1139 l 415 1139 l 363 1067 l 360 1067 l 306 1139 l 172 1139 l 289 986 z "},"Ņ":{"ha":717,"x_min":0,"x_max":0,"o":"m 240 0 l 240 211 b 228 638 240 399 233 543 l 231 638 b 326 357 253 554 294 435 l 469 0 l 636 0 l 636 936 l 476 936 l 476 729 b 494 296 476 557 489 393 l 492 296 b 392 568 465 376 421 497 l 247 936 l 81 936 l 81 0 z m 271 -300 b 461 -147 375 -290 461 -244 b 410 -46 461 -94 433 -61 l 278 -62 b 322 -147 296 -81 322 -114 b 242 -219 322 -186 276 -210 z "},"Ŏ":{"ha":668,"x_min":0,"x_max":0,"o":"m 332 -11 b 633 485 508 -11 633 132 b 344 947 633 699 569 947 b 35 471 136 947 35 726 b 331 -11 35 214 118 -11 z m 336 147 b 224 472 256 147 221 286 b 336 789 222 642 256 789 b 444 476 419 789 444 642 b 338 147 444 286 415 147 z m 165 1154 b 333 992 165 1056 221 992 b 500 1154 444 992 500 1057 l 403 1154 b 332 1093 401 1117 375 1093 b 263 1154 290 1093 264 1118 z "},"Ő":{"ha":668,"x_min":0,"x_max":0,"o":"m 332 -11 b 633 485 508 -11 633 132 b 344 947 633 699 569 947 b 35 471 136 947 35 726 b 331 -11 35 214 118 -11 z m 336 147 b 224 472 256 147 221 286 b 336 789 222 642 256 789 b 444 476 419 789 444 642 b 338 147 444 286 415 147 z m 268 1143 l 189 990 l 290 990 l 418 1143 z m 471 1143 l 392 990 l 493 990 l 621 1143 z "},"Ō":{"ha":668,"x_min":0,"x_max":0,"o":"m 332 -11 b 633 485 508 -11 633 132 b 344 947 633 699 569 947 b 35 471 136 947 35 726 b 331 -11 35 214 118 -11 z m 336 147 b 224 472 256 147 221 286 b 336 789 222 642 256 789 b 444 476 419 789 444 642 b 338 147 444 286 415 147 z m 172 1132 l 172 1022 l 499 1022 l 499 1132 z "},"Ǿ":{"ha":668,"x_min":0,"x_max":0,"o":"m 149 -71 l 194 32 b 335 -11 235 3 282 -11 b 633 485 510 -11 633 132 b 551 835 633 603 615 740 l 610 967 l 514 1007 l 471 910 b 338 947 432 935 388 947 b 35 469 135 947 35 721 b 117 113 35 333 57 203 l 57 -21 z m 222 326 l 219 326 b 213 472 214 375 213 426 b 336 789 213 681 261 789 b 401 750 364 789 388 775 z m 446 615 l 449 615 b 456 475 454 568 456 519 b 336 147 456 261 413 147 b 261 192 307 147 276 161 z m 374 1143 l 260 986 l 389 986 l 558 1143 z "},"Ŕ":{"ha":653,"x_min":0,"x_max":0,"o":"m 81 0 l 263 0 l 263 374 l 290 374 b 396 225 350 374 379 340 b 443 0 410 121 431 26 l 633 0 b 574 254 617 35 592 150 b 460 440 556 356 524 414 l 460 443 b 604 676 554 486 604 576 b 529 871 604 757 586 819 b 279 940 469 926 379 940 b 81 922 210 940 138 933 z m 263 793 b 307 799 272 797 290 799 b 419 660 388 796 419 740 b 296 514 419 578 375 514 l 263 514 z m 349 1143 l 235 986 l 364 986 l 533 1143 z "},"Ř":{"ha":653,"x_min":0,"x_max":0,"o":"m 81 0 l 263 0 l 263 374 l 290 374 b 396 225 350 374 379 340 b 443 0 410 121 431 26 l 633 0 b 574 254 617 35 592 150 b 460 440 556 356 524 414 l 460 443 b 604 676 554 486 604 576 b 529 871 604 757 586 819 b 279 940 469 926 379 940 b 81 922 210 940 138 933 z m 263 793 b 307 799 272 797 290 799 b 419 660 388 796 419 740 b 296 514 419 578 375 514 l 263 514 z m 397 986 l 510 1139 l 381 1139 l 328 1067 l 325 1067 l 271 1139 l 138 1139 l 254 986 z "},"Ŗ":{"ha":653,"x_min":0,"x_max":0,"o":"m 81 0 l 263 0 l 263 374 l 290 374 b 396 225 350 374 379 340 b 443 0 410 121 431 26 l 633 0 b 574 254 617 35 592 150 b 460 440 556 356 524 414 l 460 443 b 604 676 554 486 604 576 b 529 871 604 757 586 819 b 279 940 469 926 379 940 b 81 922 210 940 138 933 z m 263 793 b 307 799 272 797 290 799 b 419 660 388 796 419 740 b 296 514 419 578 375 514 l 263 514 z m 239 -308 b 429 -156 343 -299 429 -253 b 378 -54 429 -103 401 -69 l 246 -71 b 290 -156 264 -89 290 -122 b 210 -228 290 -194 244 -218 z "},"Ś":{"ha":547,"x_min":0,"x_max":0,"o":"m 33 29 b 213 -8 65 11 138 -8 b 521 275 394 -8 521 104 b 351 543 521 374 476 468 b 224 690 251 604 224 633 b 339 786 224 739 261 786 b 457 754 390 786 431 771 l 486 911 b 339 944 460 926 401 944 b 44 669 144 944 44 819 b 221 408 44 585 93 486 b 342 256 300 357 342 324 b 214 150 342 194 299 150 b 60 186 163 150 97 165 z m 311 1143 l 197 986 l 326 986 l 496 1143 z "},"Ş":{"ha":547,"x_min":0,"x_max":0,"o":"m 33 29 b 213 -8 65 11 138 -8 b 217 -8 215 -8 215 -8 l 171 -114 b 265 -165 232 -119 265 -137 b 221 -200 265 -192 243 -200 b 147 -181 197 -200 171 -192 l 122 -258 b 226 -283 147 -274 189 -283 b 379 -162 304 -283 379 -251 b 286 -61 379 -107 335 -69 l 319 6 b 521 275 443 42 521 140 b 353 543 521 374 476 468 b 224 690 251 604 224 633 b 339 786 224 739 261 786 b 457 754 390 786 431 771 l 486 911 b 340 944 460 926 401 944 b 44 669 144 944 44 819 b 221 408 44 585 93 486 b 342 256 300 357 342 324 b 214 150 342 194 300 150 b 60 186 163 150 97 165 z "},"Ŝ":{"ha":547,"x_min":0,"x_max":0,"o":"m 33 29 b 213 -8 65 11 138 -8 b 521 275 394 -8 521 104 b 351 543 521 374 476 468 b 224 690 251 604 224 633 b 339 786 224 739 261 786 b 457 754 390 786 431 771 l 486 911 b 339 944 460 926 401 944 b 44 669 144 944 44 819 b 221 408 44 585 93 486 b 342 256 300 357 342 324 b 214 150 342 194 299 150 b 60 186 163 150 97 165 z m 214 1139 l 101 986 l 231 986 l 283 1058 l 286 1058 l 340 986 l 474 986 l 357 1139 z "},"Ș":{"ha":547,"x_min":0,"x_max":0,"o":"m 33 29 b 213 -8 65 11 138 -8 b 521 275 394 -8 521 104 b 351 543 521 374 476 468 b 224 690 251 604 224 633 b 339 786 224 739 261 786 b 457 754 390 786 431 771 l 486 911 b 339 944 460 926 401 944 b 44 669 144 944 44 819 b 221 408 44 585 93 486 b 342 256 300 357 342 324 b 214 150 342 194 299 150 b 60 186 163 150 97 165 z m 174 -311 b 364 -158 278 -301 364 -256 b 313 -57 364 -106 336 -72 l 181 -74 b 225 -158 199 -92 225 -125 b 144 -231 225 -197 179 -221 z "},"Ŧ":{"ha":546,"x_min":0,"x_max":0,"o":"m 531 768 l 531 936 l 17 936 l 17 768 l 182 768 l 182 543 l 71 543 l 71 418 l 182 418 l 182 0 l 364 0 l 364 418 l 475 418 l 475 543 l 364 543 l 364 768 z "},"Ť":{"ha":546,"x_min":0,"x_max":0,"o":"m 182 0 l 364 0 l 364 768 l 531 768 l 531 936 l 17 936 l 17 768 l 182 768 z m 347 986 l 460 1139 l 331 1139 l 278 1067 l 275 1067 l 221 1139 l 88 1139 l 204 986 z "},"Ţ":{"ha":546,"x_min":0,"x_max":0,"o":"m 182 0 l 364 0 l 364 768 l 531 768 l 531 936 l 17 936 l 17 768 l 182 768 z m 183 -311 b 374 -158 288 -301 374 -256 b 322 -57 374 -106 346 -72 l 190 -74 b 235 -158 208 -92 235 -125 b 154 -231 235 -197 189 -221 z "},"Ŭ":{"ha":694,"x_min":0,"x_max":0,"o":"m 75 936 l 75 358 b 347 -11 75 125 151 -11 b 618 360 526 -11 618 119 l 618 936 l 436 936 l 436 328 b 346 149 436 186 399 149 b 257 328 297 149 257 190 l 257 936 z m 178 1143 b 346 981 178 1044 233 981 b 513 1143 457 981 513 1046 l 415 1143 b 344 1082 414 1106 388 1082 b 275 1143 303 1082 276 1107 z "},"Ű":{"ha":694,"x_min":0,"x_max":0,"o":"m 75 936 l 75 358 b 347 -11 75 125 151 -11 b 618 360 526 -11 618 119 l 618 936 l 436 936 l 436 328 b 346 149 436 186 399 149 b 257 328 297 149 257 190 l 257 936 z m 267 1143 l 188 990 l 289 990 l 417 1143 z m 469 1143 l 390 990 l 492 990 l 619 1143 z "},"Ū":{"ha":694,"x_min":0,"x_max":0,"o":"m 75 936 l 75 358 b 347 -11 75 125 151 -11 b 618 360 526 -11 618 119 l 618 936 l 436 936 l 436 328 b 346 149 436 186 399 149 b 257 328 297 149 257 190 l 257 936 z m 185 1132 l 185 1022 l 511 1022 l 511 1132 z "},"Ų":{"ha":694,"x_min":0,"x_max":0,"o":"m 490 -154 b 431 -165 474 -161 454 -165 b 381 -114 403 -165 381 -150 b 444 7 381 -78 407 -28 b 618 360 563 46 618 169 l 618 936 l 436 936 l 436 326 b 347 147 436 185 399 147 b 258 326 299 147 258 189 l 258 936 l 75 936 l 75 357 b 308 -8 75 136 144 7 b 319 -10 313 -10 317 -10 b 254 -164 294 -44 254 -100 b 390 -282 254 -232 300 -282 b 513 -246 426 -282 472 -271 z "},"Ů":{"ha":694,"x_min":0,"x_max":0,"o":"m 75 936 l 75 358 b 347 -11 75 125 151 -11 b 618 360 526 -11 618 119 l 618 936 l 436 936 l 436 328 b 346 149 436 186 399 149 b 257 328 297 149 257 190 l 257 936 z m 349 1218 b 200 1088 247 1218 200 1153 b 349 963 200 1025 243 963 b 494 1092 449 963 494 1025 b 350 1218 494 1158 453 1218 z m 346 1153 b 400 1090 385 1153 400 1121 b 346 1029 400 1058 386 1029 b 294 1089 308 1029 294 1061 b 344 1153 294 1118 307 1153 z "},"Ũ":{"ha":694,"x_min":0,"x_max":0,"o":"m 75 936 l 75 358 b 347 -11 75 125 151 -11 b 618 360 526 -11 618 119 l 618 936 l 436 936 l 436 328 b 346 149 436 186 399 149 b 257 328 297 149 257 190 l 257 936 z m 264 997 b 293 1046 267 1029 278 1046 b 342 1025 310 1046 322 1036 b 417 1003 361 1013 386 1003 b 513 1163 481 1003 515 1046 l 432 1163 b 399 1110 426 1122 419 1110 b 347 1133 383 1110 367 1121 b 274 1157 328 1146 306 1157 b 182 997 217 1157 179 1100 z "},"Ẃ":{"ha":943,"x_min":0,"x_max":0,"o":"m 358 0 l 421 306 b 472 614 440 397 456 501 l 475 614 b 517 307 488 500 501 393 l 572 0 l 760 0 l 925 936 l 747 936 l 701 565 b 665 235 689 457 678 357 l 663 235 b 618 567 651 357 635 461 l 556 936 l 408 936 l 342 564 b 289 235 322 451 301 350 l 285 235 b 253 563 274 349 265 456 l 207 936 l 18 936 l 178 0 z m 511 1143 l 397 986 l 526 986 l 696 1143 z "},"Ŵ":{"ha":943,"x_min":0,"x_max":0,"o":"m 358 0 l 421 306 b 472 614 440 397 456 501 l 475 614 b 517 307 488 500 501 393 l 572 0 l 760 0 l 925 936 l 747 936 l 701 565 b 665 235 689 457 678 357 l 663 235 b 618 567 651 357 635 461 l 556 936 l 408 936 l 342 564 b 289 235 322 451 301 350 l 285 235 b 253 563 274 349 265 456 l 207 936 l 18 936 l 178 0 z m 410 1139 l 297 986 l 426 986 l 479 1058 l 482 1058 l 536 986 l 669 986 l 553 1139 z "},"Ẅ":{"ha":943,"x_min":0,"x_max":0,"o":"m 358 0 l 421 306 b 472 614 440 397 456 501 l 475 614 b 517 307 488 500 501 393 l 572 0 l 760 0 l 925 936 l 747 936 l 701 565 b 665 235 689 457 678 357 l 663 235 b 618 567 651 357 635 461 l 556 936 l 408 936 l 342 564 b 289 235 322 451 301 350 l 285 235 b 253 563 274 349 265 456 l 207 936 l 18 936 l 178 0 z m 353 993 b 435 1082 397 993 435 1032 b 353 1169 435 1131 397 1169 b 271 1082 310 1169 271 1131 b 351 993 271 1032 308 993 z m 608 993 b 690 1082 653 993 690 1032 b 608 1169 690 1131 653 1169 b 525 1082 564 1169 525 1131 b 607 993 525 1032 563 993 z "},"Ẁ":{"ha":943,"x_min":0,"x_max":0,"o":"m 358 0 l 421 306 b 472 614 440 397 456 501 l 475 614 b 517 307 488 500 501 393 l 572 0 l 760 0 l 925 936 l 747 936 l 701 565 b 665 235 689 457 678 357 l 663 235 b 618 567 651 357 635 461 l 556 936 l 408 936 l 342 564 b 289 235 322 451 301 350 l 285 235 b 253 563 274 349 265 456 l 207 936 l 18 936 l 178 0 z m 268 1143 l 438 986 l 567 986 l 453 1143 z "},"Ŷ":{"ha":558,"x_min":0,"x_max":0,"o":"m 367 0 l 367 365 l 576 936 l 388 936 l 332 717 b 289 514 315 650 300 582 l 286 514 b 236 713 272 583 254 653 l 174 936 l -21 936 l 185 358 l 185 0 z m 207 1139 l 94 986 l 224 986 l 276 1058 l 279 1058 l 333 986 l 467 986 l 350 1139 z "},"Ỳ":{"ha":558,"x_min":0,"x_max":0,"o":"m 367 0 l 367 365 l 576 936 l 388 936 l 332 717 b 289 514 315 650 300 582 l 286 514 b 236 713 272 583 254 653 l 174 936 l -21 936 l 185 358 l 185 0 z m 75 1140 l 244 983 l 374 983 l 260 1140 z "},"Ź":{"ha":538,"x_min":0,"x_max":0,"o":"m 15 0 l 515 0 l 515 158 l 233 158 l 233 163 l 517 803 l 517 936 l 43 936 l 43 778 l 311 778 l 311 774 l 15 106 z m 310 1143 l 196 986 l 325 986 l 494 1143 z "},"Ż":{"ha":538,"x_min":0,"x_max":0,"o":"m 15 0 l 515 0 l 515 158 l 233 158 l 233 163 l 517 803 l 517 936 l 43 936 l 43 778 l 311 778 l 311 774 l 15 106 z m 285 990 b 372 1079 333 990 372 1031 b 285 1168 372 1129 333 1168 b 199 1079 239 1168 199 1129 b 283 990 199 1031 238 990 z "},"İ":{"ha":344,"x_min":0,"x_max":0,"o":"m 81 936 l 81 0 l 263 0 l 263 936 z m 172 993 b 260 1082 221 993 260 1033 b 172 1171 260 1132 221 1171 b 86 1082 126 1171 86 1132 b 171 993 86 1033 125 993 z "},"ă":{"ha":586,"x_min":0,"x_max":0,"o":"m 522 407 b 282 690 522 546 489 690 b 69 639 186 690 108 660 l 103 515 b 242 556 144 540 188 556 b 338 463 307 556 338 517 l 338 447 b 26 194 183 446 26 374 b 206 -11 26 75 103 -11 b 356 67 265 -11 319 14 l 360 67 l 369 0 l 532 0 b 522 156 525 46 522 101 z m 343 213 b 339 181 343 200 342 189 b 264 122 326 139 294 122 b 199 214 236 122 199 147 b 343 331 199 308 283 329 z m 129 943 b 290 768 125 843 192 768 b 458 943 393 768 463 843 l 369 943 b 292 869 369 904 343 869 b 219 943 253 869 224 896 z "},"ā":{"ha":586,"x_min":0,"x_max":0,"o":"m 522 407 b 282 690 522 546 489 690 b 69 639 186 690 108 660 l 103 515 b 242 556 144 540 188 556 b 338 463 307 556 338 517 l 338 447 b 26 194 183 446 26 374 b 206 -11 26 75 103 -11 b 356 67 265 -11 319 14 l 360 67 l 369 0 l 532 0 b 522 156 525 46 522 101 z m 343 213 b 339 181 343 200 342 189 b 264 122 326 139 294 122 b 199 214 236 122 199 147 b 343 331 199 308 283 329 z m 147 911 l 147 807 l 442 807 l 442 911 z "},"ą":{"ha":586,"x_min":0,"x_max":0,"o":"m 522 407 b 282 690 522 546 489 690 b 69 639 186 690 108 660 l 103 515 b 242 556 144 540 188 556 b 338 463 307 556 338 517 l 338 447 b 26 194 183 446 26 374 b 206 -11 26 75 103 -11 b 356 67 265 -11 319 14 l 360 67 l 369 0 b 319 -154 354 -26 319 -86 b 454 -287 319 -233 364 -287 b 576 -253 490 -287 536 -282 l 554 -161 b 500 -169 542 -167 525 -169 b 444 -111 469 -169 444 -144 b 479 0 444 -74 460 -33 l 532 0 b 522 156 525 44 522 94 z m 343 211 b 339 181 343 200 342 189 b 264 122 326 139 294 122 b 199 214 236 122 199 147 b 343 331 199 308 283 329 z "},"ǽ":{"ha":879,"x_min":0,"x_max":0,"o":"m 835 297 b 839 369 836 321 839 343 b 625 690 839 571 756 690 b 440 583 547 690 482 656 l 438 583 b 263 690 410 651 344 690 b 69 639 193 690 121 669 l 103 518 b 228 556 132 538 183 556 b 333 460 297 556 333 511 l 333 439 b 26 203 182 438 26 371 b 214 -11 26 78 106 -11 b 411 107 300 -11 365 29 l 415 107 b 629 -11 451 28 538 -11 b 811 26 689 -11 751 -3 l 786 153 b 661 125 753 136 711 125 b 513 297 581 125 513 169 z m 336 222 b 331 185 336 208 335 196 b 258 125 319 146 289 125 b 189 210 226 125 189 150 b 336 325 189 306 275 325 z m 513 415 b 599 563 514 475 539 563 b 674 415 654 563 675 492 z m 478 957 l 382 763 l 496 763 l 636 957 z "},"ć":{"ha":449,"x_min":0,"x_max":0,"o":"m 425 154 b 357 140 406 144 383 140 b 221 339 272 140 221 215 b 360 539 221 456 272 539 b 428 526 390 539 413 532 l 451 669 b 351 688 433 678 394 688 b 40 332 164 688 40 542 b 325 -8 40 111 153 -8 b 440 13 376 -8 422 3 z m 321 957 l 225 763 l 339 763 l 479 957 z "},"č":{"ha":449,"x_min":0,"x_max":0,"o":"m 425 154 b 357 140 406 144 383 140 b 221 339 272 140 221 215 b 360 539 221 456 272 539 b 428 526 390 539 413 532 l 451 669 b 351 688 433 678 394 688 b 40 332 164 688 40 542 b 325 -8 40 111 153 -8 b 440 13 376 -8 422 3 z m 346 763 l 465 957 l 339 957 l 283 846 l 281 846 l 224 957 l 100 957 l 218 763 z "},"ĉ":{"ha":449,"x_min":0,"x_max":0,"o":"m 425 154 b 357 140 406 144 383 140 b 221 339 272 140 221 215 b 360 539 221 456 272 539 b 428 526 390 539 413 532 l 451 669 b 351 688 433 678 394 688 b 40 332 164 688 40 542 b 325 -8 40 111 153 -8 b 440 13 376 -8 422 3 z m 221 957 l 101 763 l 228 763 l 282 874 l 285 874 l 342 763 l 465 763 l 347 957 z "},"ċ":{"ha":449,"x_min":0,"x_max":0,"o":"m 425 154 b 357 140 406 144 383 140 b 221 339 272 140 221 215 b 360 539 221 456 272 539 b 428 526 390 539 413 532 l 451 669 b 351 688 433 678 394 688 b 40 332 164 688 40 542 b 325 -8 40 111 153 -8 b 440 13 376 -8 422 3 z m 282 778 b 365 867 331 778 365 815 b 282 956 365 919 329 956 b 199 867 238 956 199 918 b 281 778 199 815 236 778 z "},"ď":{"ha":635,"x_min":0,"x_max":0,"o":"m 375 961 l 375 621 l 372 621 b 258 690 354 660 318 690 b 40 338 144 690 40 574 b 251 -11 40 149 107 -11 b 392 76 313 -11 367 28 l 396 76 l 406 0 l 563 0 b 557 200 560 63 557 136 l 557 961 z m 375 239 b 369 196 375 222 374 207 b 306 138 356 150 329 138 b 221 333 256 138 221 204 b 308 536 221 444 244 536 b 372 457 344 536 367 499 b 375 418 375 444 375 429 z m 685 682 b 779 863 710 706 779 767 b 732 965 779 913 756 950 l 619 947 b 658 854 638 931 658 896 b 615 732 658 804 635 757 z "},"đ":{"ha":621,"x_min":0,"x_max":0,"o":"m 640 740 l 640 854 l 557 854 l 557 961 l 375 961 l 375 854 l 197 854 l 197 740 l 375 740 l 375 621 l 372 621 b 258 690 354 660 318 690 b 40 338 144 690 40 574 b 251 -11 40 149 107 -11 b 392 76 313 -11 367 28 l 396 76 l 406 0 l 563 0 b 557 200 560 63 557 136 l 557 740 z m 375 239 b 369 196 375 222 374 207 b 306 138 356 150 329 138 b 221 333 256 138 221 204 b 308 536 221 444 244 536 b 372 457 344 536 367 499 b 375 418 375 444 375 429 z "},"ĕ":{"ha":582,"x_min":0,"x_max":0,"o":"m 538 275 b 543 369 540 294 543 321 b 313 690 543 575 458 690 b 40 326 160 690 40 554 b 328 -8 40 114 142 -8 b 513 24 396 -8 467 4 l 489 153 b 360 131 456 142 411 131 b 217 275 279 131 218 169 z m 217 403 b 301 557 218 471 242 557 b 378 403 356 557 378 489 z m 136 943 b 297 768 132 843 199 768 b 465 943 400 768 469 843 l 376 943 b 299 869 376 904 350 869 b 226 943 260 869 231 896 z "},"ě":{"ha":582,"x_min":0,"x_max":0,"o":"m 538 275 b 543 369 540 294 543 321 b 313 690 543 575 458 690 b 40 326 160 690 40 554 b 328 -8 40 114 142 -8 b 513 24 396 -8 467 4 l 489 153 b 360 131 456 142 411 131 b 217 275 279 131 218 169 z m 217 403 b 301 557 218 471 242 557 b 378 403 356 557 378 489 z m 361 763 l 481 957 l 354 957 l 299 846 l 296 846 l 239 957 l 115 957 l 233 763 z "},"ė":{"ha":582,"x_min":0,"x_max":0,"o":"m 538 275 b 543 369 540 294 543 321 b 313 690 543 575 458 690 b 40 326 160 690 40 554 b 328 -8 40 114 142 -8 b 513 24 396 -8 467 4 l 489 153 b 360 131 456 142 411 131 b 217 275 279 131 218 169 z m 217 403 b 301 557 218 471 242 557 b 378 403 356 557 378 489 z m 303 778 b 386 867 351 778 386 815 b 303 956 386 919 350 956 b 219 867 258 956 219 918 b 301 778 219 815 257 778 z "},"ē":{"ha":582,"x_min":0,"x_max":0,"o":"m 538 275 b 543 369 540 294 543 321 b 313 690 543 575 458 690 b 40 326 160 690 40 554 b 328 -8 40 114 142 -8 b 513 24 396 -8 467 4 l 489 153 b 360 131 456 142 411 131 b 217 275 279 131 218 169 z m 217 403 b 301 557 218 471 242 557 b 378 403 356 557 378 489 z m 149 911 l 149 807 l 443 807 l 443 911 z "},"ŋ":{"ha":636,"x_min":0,"x_max":0,"o":"m 64 0 l 246 0 l 246 414 b 256 476 246 440 250 463 b 324 538 268 517 293 538 b 390 425 376 538 390 482 l 390 25 b 296 -124 390 -81 354 -110 l 336 -262 b 572 51 463 -243 572 -162 l 572 436 b 392 690 572 588 521 690 b 228 601 321 690 263 654 l 225 601 l 215 679 l 58 679 b 64 475 61 614 64 549 z "},"ę":{"ha":582,"x_min":0,"x_max":0,"o":"m 457 -151 b 392 -168 438 -161 415 -168 b 351 -126 371 -168 351 -156 b 460 4 351 -90 392 -39 b 513 24 471 8 493 15 l 489 153 b 360 131 456 142 411 131 b 217 275 279 131 218 169 l 538 275 b 543 369 540 294 543 322 b 311 690 543 575 458 690 b 40 326 160 690 40 554 b 314 -8 40 118 138 -3 b 321 -8 315 -8 318 -8 l 321 -10 b 226 -171 275 -46 226 -106 b 357 -285 226 -235 268 -285 b 488 -239 393 -285 442 -276 z m 217 403 b 300 557 218 471 242 557 b 378 403 354 557 378 489 z "},"ğ":{"ha":621,"x_min":0,"x_max":0,"o":"m 560 464 b 567 679 560 546 563 617 l 407 679 l 397 610 l 394 610 b 269 690 368 661 324 690 b 42 333 144 690 42 558 b 253 4 42 171 101 4 b 375 72 304 4 351 29 l 378 72 l 378 31 b 250 -135 378 -74 342 -135 b 121 -107 197 -135 154 -122 l 88 -246 b 257 -278 136 -267 193 -278 b 478 -203 356 -278 428 -250 b 560 76 532 -150 560 -71 z m 378 250 b 369 196 378 231 376 211 b 310 147 356 160 333 147 b 221 338 257 147 221 211 b 313 536 221 447 247 536 b 371 481 343 536 363 510 b 378 431 375 467 378 449 z m 160 943 b 321 768 156 843 222 768 b 489 943 424 768 493 843 l 400 943 b 322 869 400 904 374 869 b 250 943 283 869 254 896 z "},"ĝ":{"ha":621,"x_min":0,"x_max":0,"o":"m 560 464 b 567 679 560 546 563 617 l 407 679 l 397 610 l 394 610 b 269 690 368 661 324 690 b 42 333 144 690 42 558 b 253 4 42 171 101 4 b 375 72 304 4 351 29 l 378 72 l 378 31 b 250 -135 378 -74 342 -135 b 121 -107 197 -135 154 -122 l 88 -246 b 257 -278 136 -267 193 -278 b 478 -203 356 -278 428 -250 b 560 76 532 -150 560 -71 z m 378 250 b 369 196 378 231 376 211 b 310 147 356 160 333 147 b 221 338 257 147 221 211 b 313 536 221 447 247 536 b 371 481 343 536 363 510 b 378 431 375 467 378 449 z m 256 957 l 136 763 l 263 763 l 317 874 l 319 874 l 376 763 l 500 763 l 382 957 z "},"ģ":{"ha":621,"x_min":0,"x_max":0,"o":"m 560 464 b 567 679 560 546 563 617 l 407 679 l 397 610 l 394 610 b 269 690 368 661 324 690 b 42 333 144 690 42 558 b 253 4 42 171 101 4 b 375 72 304 4 351 29 l 378 72 l 378 31 b 250 -135 378 -74 342 -135 b 121 -107 197 -135 154 -122 l 88 -246 b 257 -278 136 -267 193 -278 b 478 -203 356 -278 428 -250 b 560 76 532 -150 560 -71 z m 378 250 b 369 196 378 231 376 211 b 308 147 356 160 332 147 b 221 338 257 147 221 211 b 313 536 221 447 247 536 b 371 481 343 536 363 510 b 378 431 375 467 378 449 z m 414 1004 b 224 850 310 994 224 951 b 275 749 224 806 251 768 l 400 767 b 350 853 376 783 350 815 b 442 932 350 899 390 922 z "},"ġ":{"ha":621,"x_min":0,"x_max":0,"o":"m 560 464 b 567 679 560 546 563 617 l 407 679 l 397 610 l 394 610 b 269 690 368 661 324 690 b 42 333 144 690 42 558 b 253 4 42 171 101 4 b 375 72 304 4 351 29 l 378 72 l 378 31 b 250 -135 378 -74 342 -135 b 121 -107 197 -135 154 -122 l 88 -246 b 257 -278 136 -267 193 -278 b 478 -203 356 -278 428 -250 b 560 76 532 -150 560 -71 z m 378 250 b 369 196 378 231 376 211 b 310 147 356 160 333 147 b 221 338 257 147 221 211 b 313 536 221 447 247 536 b 371 481 343 536 363 510 b 378 431 375 467 378 449 z m 319 778 b 403 867 368 778 403 815 b 319 956 403 919 367 956 b 236 867 275 956 236 918 b 318 778 236 815 274 778 z "},"ħ":{"ha":636,"x_min":0,"x_max":0,"o":"m 572 0 l 572 413 b 399 690 572 585 524 690 b 307 665 365 690 333 681 b 249 608 285 650 265 632 l 246 608 l 246 740 l 429 740 l 429 854 l 246 854 l 246 961 l 64 961 l 64 854 l -21 854 l -21 740 l 64 740 l 64 0 l 246 0 l 246 422 b 253 474 246 438 250 463 b 324 538 267 519 293 538 b 390 413 378 538 390 479 l 390 0 z "},"ĥ":{"ha":636,"x_min":0,"x_max":0,"o":"m 64 0 l 246 0 l 246 422 b 253 474 246 438 250 463 b 324 538 267 519 293 538 b 390 413 378 538 390 479 l 390 0 l 572 0 l 572 413 b 399 690 572 585 524 690 b 307 665 365 690 333 681 b 249 608 285 650 265 632 l 246 608 l 246 961 l 64 961 z m 83 1158 l -29 1006 l 100 1006 l 153 1078 l 156 1078 l 210 1006 l 343 1006 l 226 1158 z "},"ĭ":{"ha":310,"x_min":0,"x_max":0,"o":"m 246 0 l 246 679 l 64 679 l 64 0 z m -8 943 b 153 768 -12 843 54 768 b 321 943 256 768 325 843 l 232 943 b 154 869 232 904 206 869 b 82 943 115 869 86 896 z "},"ĳ":{"ha":621,"x_min":0,"x_max":0,"o":"m 246 0 l 246 679 l 64 679 l 64 0 z m 151 760 b 246 858 206 760 247 800 b 153 958 246 919 206 958 b 60 858 103 958 58 919 b 150 760 58 800 100 760 z m 271 -278 b 468 -219 336 -276 418 -260 b 558 49 526 -174 558 -103 l 558 679 l 376 679 l 376 83 b 346 -97 376 -19 371 -69 b 257 -133 324 -122 289 -129 z m 465 760 b 560 858 519 760 561 800 b 467 958 560 919 519 958 b 374 858 417 958 372 919 b 464 760 372 800 414 760 z "},"ī":{"ha":310,"x_min":0,"x_max":0,"o":"m 246 0 l 246 679 l 64 679 l 64 0 z m 10 911 l 10 807 l 304 807 l 304 911 z "},"į":{"ha":310,"x_min":0,"x_max":0,"o":"m 151 760 b 246 858 206 760 247 800 b 153 958 246 919 206 958 b 60 858 103 958 58 919 b 150 760 58 800 100 760 z m 246 679 l 64 679 l 64 0 b 14 -154 49 -26 14 -86 b 150 -287 14 -233 58 -287 b 272 -253 186 -287 231 -282 l 250 -161 b 196 -169 238 -167 221 -169 b 140 -111 165 -169 140 -144 b 175 0 140 -74 156 -33 l 246 0 z "},"ĩ":{"ha":310,"x_min":0,"x_max":0,"o":"m 246 0 l 246 679 l 64 679 l 64 0 z m 69 774 b 101 828 69 808 83 828 b 156 804 121 828 133 815 b 229 782 175 794 203 782 b 326 940 288 782 326 829 l 246 940 b 217 889 246 896 233 889 b 165 911 197 889 182 900 b 85 936 142 922 119 936 b -14 774 18 936 -14 863 z "},"ĵ":{"ha":311,"x_min":0,"x_max":0,"o":"m -39 -278 b 158 -219 26 -276 108 -260 b 249 49 217 -174 249 -103 l 249 679 l 67 679 l 67 83 b 36 -97 67 -19 61 -69 b -53 -133 14 -122 -21 -129 z m 110 953 l -4 758 l 100 758 l 154 864 l 157 864 l 210 758 l 319 758 l 200 953 z "},"ķ":{"ha":574,"x_min":0,"x_max":0,"o":"m 244 961 l 63 961 l 63 0 l 244 0 l 244 221 l 275 279 l 372 0 l 575 0 l 400 394 l 565 679 l 369 679 l 281 476 b 247 382 269 449 260 421 l 244 382 z m 200 -311 b 390 -158 304 -301 390 -256 b 339 -57 390 -106 363 -72 l 207 -74 b 251 -158 225 -92 251 -125 b 171 -231 251 -197 206 -221 z "},"ĺ":{"ha":313,"x_min":0,"x_max":0,"o":"m 64 0 l 246 0 l 246 961 l 64 961 z m 183 1163 l 69 1006 l 199 1006 l 368 1163 z "},"ľ":{"ha":324,"x_min":0,"x_max":0,"o":"m 64 0 l 246 0 l 246 961 l 64 961 z m 367 683 b 461 864 392 707 461 768 b 414 965 461 913 438 950 l 301 947 b 340 856 319 931 340 896 b 299 733 340 804 317 758 z "},"ļ":{"ha":313,"x_min":0,"x_max":0,"o":"m 64 0 l 246 0 l 246 961 l 64 961 z m 65 -311 b 256 -158 169 -301 256 -256 b 204 -57 256 -106 228 -72 l 72 -74 b 117 -158 90 -92 117 -125 b 36 -231 117 -197 71 -221 z "},"ŀ":{"ha":446,"x_min":0,"x_max":0,"o":"m 64 0 l 246 0 l 246 961 l 64 961 z m 381 490 b 457 576 425 490 457 526 b 381 663 457 628 424 663 b 303 576 339 663 303 626 b 379 490 303 526 338 490 z "},"ń":{"ha":636,"x_min":0,"x_max":0,"o":"m 64 0 l 246 0 l 246 414 b 256 476 246 440 250 463 b 324 538 268 517 293 538 b 390 425 376 538 390 482 l 390 0 l 572 0 l 572 436 b 392 690 572 588 521 690 b 228 601 321 690 263 654 l 225 601 l 215 679 l 58 679 b 64 475 61 614 64 549 z m 353 957 l 257 763 l 371 763 l 511 957 z "},"ň":{"ha":636,"x_min":0,"x_max":0,"o":"m 64 0 l 246 0 l 246 414 b 256 476 246 440 250 463 b 324 538 268 517 293 538 b 390 425 376 538 390 482 l 390 0 l 572 0 l 572 436 b 392 690 572 588 521 690 b 228 601 321 690 263 654 l 225 601 l 215 679 l 58 679 b 64 475 61 614 64 549 z m 382 763 l 501 957 l 375 957 l 319 846 l 317 846 l 260 957 l 136 957 l 254 763 z "},"ņ":{"ha":636,"x_min":0,"x_max":0,"o":"m 64 0 l 246 0 l 246 414 b 256 476 246 440 250 463 b 324 538 268 517 293 538 b 390 425 376 538 390 482 l 390 0 l 572 0 l 572 436 b 392 690 572 588 521 690 b 228 601 321 690 263 654 l 225 601 l 215 679 l 58 679 b 64 475 61 614 64 549 z m 232 -308 b 422 -156 336 -299 422 -253 b 371 -54 422 -103 394 -69 l 239 -71 b 283 -156 257 -89 283 -122 b 203 -228 283 -194 238 -218 z "},"ŏ":{"ha":599,"x_min":0,"x_max":0,"o":"m 301 -11 b 560 342 403 -11 560 60 b 303 690 560 556 464 690 b 40 338 168 690 40 581 b 300 -11 40 118 138 -11 z m 303 128 b 221 340 239 128 221 225 b 301 551 221 435 235 551 b 379 340 364 551 379 435 b 304 128 379 242 364 128 z m 136 943 b 297 768 132 843 199 768 b 465 943 400 768 469 843 l 376 943 b 299 869 376 904 350 869 b 226 943 260 869 231 896 z "},"ő":{"ha":599,"x_min":0,"x_max":0,"o":"m 301 -11 b 560 342 403 -11 560 60 b 303 690 560 556 464 690 b 40 338 168 690 40 581 b 300 -11 40 118 138 -11 z m 303 128 b 221 340 239 128 221 225 b 301 551 221 435 235 551 b 379 340 364 551 379 435 b 304 128 379 242 364 128 z m 253 957 l 153 763 l 246 763 l 385 957 z m 444 957 l 344 763 l 438 763 l 576 957 z "},"ō":{"ha":599,"x_min":0,"x_max":0,"o":"m 301 -11 b 560 342 403 -11 560 60 b 303 690 560 556 464 690 b 40 338 168 690 40 581 b 300 -11 40 118 138 -11 z m 303 128 b 221 340 239 128 221 225 b 301 551 221 435 235 551 b 379 340 364 551 379 435 b 304 128 379 242 364 128 z m 154 911 l 154 807 l 449 807 l 449 911 z "},"ǿ":{"ha":599,"x_min":0,"x_max":0,"o":"m 301 690 b 40 338 168 690 40 581 b 107 88 40 231 63 146 l 54 -6 l 131 -57 l 175 22 b 301 -11 211 1 253 -11 b 558 342 403 -11 558 60 b 493 592 558 447 535 532 l 549 692 l 468 736 l 424 656 b 303 690 388 678 346 690 z m 218 253 l 214 256 b 208 340 210 286 208 315 b 299 551 208 415 219 551 b 354 517 328 551 344 539 z m 379 415 l 385 415 b 390 324 390 383 390 351 b 301 128 390 228 369 128 b 249 164 275 128 257 142 z m 332 957 l 236 763 l 350 763 l 490 957 z "},"ŕ":{"ha":408,"x_min":0,"x_max":0,"o":"m 64 0 l 246 0 l 246 344 b 254 413 246 372 249 397 b 364 508 274 482 325 508 b 403 507 379 508 392 508 l 403 688 b 364 690 393 689 383 690 b 231 579 315 690 260 651 l 225 579 l 215 679 l 58 679 b 64 475 61 615 64 542 z m 243 957 l 147 763 l 261 763 l 401 957 z "},"ř":{"ha":408,"x_min":0,"x_max":0,"o":"m 64 0 l 246 0 l 246 344 b 254 413 246 372 249 397 b 364 508 274 482 325 508 b 403 507 379 508 392 508 l 403 688 b 364 690 393 689 383 690 b 231 579 315 690 260 651 l 225 579 l 215 679 l 58 679 b 64 475 61 615 64 542 z m 282 763 l 401 957 l 275 957 l 219 846 l 217 846 l 160 957 l 36 957 l 154 763 z "},"ŗ":{"ha":408,"x_min":0,"x_max":0,"o":"m 64 0 l 246 0 l 246 344 b 254 413 246 372 249 397 b 364 508 274 482 325 508 b 403 507 379 508 392 508 l 403 688 b 364 690 393 689 383 690 b 231 579 315 690 260 651 l 225 579 l 215 679 l 58 679 b 64 475 61 615 64 542 z m 96 -311 b 286 -158 200 -301 286 -256 b 235 -57 286 -106 258 -72 l 103 -74 b 147 -158 121 -92 147 -125 b 67 -231 147 -197 101 -221 z "},"ś":{"ha":450,"x_min":0,"x_max":0,"o":"m 26 31 b 181 -8 57 7 124 -8 b 421 206 321 -8 421 67 b 283 410 421 282 383 353 b 204 496 219 447 204 465 b 272 553 204 526 225 553 b 367 525 308 553 340 540 l 399 658 b 261 690 363 676 318 690 b 38 475 125 690 38 597 b 175 281 38 413 65 343 b 254 188 235 244 254 224 b 181 128 254 149 228 128 b 58 164 135 128 85 147 z m 260 957 l 164 763 l 278 763 l 418 957 z "},"ş":{"ha":450,"x_min":0,"x_max":0,"o":"m 26 31 b 165 -8 71 1 133 -8 l 168 -8 l 121 -114 b 215 -165 183 -119 215 -139 b 171 -200 215 -192 194 -200 b 99 -181 149 -200 121 -192 l 72 -258 b 176 -283 99 -274 139 -283 b 331 -162 254 -283 331 -251 b 236 -61 331 -107 285 -69 l 268 3 b 421 206 361 29 421 97 b 283 410 421 282 383 353 b 204 496 219 447 204 465 b 271 553 204 526 225 553 b 367 525 308 553 340 540 l 399 658 b 260 690 363 676 318 690 b 38 475 125 690 38 597 b 175 281 38 413 65 343 b 254 188 233 244 254 224 b 181 128 254 149 226 128 b 58 164 135 128 85 147 z "},"ŝ":{"ha":450,"x_min":0,"x_max":0,"o":"m 26 31 b 181 -8 57 7 124 -8 b 421 206 321 -8 421 67 b 283 410 421 282 383 353 b 204 496 219 447 204 465 b 272 553 204 526 225 553 b 367 525 308 553 340 540 l 399 658 b 261 690 363 676 318 690 b 38 475 125 690 38 597 b 175 281 38 413 65 343 b 254 188 235 244 254 224 b 181 128 254 149 228 128 b 58 164 135 128 85 147 z m 163 957 l 43 763 l 169 763 l 224 874 l 226 874 l 283 763 l 407 763 l 289 957 z "},"ș":{"ha":450,"x_min":0,"x_max":0,"o":"m 26 31 b 181 -8 57 7 124 -8 b 421 206 321 -8 421 67 b 283 410 421 282 383 353 b 204 496 219 447 204 465 b 272 553 204 526 225 553 b 367 525 308 553 340 540 l 399 658 b 261 690 363 676 318 690 b 38 475 125 690 38 597 b 175 281 38 413 65 343 b 254 188 235 244 254 224 b 181 128 254 149 228 128 b 58 164 135 128 85 147 z m 125 -311 b 315 -158 229 -301 315 -256 b 264 -57 315 -106 288 -72 l 132 -74 b 176 -158 150 -92 176 -125 b 96 -231 176 -197 131 -221 z "},"ŧ":{"ha":432,"x_min":0,"x_max":0,"o":"m 411 550 l 411 679 l 278 679 l 278 856 l 96 799 l 96 679 l 15 679 l 15 550 l 96 550 l 96 453 l 18 453 l 18 339 l 96 339 l 96 229 b 153 35 96 122 117 71 b 285 -8 186 4 232 -8 b 396 4 332 -8 371 -3 l 394 146 b 346 142 378 143 364 142 b 278 240 311 142 278 161 l 278 339 l 381 339 l 381 453 l 278 453 l 278 550 z "},"ť":{"ha":446,"x_min":0,"x_max":0,"o":"m 96 799 l 96 679 l 15 679 l 15 550 l 96 550 l 96 229 b 153 35 96 122 117 71 b 285 -8 186 4 232 -8 b 396 4 332 -8 371 -3 l 394 146 b 347 142 379 143 365 142 b 278 240 311 142 278 161 l 278 550 l 411 550 l 411 679 l 278 679 l 278 856 z m 443 754 b 544 921 471 774 544 832 b 497 1015 544 972 518 1001 l 375 999 b 406 913 389 983 406 951 b 364 800 406 867 385 822 z "},"ţ":{"ha":432,"x_min":0,"x_max":0,"o":"m 96 799 l 96 679 l 15 679 l 15 550 l 96 550 l 96 229 b 153 35 96 122 117 71 b 285 -8 186 4 232 -8 b 396 4 332 -8 371 -3 l 394 146 b 346 142 378 143 364 142 b 278 240 311 142 278 161 l 278 550 l 411 550 l 411 679 l 278 679 l 278 856 z m 135 -311 b 325 -158 239 -301 325 -256 b 274 -57 325 -106 297 -72 l 142 -74 b 186 -158 160 -92 186 -125 b 106 -231 186 -197 140 -221 z "},"ŭ":{"ha":628,"x_min":0,"x_max":0,"o":"m 561 679 l 379 679 l 379 246 b 368 188 379 222 375 201 b 308 142 360 165 340 142 b 240 288 258 142 240 199 l 240 679 l 58 679 l 58 268 b 239 -11 58 85 110 -11 b 397 72 310 -11 365 26 l 400 72 l 410 0 l 567 0 b 561 207 564 64 561 135 z m 150 943 b 311 768 146 843 213 768 b 479 943 414 768 483 843 l 390 943 b 313 869 390 904 364 869 b 240 943 274 869 244 896 z "},"ű":{"ha":628,"x_min":0,"x_max":0,"o":"m 561 679 l 379 679 l 379 246 b 368 188 379 222 375 201 b 308 142 360 165 340 142 b 240 288 258 142 240 199 l 240 679 l 58 679 l 58 268 b 239 -11 58 85 110 -11 b 397 72 310 -11 365 26 l 400 72 l 410 0 l 567 0 b 561 207 564 64 561 135 z m 268 957 l 168 763 l 261 763 l 400 957 z m 460 957 l 360 763 l 453 763 l 592 957 z "},"ū":{"ha":628,"x_min":0,"x_max":0,"o":"m 561 679 l 379 679 l 379 246 b 368 188 379 222 375 201 b 308 142 360 165 340 142 b 240 288 258 142 240 199 l 240 679 l 58 679 l 58 268 b 239 -11 58 85 110 -11 b 397 72 310 -11 365 26 l 400 72 l 410 0 l 567 0 b 561 207 564 64 561 135 z m 168 911 l 168 807 l 463 807 l 463 911 z "},"ų":{"ha":628,"x_min":0,"x_max":0,"o":"m 561 679 l 379 679 l 379 246 b 368 188 379 222 375 201 b 308 142 360 165 340 142 b 240 288 258 142 240 199 l 240 679 l 58 679 l 58 268 b 239 -11 58 85 110 -11 b 397 72 310 -11 365 26 l 400 72 l 410 0 b 361 -154 396 -26 361 -86 b 496 -287 361 -233 406 -287 b 618 -253 532 -287 578 -282 l 596 -161 b 542 -169 583 -167 567 -169 b 486 -111 511 -169 486 -144 b 521 0 486 -74 501 -33 l 568 0 b 561 208 564 63 561 135 z "},"ů":{"ha":628,"x_min":0,"x_max":0,"o":"m 561 679 l 379 679 l 379 246 b 368 188 379 222 375 201 b 308 142 360 165 340 142 b 240 288 258 142 240 199 l 240 679 l 58 679 l 58 268 b 239 -11 58 85 110 -11 b 397 72 310 -11 365 26 l 400 72 l 410 0 l 567 0 b 561 207 564 64 561 135 z m 315 1001 b 172 871 218 1001 172 943 b 315 749 172 803 221 749 b 457 875 406 749 457 804 b 317 1001 457 949 410 1001 z m 314 942 b 371 875 361 942 371 906 b 314 808 371 846 358 808 b 258 872 271 808 258 849 b 313 942 258 903 271 942 z "},"ũ":{"ha":628,"x_min":0,"x_max":0,"o":"m 561 679 l 379 679 l 379 246 b 368 188 379 222 375 201 b 308 142 360 165 340 142 b 240 288 258 142 240 199 l 240 679 l 58 679 l 58 268 b 239 -11 58 85 110 -11 b 397 72 310 -11 365 26 l 400 72 l 410 0 l 567 0 b 561 207 564 64 561 135 z m 228 774 b 260 828 228 808 242 828 b 314 804 279 828 292 815 b 388 782 333 794 361 782 b 485 940 446 782 485 829 l 404 940 b 375 889 404 896 392 889 b 324 911 356 889 340 900 b 243 936 300 922 278 936 b 144 774 176 936 144 863 z "},"ẃ":{"ha":856,"x_min":0,"x_max":0,"o":"m 7 679 l 174 0 l 331 0 l 388 236 b 428 449 403 300 418 371 l 431 449 b 465 238 439 371 451 300 l 515 0 l 671 0 l 846 679 l 665 679 l 624 389 b 600 181 614 315 606 244 l 597 181 b 561 390 589 247 576 314 l 504 679 l 364 679 l 304 383 b 267 181 290 318 276 244 l 263 181 b 239 386 257 244 247 313 l 203 679 z m 463 957 l 367 763 l 481 763 l 621 957 z "},"ŵ":{"ha":856,"x_min":0,"x_max":0,"o":"m 7 679 l 174 0 l 331 0 l 388 236 b 428 449 403 300 418 371 l 431 449 b 465 238 439 371 451 300 l 515 0 l 671 0 l 846 679 l 665 679 l 624 389 b 600 181 614 315 606 244 l 597 181 b 561 390 589 247 576 314 l 504 679 l 364 679 l 304 383 b 267 181 290 318 276 244 l 263 181 b 239 386 257 244 247 313 l 203 679 z m 365 957 l 246 763 l 372 763 l 426 874 l 429 874 l 486 763 l 610 763 l 492 957 z "},"ẅ":{"ha":856,"x_min":0,"x_max":0,"o":"m 7 679 l 174 0 l 331 0 l 388 236 b 428 449 403 300 418 371 l 431 449 b 465 238 439 371 451 300 l 515 0 l 671 0 l 846 679 l 665 679 l 624 389 b 600 181 614 315 606 244 l 597 181 b 561 390 589 247 576 314 l 504 679 l 364 679 l 304 383 b 267 181 290 318 276 244 l 263 181 b 239 386 257 244 247 313 l 203 679 z m 304 778 b 388 867 353 778 388 815 b 304 956 388 919 351 956 b 221 867 260 956 221 918 b 303 778 221 815 258 778 z m 550 778 b 633 867 599 778 633 815 b 550 956 633 919 597 956 b 467 867 506 956 467 918 b 549 778 467 815 504 778 z "},"ẁ":{"ha":856,"x_min":0,"x_max":0,"o":"m 7 679 l 174 0 l 331 0 l 388 236 b 428 449 403 300 418 371 l 431 449 b 465 238 439 371 451 300 l 515 0 l 671 0 l 846 679 l 665 679 l 624 389 b 600 181 614 315 606 244 l 597 181 b 561 390 589 247 576 314 l 504 679 l 364 679 l 304 383 b 267 181 290 318 276 244 l 263 181 b 239 386 257 244 247 313 l 203 679 z m 258 957 l 399 763 l 513 763 l 417 957 z "},"ŷ":{"ha":543,"x_min":0,"x_max":0,"o":"m 7 679 l 193 50 b 199 25 196 42 199 33 b 189 -4 199 15 194 7 b 132 -86 176 -33 157 -62 b 43 -142 106 -111 74 -131 l 97 -299 b 251 -192 126 -292 194 -260 b 403 154 325 -106 369 26 l 542 679 l 364 679 l 307 322 b 292 211 301 285 296 246 l 289 211 b 269 325 283 249 276 285 l 203 679 z m 214 957 l 94 763 l 221 763 l 275 874 l 278 874 l 335 763 l 458 763 l 340 957 z "},"ỳ":{"ha":543,"x_min":0,"x_max":0,"o":"m 7 679 l 193 50 b 199 25 196 42 199 33 b 189 -4 199 15 194 7 b 132 -86 176 -33 157 -62 b 43 -142 106 -111 74 -131 l 97 -299 b 251 -192 126 -292 194 -260 b 403 154 325 -106 369 26 l 542 679 l 364 679 l 307 322 b 292 211 301 285 296 246 l 289 211 b 269 325 283 249 276 285 l 203 679 z m 104 957 l 244 763 l 358 763 l 263 957 z "},"ź":{"ha":488,"x_min":0,"x_max":0,"o":"m 25 0 l 460 0 l 460 149 l 226 149 l 226 153 b 290 264 242 181 268 224 l 453 556 l 453 679 l 46 679 l 46 531 l 256 531 l 256 526 b 192 417 242 500 214 454 l 25 114 z m 282 957 l 186 763 l 300 763 l 440 957 z "},"ż":{"ha":488,"x_min":0,"x_max":0,"o":"m 25 0 l 460 0 l 460 149 l 226 149 l 226 153 b 290 264 242 181 268 224 l 453 556 l 453 679 l 46 679 l 46 531 l 256 531 l 256 526 b 192 417 242 500 214 454 l 25 114 z m 246 778 b 329 867 294 778 329 815 b 246 956 329 919 293 956 b 163 867 201 956 163 918 b 244 778 163 815 200 778 z "},"ĸ":{"ha":574,"x_min":0,"x_max":0,"o":"m 244 679 l 63 679 l 63 0 l 244 0 l 244 221 l 275 279 l 372 0 l 575 0 l 400 394 l 565 679 l 369 679 l 281 476 b 247 382 269 449 260 421 l 244 382 z "},"ŉ":{"ha":636,"x_min":0,"x_max":0,"o":"m 64 0 l 246 0 l 246 414 b 256 476 246 440 250 463 b 324 538 268 517 293 538 b 390 425 376 538 390 482 l 390 0 l 572 0 l 572 436 b 392 690 572 588 521 690 b 228 601 321 690 263 654 l 225 601 l 215 679 l 58 679 b 64 475 61 614 64 549 z m 74 722 b 168 883 99 743 168 799 b 121 976 168 929 144 963 l -3 960 b 36 876 15 946 36 914 b -6 767 36 832 13 789 z "},"΄":{"ha":433,"x_min":0,"x_max":0,"o":"m 167 957 l 124 763 l 226 763 l 313 957 z "},"΅":{"ha":597,"x_min":0,"x_max":0,"o":"m 239 989 l 224 765 l 321 765 l 379 989 z m 113 781 b 188 863 154 781 188 817 b 113 943 188 908 153 943 b 35 863 72 943 35 908 b 111 781 35 817 71 781 z m 468 781 b 544 863 511 781 544 817 b 468 943 544 908 510 943 b 392 863 429 943 392 908 b 467 781 392 817 428 781 z "},"Α":{"ha":636,"x_min":0,"x_max":0,"o":"m 397 214 l 436 0 l 614 0 l 432 936 l 214 936 l 11 0 l 188 0 l 229 214 z m 247 356 l 282 551 b 315 764 292 606 306 701 l 319 764 b 350 551 328 703 340 608 l 381 356 z "},"Β":{"ha":671,"x_min":0,"x_max":0,"o":"m 81 3 b 250 -7 122 -3 181 -7 b 557 88 407 -7 501 26 b 626 271 601 133 626 194 b 461 494 626 375 569 464 l 461 500 b 596 703 553 540 596 621 b 525 874 596 769 575 832 b 288 940 460 929 375 940 b 81 922 210 940 136 935 z m 263 799 b 311 804 274 803 290 804 b 417 682 385 804 417 751 b 301 551 417 607 367 551 l 263 551 z m 263 417 l 301 417 b 438 274 374 417 438 368 b 303 133 438 179 378 133 b 263 136 288 133 274 133 z "},"Γ":{"ha":501,"x_min":0,"x_max":0,"o":"m 81 936 l 81 0 l 263 0 l 263 782 l 492 782 l 492 936 z "},"Δ":{"ha":650,"x_min":0,"x_max":0,"o":"m 15 0 l 624 0 l 624 96 l 436 936 l 218 936 l 15 90 z m 196 161 l 271 496 b 321 764 288 578 311 701 l 325 764 b 372 486 333 701 356 565 l 442 161 z "},"Ε":{"ha":547,"x_min":0,"x_max":0,"o":"m 475 563 l 263 563 l 263 778 l 488 778 l 488 936 l 81 936 l 81 0 l 503 0 l 503 158 l 263 158 l 263 411 l 475 411 z "},"Ζ":{"ha":538,"x_min":0,"x_max":0,"o":"m 15 0 l 515 0 l 515 158 l 233 158 l 233 163 l 517 803 l 517 936 l 43 936 l 43 778 l 311 778 l 311 774 l 15 106 z "},"Η":{"ha":715,"x_min":0,"x_max":0,"o":"m 81 936 l 81 0 l 263 0 l 263 392 l 453 392 l 453 0 l 635 0 l 635 936 l 453 936 l 453 561 l 263 561 l 263 936 z "},"Θ":{"ha":679,"x_min":0,"x_max":0,"o":"m 338 -11 b 644 485 515 -11 644 131 b 350 947 644 699 578 947 b 35 469 139 947 35 726 b 336 -11 35 213 122 -11 z m 342 144 b 221 472 257 144 221 283 b 342 792 221 644 257 792 b 458 475 429 792 458 644 b 343 144 458 283 425 144 z m 261 560 l 261 390 l 418 390 l 418 560 z "},"Ι":{"ha":344,"x_min":0,"x_max":0,"o":"m 81 936 l 81 0 l 263 0 l 263 936 z "},"Κ":{"ha":638,"x_min":0,"x_max":0,"o":"m 81 0 l 263 0 l 263 311 l 304 388 l 440 0 l 640 0 l 426 529 l 638 936 l 436 936 l 311 636 b 267 515 296 596 282 554 l 263 515 l 263 936 l 81 936 z "},"Λ":{"ha":631,"x_min":0,"x_max":0,"o":"m 619 0 l 419 936 l 214 936 l 10 0 l 197 0 l 271 438 b 308 731 285 533 297 631 l 313 731 b 356 442 325 632 340 535 l 431 0 z "},"Μ":{"ha":885,"x_min":0,"x_max":0,"o":"m 669 0 l 832 0 l 775 936 l 583 936 l 508 597 b 450 269 485 479 464 374 l 446 269 b 381 597 429 375 406 479 l 306 936 l 113 936 l 46 0 l 201 0 l 218 325 b 232 638 222 418 229 536 l 235 638 b 293 344 250 536 275 419 l 371 15 l 499 15 l 581 350 b 640 638 599 422 624 538 l 643 638 b 653 328 642 536 647 417 z "},"Ν":{"ha":717,"x_min":0,"x_max":0,"o":"m 240 0 l 240 211 b 228 638 240 399 233 543 l 231 638 b 326 357 253 554 294 435 l 469 0 l 636 0 l 636 936 l 476 936 l 476 729 b 494 296 476 557 489 393 l 492 296 b 392 568 465 376 421 497 l 247 936 l 81 936 l 81 0 z "},"Ξ":{"ha":581,"x_min":0,"x_max":0,"o":"m 54 936 l 54 778 l 525 778 l 525 936 z m 78 556 l 78 400 l 499 400 l 499 556 z m 46 158 l 46 0 l 533 0 l 533 158 z "},"Ο":{"ha":668,"x_min":0,"x_max":0,"o":"m 332 -11 b 633 485 508 -11 633 132 b 344 947 633 699 569 947 b 35 471 136 947 35 726 b 331 -11 35 214 118 -11 z m 336 147 b 224 472 256 147 221 286 b 336 789 222 642 256 789 b 444 476 419 789 444 642 b 338 147 444 286 415 147 z "},"Π":{"ha":711,"x_min":0,"x_max":0,"o":"m 631 936 l 81 936 l 81 0 l 263 0 l 263 767 l 449 767 l 449 0 l 631 0 z "},"Ρ":{"ha":635,"x_min":0,"x_max":0,"o":"m 81 0 l 263 0 l 263 349 b 299 347 275 347 286 347 b 526 438 375 347 468 375 b 606 663 575 489 606 561 b 525 868 606 742 581 818 b 271 940 465 924 379 940 b 81 922 201 940 132 933 z m 263 786 b 307 793 274 790 290 793 b 425 647 392 793 425 729 b 293 494 425 560 385 494 b 263 496 282 494 272 494 z "},"Σ":{"ha":582,"x_min":0,"x_max":0,"o":"m 226 163 l 403 482 l 244 774 l 244 778 l 524 778 l 524 936 l 25 936 l 25 821 l 221 472 l 21 111 l 21 0 l 544 0 l 544 158 l 226 158 z "},"Τ":{"ha":546,"x_min":0,"x_max":0,"o":"m 182 0 l 364 0 l 364 768 l 531 768 l 531 936 l 17 936 l 17 768 l 182 768 z "},"Υ":{"ha":642,"x_min":0,"x_max":0,"o":"m 1 783 b 218 367 132 743 200 563 b 225 206 222 306 225 265 l 225 0 l 407 0 l 407 206 b 419 371 407 258 411 308 b 642 778 444 551 529 733 l 606 944 b 465 856 592 943 514 910 b 331 528 399 783 344 669 l 322 528 b 181 878 311 679 261 807 b 36 944 129 924 58 944 z "},"Φ":{"ha":811,"x_min":0,"x_max":0,"o":"m 485 43 b 782 481 657 74 782 224 b 485 899 782 725 654 871 l 485 967 l 324 967 l 324 899 b 28 472 179 871 28 738 b 324 43 28 213 157 74 l 324 -31 l 485 -31 z m 325 181 b 210 468 268 200 210 303 b 325 763 210 647 269 742 z m 483 763 b 600 475 536 747 600 660 b 483 181 600 297 544 200 z "},"Χ":{"ha":565,"x_min":0,"x_max":0,"o":"m 571 0 l 386 471 l 561 936 l 381 936 l 332 765 b 292 613 318 714 307 669 l 289 613 b 247 763 275 665 261 714 l 192 936 l 3 936 l 171 479 l -4 0 l 175 0 l 226 169 b 269 339 240 222 254 279 l 274 339 b 324 172 289 279 306 226 l 382 0 z "},"Ψ":{"ha":797,"x_min":0,"x_max":0,"o":"m 753 936 l 588 936 l 588 703 b 476 411 588 508 554 421 l 476 936 l 321 936 l 321 411 b 210 644 242 425 210 486 l 210 936 l 44 936 l 44 643 b 318 271 44 389 151 297 l 318 0 l 479 0 l 479 271 b 753 704 643 297 753 419 z "},"Ω":{"ha":739,"x_min":0,"x_max":0,"o":"m 572 153 b 685 539 631 239 685 382 b 379 947 685 731 601 947 b 54 526 176 947 54 758 b 165 153 54 372 108 242 l 165 149 l 38 149 l 38 0 l 333 0 l 333 111 b 243 493 296 165 243 318 b 372 789 243 658 289 789 b 496 497 457 789 494 649 b 406 111 496 306 446 168 l 406 0 l 703 0 l 703 149 l 572 149 z "},"Ά":{"ha":669,"x_min":0,"x_max":0,"o":"m 431 214 l 469 0 l 647 0 l 465 936 l 247 936 l 44 0 l 221 0 l 263 214 z m 281 356 l 315 551 b 349 764 325 606 339 701 l 353 764 b 383 551 361 703 374 608 l 414 356 z m 19 936 l 18 706 l 111 706 l 158 936 z "},"Έ":{"ha":661,"x_min":0,"x_max":0,"o":"m 589 563 l 376 563 l 376 778 l 601 778 l 601 936 l 194 936 l 194 0 l 617 0 l 617 158 l 376 158 l 376 411 l 589 411 z m 1 936 l 1 706 l 94 706 l 142 936 z "},"Ή":{"ha":831,"x_min":0,"x_max":0,"o":"m 196 936 l 196 0 l 378 0 l 378 392 l 568 392 l 568 0 l 750 0 l 750 936 l 568 936 l 568 561 l 378 561 l 378 936 z m 3 936 l 1 706 l 94 706 l 142 936 z "},"Ί":{"ha":457,"x_min":0,"x_max":0,"o":"m 194 936 l 194 0 l 376 0 l 376 936 z m 1 936 l 1 706 l 94 706 l 142 936 z "},"Ϊ":{"ha":344,"x_min":0,"x_max":0,"o":"m 51 986 b 132 1072 99 986 132 1022 b 51 1158 132 1124 97 1158 b -31 1072 7 1158 -31 1122 b 50 986 -31 1022 6 986 z m 293 986 b 374 1072 340 986 374 1022 b 293 1158 374 1124 339 1158 b 211 1072 249 1158 211 1122 b 292 986 211 1022 247 986 z m 81 936 l 81 0 l 263 0 l 263 936 z "},"Ό":{"ha":760,"x_min":0,"x_max":0,"o":"m 424 -11 b 725 485 600 -11 725 132 b 436 947 725 699 661 947 b 126 471 228 947 126 726 b 422 -11 126 214 210 -11 z m 428 147 b 315 472 347 147 313 286 b 428 789 314 642 347 789 b 536 476 511 789 536 642 b 429 147 536 286 507 147 z m 1 936 l 1 706 l 94 706 l 142 936 z "},"Ύ":{"ha":814,"x_min":0,"x_max":0,"o":"m 174 783 b 390 367 304 743 372 563 b 397 206 394 306 397 265 l 397 0 l 579 0 l 579 206 b 592 371 579 258 583 308 b 814 778 617 551 701 733 l 778 944 b 638 856 764 943 686 910 b 503 528 571 783 517 669 l 494 528 b 353 878 483 679 433 807 b 208 944 301 924 231 944 z m 1 936 l 1 706 l 94 706 l 142 936 z "},"Ϋ":{"ha":642,"x_min":0,"x_max":0,"o":"m 210 961 b 290 1047 257 961 290 997 b 210 1133 290 1099 256 1133 b 128 1047 165 1133 128 1097 b 208 961 128 997 164 961 z m 451 961 b 532 1047 499 961 532 997 b 451 1133 532 1099 497 1133 b 369 1047 407 1133 369 1097 b 450 961 369 997 406 961 z m 1 783 b 218 367 132 743 200 563 b 225 206 222 306 225 265 l 225 0 l 407 0 l 407 206 b 419 371 407 258 411 308 b 642 778 444 551 529 733 l 606 944 b 465 856 592 943 514 910 b 331 528 399 783 344 669 l 322 528 b 181 878 311 679 261 807 b 36 944 129 924 58 944 z "},"Ώ":{"ha":813,"x_min":0,"x_max":0,"o":"m 647 153 b 760 539 706 239 760 382 b 454 947 760 731 676 947 b 129 526 251 947 129 758 b 240 153 129 372 183 242 l 240 149 l 113 149 l 113 0 l 408 0 l 408 111 b 318 493 371 165 318 318 b 447 789 318 658 364 789 b 571 497 532 789 569 649 b 481 111 571 306 521 168 l 481 0 l 778 0 l 778 149 l 647 149 z m 1 936 l 1 706 l 94 706 l 142 936 z "},"α":{"ha":619,"x_min":0,"x_max":0,"o":"m 428 679 b 410 601 422 657 414 625 l 404 601 b 279 690 383 658 338 690 b 40 317 161 690 40 560 b 263 -11 40 147 113 -11 b 413 92 336 -11 389 38 l 417 92 b 538 -11 432 18 474 -11 b 583 -4 550 -11 568 -10 l 599 125 b 546 199 561 125 546 142 b 564 679 546 374 557 631 z m 221 336 b 306 542 221 443 253 542 b 368 435 339 542 364 503 b 372 339 371 407 372 382 b 365 232 372 296 369 267 b 300 138 356 168 329 138 b 221 335 253 138 221 215 z "},"β":{"ha":631,"x_min":0,"x_max":0,"o":"m 243 35 b 367 -11 275 3 322 -11 b 592 265 501 -11 592 103 b 444 514 592 399 521 488 l 444 521 b 544 721 496 550 544 622 b 317 972 544 861 464 972 b 143 904 240 972 185 947 b 61 586 85 843 61 771 l 61 -22 b 90 -267 61 -154 74 -232 l 258 -267 b 240 -24 249 -224 240 -122 l 240 35 z m 240 632 b 313 824 240 764 264 824 b 378 713 357 824 378 765 b 304 569 378 635 349 583 b 288 567 300 568 294 567 l 288 435 b 313 432 294 435 303 435 b 413 282 365 424 413 363 b 321 138 413 192 374 138 b 240 183 290 138 261 150 z "},"γ":{"ha":558,"x_min":0,"x_max":0,"o":"m 353 -267 b 347 13 351 -172 351 -78 b 356 38 347 24 351 29 b 528 624 471 261 528 472 b 524 679 528 646 526 664 l 358 679 b 360 607 360 657 360 635 b 293 197 361 471 325 307 l 288 197 b 179 679 263 408 211 593 l -14 679 b 142 188 25 581 94 404 b 175 -267 174 49 176 -47 z "},"δ":{"ha":610,"x_min":0,"x_max":0,"o":"m 531 918 b 343 972 500 944 438 972 b 135 808 207 972 135 893 b 196 665 135 753 174 696 l 214 642 l 214 636 b 40 317 135 588 40 478 b 301 -11 40 125 143 -11 b 569 328 426 -11 569 90 b 456 613 569 444 517 539 l 378 707 b 318 799 344 747 318 778 b 374 836 318 818 333 836 b 492 801 422 836 468 815 z m 332 499 b 390 308 372 447 390 383 b 307 128 390 219 367 128 b 222 313 265 128 222 194 b 300 539 222 426 250 494 z "},"ε":{"ha":513,"x_min":0,"x_max":0,"o":"m 178 358 b 39 193 113 344 39 279 b 289 -11 39 49 157 -11 b 485 31 363 -11 436 1 l 468 161 b 332 131 450 150 392 131 b 226 208 276 131 226 158 b 376 293 226 269 297 290 l 403 293 l 403 417 l 382 417 b 242 485 314 417 242 432 b 336 551 242 524 276 551 b 440 531 379 551 414 543 l 468 656 b 321 690 438 676 381 690 b 68 506 146 690 68 599 b 178 365 68 436 115 381 z "},"ζ":{"ha":485,"x_min":0,"x_max":0,"o":"m 392 -193 b 481 74 424 -154 481 -49 b 468 90 481 81 475 89 b 335 128 425 99 374 110 b 222 336 261 160 222 217 b 489 829 222 521 363 751 l 464 954 l 288 954 b 115 958 221 954 156 956 l 100 832 b 232 818 135 822 189 818 l 276 818 l 276 813 b 40 289 143 672 40 476 b 183 19 40 147 107 63 b 311 -29 221 -3 267 -18 b 272 -156 307 -62 296 -108 z "},"η":{"ha":636,"x_min":0,"x_max":0,"o":"m 225 601 b 203 679 222 631 211 661 l 44 679 b 64 475 56 642 64 558 l 64 0 l 246 0 l 246 414 b 256 476 246 440 250 463 b 324 538 268 517 293 538 b 390 425 376 538 390 482 l 390 -22 b 417 -267 390 -154 399 -232 l 585 -267 b 572 -24 579 -224 572 -122 l 572 436 b 392 690 572 588 521 690 b 228 601 321 690 263 654 z "},"θ":{"ha":599,"x_min":0,"x_max":0,"o":"m 300 -11 b 558 488 429 -11 558 81 b 303 972 558 833 453 972 b 40 488 179 972 40 854 b 299 -11 40 118 149 -11 z m 215 563 b 299 839 215 758 256 839 b 383 563 346 839 382 758 z m 385 418 b 300 122 385 207 351 122 b 214 418 253 122 214 206 z "},"ι":{"ha":324,"x_min":0,"x_max":0,"o":"m 246 679 l 64 679 l 64 178 b 221 -11 64 13 146 -11 b 289 -3 243 -11 269 -8 l 301 125 b 246 194 265 124 246 138 z "},"κ":{"ha":596,"x_min":0,"x_max":0,"o":"m 393 369 b 585 674 467 481 529 582 l 585 679 l 393 679 b 251 390 364 621 289 460 l 246 390 l 246 564 b 231 679 246 631 240 663 l 53 679 b 64 508 61 643 64 582 l 64 0 l 246 0 l 246 283 l 256 283 b 333 144 286 283 304 231 l 381 0 l 579 0 l 524 139 b 393 364 492 226 456 338 z "},"λ":{"ha":540,"x_min":0,"x_max":0,"o":"m 354 0 l 536 0 l 360 644 b 107 953 317 801 261 953 b 61 949 93 953 72 950 l 46 799 b 64 800 53 800 60 800 b 172 694 100 800 146 774 b 181 658 175 682 181 667 b 178 632 181 649 181 642 l 4 0 l 185 0 l 240 294 b 261 429 249 342 256 385 l 267 429 b 292 293 278 365 285 326 z "},"μ":{"ha":632,"x_min":0,"x_max":0,"o":"m 421 68 b 540 -11 443 18 476 -11 b 596 -3 563 -11 583 -8 l 613 124 b 565 196 576 124 565 140 l 565 679 l 383 679 l 383 244 b 374 183 383 222 381 197 b 311 135 364 161 344 135 b 246 250 268 135 246 174 l 246 679 l 64 679 l 64 0 b 86 -267 64 -143 74 -232 l 253 -267 b 238 -24 244 -224 238 -122 l 238 31 b 313 -1 257 7 283 -1 b 417 68 361 -1 400 32 z "},"ν":{"ha":540,"x_min":0,"x_max":0,"o":"m -1 679 l 163 0 l 328 0 b 511 628 417 196 511 460 b 507 679 511 643 510 661 l 344 679 b 344 632 344 667 344 647 b 272 189 343 494 303 297 l 267 189 b 238 375 257 256 249 315 l 186 679 z "},"ξ":{"ha":513,"x_min":0,"x_max":0,"o":"m 439 583 b 417 585 432 583 424 585 b 271 718 344 590 271 625 b 386 832 271 767 306 832 b 474 814 424 832 453 824 l 494 946 b 364 972 463 961 419 972 b 92 725 194 972 92 867 b 221 531 92 636 143 563 l 221 522 b 39 267 125 490 39 404 b 333 -28 39 71 193 6 b 294 -156 329 -61 318 -108 l 417 -193 b 507 72 446 -153 507 -42 b 486 89 507 81 501 86 b 344 129 421 103 385 114 b 224 283 281 154 224 199 b 417 446 224 392 301 444 l 439 446 z "},"ο":{"ha":599,"x_min":0,"x_max":0,"o":"m 301 -11 b 560 342 403 -11 560 60 b 303 690 560 556 464 690 b 40 338 168 690 40 581 b 300 -11 40 118 138 -11 z m 303 128 b 221 340 239 128 221 225 b 301 551 221 435 235 551 b 379 340 364 551 379 435 b 304 128 379 242 364 128 z "},"π":{"ha":654,"x_min":0,"x_max":0,"o":"m 625 533 l 638 679 l 221 679 b 4 639 110 679 32 660 l 26 528 b 108 533 44 531 72 533 b 44 0 110 394 88 167 l 217 0 b 285 533 264 163 282 403 l 381 533 l 381 163 b 406 0 381 92 389 31 l 576 0 b 561 160 567 38 561 88 l 561 533 z "},"ρ":{"ha":615,"x_min":0,"x_max":0,"o":"m 243 46 b 350 -11 264 15 303 -11 b 576 342 465 -11 576 99 b 319 690 576 528 504 690 b 164 631 264 690 207 669 b 58 314 106 582 58 496 l 58 -22 b 83 -267 60 -154 69 -232 l 254 -267 b 240 -24 249 -224 240 -122 l 240 46 z m 240 344 b 317 535 240 486 271 535 b 396 340 365 535 396 465 b 306 138 396 233 368 138 b 250 183 285 138 263 149 b 240 236 243 196 240 215 z "},"σ":{"ha":608,"x_min":0,"x_max":0,"o":"m 472 567 b 590 556 524 558 567 556 l 597 690 b 467 690 556 690 513 690 l 369 690 b 308 690 350 690 326 690 b 40 338 168 690 40 581 b 299 -11 40 118 136 -11 b 556 342 400 -11 556 64 b 472 563 556 422 525 519 z m 303 128 b 221 340 240 128 221 225 b 301 551 221 435 235 551 b 376 340 357 551 376 435 b 304 128 376 242 361 128 z "},"τ":{"ha":497,"x_min":0,"x_max":0,"o":"m 407 129 b 385 129 400 129 394 129 b 332 225 353 129 332 154 l 332 533 l 472 533 l 486 679 l 169 679 b -4 642 60 679 8 653 l 21 525 b 106 533 39 529 67 533 l 150 533 l 150 210 b 324 -11 150 79 190 -11 b 401 -1 360 -11 383 -7 z "},"υ":{"ha":601,"x_min":0,"x_max":0,"o":"m 353 679 b 381 396 365 635 381 521 b 301 142 381 264 367 142 b 240 235 265 142 240 176 l 240 539 b 226 679 240 608 236 660 l 50 679 b 58 481 57 632 58 558 l 58 233 b 288 -11 58 76 150 -11 b 557 435 503 -11 557 208 b 521 679 557 535 539 625 z "},"φ":{"ha":801,"x_min":0,"x_max":0,"o":"m 211 685 b 39 342 168 663 39 556 b 321 -8 39 96 210 8 l 321 -267 l 486 -267 l 486 -8 b 763 354 607 10 763 122 b 499 688 763 561 633 688 b 321 461 413 688 321 631 l 321 119 b 218 353 258 150 218 235 b 303 604 218 465 256 547 z m 483 507 b 514 554 483 539 496 554 b 586 353 542 554 586 482 b 483 117 586 226 547 135 z "},"χ":{"ha":546,"x_min":0,"x_max":0,"o":"m 7 679 l 178 218 l 3 -260 l 163 -294 l 219 -97 b 256 49 235 -44 246 10 l 261 49 l 369 -294 l 536 -258 l 372 215 l 544 679 l 376 679 l 325 496 b 294 367 313 449 306 413 l 290 367 l 189 679 z "},"ψ":{"ha":797,"x_min":0,"x_max":0,"o":"m 318 -267 l 486 -267 l 486 -11 b 754 440 700 11 754 204 b 713 679 754 539 735 628 l 563 679 b 590 422 575 640 590 536 b 483 118 590 250 557 122 l 483 821 l 321 821 l 321 118 b 219 325 265 128 219 178 l 219 539 b 207 679 219 608 215 660 l 49 679 b 57 500 56 633 57 569 l 57 313 b 318 -11 57 68 194 8 z "},"ω":{"ha":826,"x_min":0,"x_max":0,"o":"m 496 492 l 325 492 l 328 233 b 281 140 329 193 315 140 b 215 343 246 140 215 204 b 306 675 215 485 251 601 l 306 679 l 147 679 b 40 336 99 626 40 503 b 263 -11 40 106 146 -11 b 411 85 335 -11 388 33 l 415 85 b 558 -11 438 33 485 -11 b 786 349 693 -11 786 128 b 685 679 786 501 733 628 l 521 679 l 521 675 b 607 354 576 600 607 482 b 538 140 607 208 575 140 b 492 232 507 140 492 186 z "},"ά":{"ha":621,"x_min":0,"x_max":0,"o":"m 306 953 l 263 758 l 367 758 l 451 953 z m 428 679 b 410 601 422 657 414 625 l 404 601 b 279 690 383 658 338 690 b 40 317 161 690 40 560 b 263 -11 40 147 113 -11 b 413 92 336 -11 389 38 l 417 92 b 538 -11 432 18 474 -11 b 583 -4 550 -11 568 -10 l 599 125 b 546 199 561 125 546 142 b 564 679 546 374 557 631 z m 221 336 b 306 542 221 443 253 542 b 368 435 339 542 364 503 b 372 339 371 407 372 382 b 365 232 372 296 369 267 b 300 138 356 168 329 138 b 221 335 253 138 221 215 z "},"έ":{"ha":513,"x_min":0,"x_max":0,"o":"m 265 953 l 222 758 l 325 758 l 411 953 z m 178 357 b 39 193 111 344 39 279 b 289 -11 39 49 157 -11 b 485 31 363 -11 436 1 l 468 161 b 332 131 450 149 392 131 b 226 208 276 131 226 158 b 376 293 226 269 297 290 l 403 293 l 403 417 l 382 417 b 242 485 314 417 242 432 b 336 551 242 524 276 551 b 440 531 379 551 414 543 l 468 656 b 321 690 438 676 381 690 b 68 506 146 690 68 599 b 178 364 68 435 115 379 z "},"ή":{"ha":636,"x_min":0,"x_max":0,"o":"m 304 953 l 261 758 l 364 758 l 450 953 z m 225 601 b 203 679 222 631 211 661 l 44 679 b 64 475 56 642 64 558 l 64 0 l 246 0 l 246 414 b 256 476 246 440 250 463 b 324 538 268 517 293 538 b 390 425 376 538 390 482 l 390 -22 b 417 -267 390 -154 399 -232 l 585 -267 b 572 -24 579 -224 572 -122 l 572 436 b 392 690 572 588 521 690 b 228 601 321 690 263 654 z "},"ί":{"ha":324,"x_min":0,"x_max":0,"o":"m 140 960 l 97 765 l 211 765 l 296 960 z m 246 679 l 64 679 l 64 178 b 221 -11 64 13 146 -11 b 289 -3 243 -11 269 -8 l 301 125 b 246 194 265 124 246 138 z "},"ϊ":{"ha":324,"x_min":0,"x_max":0,"o":"m 35 772 b 119 863 83 772 119 810 b 35 953 119 917 82 953 b -50 863 -11 953 -50 915 b 33 772 -50 810 -12 772 z m 276 772 b 360 863 325 772 360 810 b 276 953 360 917 324 953 b 192 863 231 953 192 915 b 275 772 192 810 229 772 z m 247 679 l 65 679 l 65 178 b 222 -11 65 13 147 -11 b 290 -3 244 -11 271 -8 l 303 125 b 247 194 267 124 247 138 z "},"ό":{"ha":599,"x_min":0,"x_max":0,"o":"m 292 953 l 249 758 l 351 758 l 438 953 z m 301 -11 b 560 342 403 -11 560 60 b 303 690 560 556 464 690 b 40 338 168 690 40 581 b 300 -11 40 118 138 -11 z m 303 128 b 221 340 239 128 221 225 b 301 551 221 435 235 551 b 379 340 364 551 379 435 b 304 128 379 242 364 128 z "},"ύ":{"ha":601,"x_min":0,"x_max":0,"o":"m 282 960 l 240 765 l 354 765 l 439 960 z m 353 679 b 381 396 365 635 381 521 b 301 142 381 264 367 142 b 240 235 265 142 240 176 l 240 539 b 226 679 240 608 236 660 l 50 679 b 58 481 57 632 58 558 l 58 233 b 288 -11 58 76 150 -11 b 557 435 503 -11 557 208 b 521 679 557 535 539 625 z "},"ϋ":{"ha":601,"x_min":0,"x_max":0,"o":"m 172 772 b 256 863 221 772 256 810 b 172 953 256 917 219 953 b 88 863 126 953 88 915 b 171 772 88 810 125 772 z m 414 772 b 497 863 463 772 497 810 b 414 953 497 917 461 953 b 329 863 368 953 329 915 b 413 772 329 810 367 772 z m 353 679 b 381 396 365 635 381 521 b 301 142 381 264 367 142 b 240 235 265 142 240 176 l 240 539 b 226 679 240 608 236 660 l 50 679 b 58 481 57 632 58 558 l 58 233 b 288 -11 58 76 150 -11 b 557 435 503 -11 557 208 b 521 679 557 535 539 625 z "},"ώ":{"ha":826,"x_min":0,"x_max":0,"o":"m 401 953 l 358 758 l 463 758 l 547 953 z m 497 492 l 326 492 l 329 233 b 282 140 331 193 317 140 b 215 343 246 140 215 204 b 307 675 215 485 251 601 l 307 679 l 147 679 b 40 336 99 626 40 503 b 264 -11 40 106 146 -11 b 413 85 336 -11 389 33 l 417 85 b 560 -11 439 33 486 -11 b 788 349 694 -11 788 128 b 686 679 788 501 735 628 l 522 679 l 522 675 b 608 354 578 600 608 482 b 539 140 608 208 576 140 b 493 232 508 140 493 186 z "},"ΐ":{"ha":324,"x_min":0,"x_max":0,"o":"m 247 679 l 65 679 l 65 178 b 222 -11 65 13 147 -11 b 290 -3 244 -11 271 -8 l 303 125 b 247 194 267 124 247 138 z m 119 976 l 106 764 l 197 764 l 256 976 z m -1 779 b 74 860 39 779 74 814 b -1 939 74 906 38 939 b -78 860 -40 939 -78 906 b -3 779 -78 814 -42 779 z m 340 779 b 415 860 382 779 415 814 b 340 939 415 906 381 939 b 265 860 303 939 265 906 b 339 779 265 814 301 779 z "},"ΰ":{"ha":601,"x_min":0,"x_max":0,"o":"m 353 679 b 381 396 365 635 381 521 b 301 142 381 264 367 142 b 240 235 265 142 240 176 l 240 539 b 226 679 240 608 236 660 l 50 679 b 58 481 57 632 58 558 l 58 233 b 288 -11 58 76 150 -11 b 557 435 503 -11 557 208 b 521 679 557 535 539 625 z m 246 971 l 231 758 l 324 758 l 381 971 z m 121 774 b 194 854 161 774 194 808 b 121 932 194 899 160 932 b 44 853 82 932 44 899 b 119 774 44 808 81 774 z m 469 774 b 544 854 511 774 544 808 b 469 932 544 899 510 932 b 394 853 432 932 394 899 b 468 774 394 808 431 774 z "},"ς":{"ha":490,"x_min":0,"x_max":0,"o":"m 474 669 b 376 690 454 682 419 690 b 40 313 164 690 40 513 b 200 8 40 147 121 49 b 301 -31 232 -8 268 -19 b 261 -158 297 -64 286 -111 l 385 -194 b 469 78 414 -156 469 -50 b 461 92 469 85 467 90 b 342 129 408 106 374 115 b 222 324 251 165 222 233 b 383 536 222 440 279 536 b 447 526 401 536 426 533 z "},";":{"ha":346,"x_min":0,"x_max":0,"o":"m 149 -161 b 286 203 200 -61 253 85 l 107 196 b 39 -174 100 86 68 -58 z m 183 403 b 294 525 251 403 294 454 b 185 649 294 600 247 649 b 75 525 125 649 75 594 b 182 403 75 454 122 403 z "},"·":{"ha":346,"x_min":0,"x_max":0,"o":"m 174 307 b 290 439 243 307 290 360 b 174 572 290 522 238 572 b 57 439 113 572 57 517 b 172 307 57 360 110 307 z "},"А":{"ha":636,"x_min":0,"x_max":0,"o":"m 397 214 l 436 0 l 614 0 l 432 936 l 214 936 l 11 0 l 188 0 l 229 214 z m 247 356 l 282 551 b 315 764 292 606 306 701 l 319 764 b 350 551 328 703 340 608 l 381 356 z "},"Б":{"ha":660,"x_min":0,"x_max":0,"o":"m 81 936 l 81 3 b 250 -7 122 -3 181 -7 b 549 93 383 -7 485 26 b 626 306 597 143 626 215 b 536 521 626 400 592 472 b 335 592 486 567 414 592 b 261 585 308 592 288 589 l 261 781 l 557 781 l 557 936 z m 263 440 b 304 444 275 443 289 444 b 401 400 344 444 378 426 b 438 292 425 372 438 335 b 403 183 438 250 425 211 b 303 139 379 156 346 139 b 263 142 288 139 275 139 z "},"В":{"ha":671,"x_min":0,"x_max":0,"o":"m 81 3 b 250 -7 122 -3 181 -7 b 557 88 407 -7 501 26 b 626 271 601 133 626 194 b 461 494 626 375 569 464 l 461 500 b 596 703 553 540 596 621 b 525 874 596 769 575 832 b 288 940 460 929 375 940 b 81 922 210 940 136 935 z m 263 799 b 311 804 274 803 290 804 b 417 682 385 804 417 751 b 301 551 417 607 367 551 l 263 551 z m 263 417 l 301 417 b 438 274 374 417 438 368 b 303 133 438 179 378 133 b 263 136 288 133 274 133 z "},"Г":{"ha":528,"x_min":0,"x_max":0,"o":"m 81 936 l 81 0 l 263 0 l 263 778 l 511 778 l 511 936 z "},"Ґ":{"ha":519,"x_min":0,"x_max":0,"o":"m 81 936 l 81 0 l 263 0 l 263 778 l 504 778 l 518 1106 l 392 1106 l 372 936 z "},"Д":{"ha":747,"x_min":0,"x_max":0,"o":"m 171 936 l 171 700 b 144 374 171 590 164 481 b 81 156 131 297 110 226 l 14 153 l 22 -204 l 160 -204 l 168 0 l 572 0 l 581 -204 l 718 -204 l 726 153 l 653 156 l 653 936 z m 338 778 l 471 778 l 471 158 l 268 158 b 314 353 288 215 304 286 b 338 669 329 454 338 563 z "},"Е":{"ha":547,"x_min":0,"x_max":0,"o":"m 475 563 l 263 563 l 263 778 l 488 778 l 488 936 l 81 936 l 81 0 l 503 0 l 503 158 l 263 158 l 263 411 l 475 411 z "},"Ж":{"ha":969,"x_min":0,"x_max":0,"o":"m 10 936 l 263 508 b 65 242 135 485 90 356 b 3 0 49 161 31 78 l 178 0 b 229 196 200 58 214 136 b 386 397 251 285 282 397 l 401 397 l 401 0 l 567 0 l 567 397 l 582 397 b 739 196 685 397 718 285 b 790 0 754 136 768 58 l 967 0 b 903 242 938 78 921 161 b 707 508 878 356 835 485 l 958 936 l 751 936 l 581 533 l 567 533 l 567 936 l 401 936 l 401 533 l 389 533 l 217 936 z "},"З":{"ha":556,"x_min":0,"x_max":0,"o":"m 61 753 b 192 792 97 774 149 792 b 310 682 269 792 310 747 b 144 557 310 597 226 557 l 125 557 l 125 418 l 153 418 b 336 272 250 418 336 378 b 188 142 336 197 285 142 b 43 179 136 142 83 156 l 15 31 b 206 -11 58 7 128 -11 b 525 267 372 -11 525 88 b 340 501 525 396 450 481 l 340 504 b 499 717 435 528 499 621 b 238 947 499 839 415 947 b 31 893 149 947 71 921 z "},"И":{"ha":713,"x_min":0,"x_max":0,"o":"m 81 936 l 81 0 l 249 0 l 386 357 b 481 632 417 436 458 549 l 483 632 b 471 211 478 538 471 399 l 471 0 l 631 0 l 631 936 l 465 936 l 328 575 b 226 299 300 503 253 379 l 224 299 b 242 729 231 396 242 557 l 242 936 z "},"Й":{"ha":713,"x_min":0,"x_max":0,"o":"m 81 936 l 81 0 l 249 0 l 386 357 b 481 632 417 436 458 549 l 483 632 b 471 211 478 538 471 399 l 471 0 l 631 0 l 631 936 l 465 936 l 328 575 b 226 299 300 503 253 379 l 224 299 b 242 729 231 396 242 557 l 242 936 z m 181 1131 b 356 971 188 1011 261 971 b 535 1131 457 971 521 1011 l 419 1131 b 357 1051 417 1079 394 1051 b 296 1131 314 1051 299 1081 z "},"К":{"ha":631,"x_min":0,"x_max":0,"o":"m 81 936 l 81 0 l 258 0 l 258 397 l 272 397 b 394 217 346 397 371 326 b 446 0 410 144 422 67 l 626 0 b 564 267 600 86 583 175 b 410 504 538 381 506 467 l 624 936 l 424 936 l 272 529 l 258 529 l 258 936 z "},"Л":{"ha":685,"x_min":0,"x_max":0,"o":"m 117 936 l 117 514 b 50 171 117 332 106 228 b -12 139 33 156 10 144 l 26 -15 b 153 31 74 -15 118 3 b 285 531 271 122 285 315 l 285 778 l 422 778 l 422 0 l 604 0 l 604 936 z "},"М":{"ha":885,"x_min":0,"x_max":0,"o":"m 669 0 l 832 0 l 775 936 l 583 936 l 508 597 b 450 269 485 479 464 374 l 446 269 b 381 597 429 375 406 479 l 306 936 l 113 936 l 46 0 l 201 0 l 218 325 b 232 638 222 418 229 536 l 235 638 b 293 344 250 536 275 419 l 371 15 l 499 15 l 581 350 b 640 638 599 422 624 538 l 643 638 b 653 328 642 536 647 417 z "},"Н":{"ha":715,"x_min":0,"x_max":0,"o":"m 81 936 l 81 0 l 263 0 l 263 392 l 453 392 l 453 0 l 635 0 l 635 936 l 453 936 l 453 561 l 263 561 l 263 936 z "},"О":{"ha":668,"x_min":0,"x_max":0,"o":"m 332 -11 b 633 485 508 -11 633 132 b 344 947 633 699 569 947 b 35 471 136 947 35 726 b 331 -11 35 214 118 -11 z m 336 147 b 224 472 256 147 221 286 b 336 789 222 642 256 789 b 444 476 419 789 444 642 b 338 147 444 286 415 147 z "},"П":{"ha":711,"x_min":0,"x_max":0,"o":"m 81 936 l 81 0 l 263 0 l 263 778 l 449 778 l 449 0 l 631 0 l 631 936 z "},"Р":{"ha":635,"x_min":0,"x_max":0,"o":"m 81 0 l 263 0 l 263 349 b 299 347 275 347 286 347 b 526 438 375 347 468 375 b 606 663 575 489 606 561 b 525 868 606 742 581 818 b 271 940 465 924 379 940 b 81 922 201 940 132 933 z m 263 786 b 307 793 274 790 290 793 b 425 647 392 793 425 729 b 293 494 425 560 385 494 b 263 496 282 494 272 494 z "},"С":{"ha":549,"x_min":0,"x_max":0,"o":"m 511 167 b 424 153 489 160 454 153 b 228 464 313 153 228 240 b 424 785 228 696 321 785 b 508 767 464 785 488 776 l 539 919 b 413 944 521 931 476 944 b 35 454 231 944 35 807 b 389 -8 35 188 149 -8 b 529 14 451 -8 503 1 z "},"Т":{"ha":546,"x_min":0,"x_max":0,"o":"m 182 0 l 364 0 l 364 768 l 531 768 l 531 936 l 17 936 l 17 768 l 182 768 z "},"У":{"ha":550,"x_min":0,"x_max":0,"o":"m -15 936 l 203 285 b 204 229 210 264 211 249 b 104 135 190 183 151 135 b 60 139 82 135 67 138 l 51 -10 b 126 -18 71 -15 94 -18 b 315 104 204 -18 272 31 b 432 431 363 183 399 313 l 569 936 l 385 936 l 324 581 b 301 426 314 528 308 471 l 296 426 b 265 576 289 468 279 524 l 181 936 z "},"Ф":{"ha":822,"x_min":0,"x_max":0,"o":"m 331 969 l 331 899 b 35 472 186 878 35 747 b 331 43 35 188 161 68 l 331 -33 l 492 -33 l 492 43 b 788 475 658 68 788 188 b 492 899 788 744 660 876 l 492 969 z m 332 176 b 217 468 275 189 217 275 b 332 767 217 676 276 751 z m 490 767 b 606 475 542 756 606 686 b 490 176 606 264 550 190 z "},"Х":{"ha":565,"x_min":0,"x_max":0,"o":"m 571 0 l 386 471 l 561 936 l 379 936 l 332 765 b 292 613 319 714 307 669 l 289 613 b 247 763 275 665 261 714 l 192 936 l 3 936 l 171 479 l -4 0 l 176 0 l 226 169 b 269 339 240 222 254 279 l 274 339 b 324 172 289 279 306 226 l 382 0 z "},"Ц":{"ha":724,"x_min":0,"x_max":0,"o":"m 81 936 l 81 0 l 550 0 l 557 -204 l 694 -204 l 703 153 l 629 156 l 629 936 l 447 936 l 447 160 l 263 160 l 263 936 z "},"Ч":{"ha":690,"x_min":0,"x_max":0,"o":"m 74 936 l 74 599 b 294 336 74 443 132 336 b 425 368 342 336 383 347 l 431 368 l 431 -11 l 610 -11 l 610 936 l 429 936 l 429 508 b 356 489 413 496 382 489 b 254 619 283 489 254 543 l 254 936 z "},"Ш":{"ha":1000,"x_min":0,"x_max":0,"o":"m 81 936 l 81 0 l 919 0 l 919 936 l 740 936 l 740 158 l 589 158 l 589 936 l 410 936 l 410 158 l 260 158 l 260 936 z "},"Щ":{"ha":1014,"x_min":0,"x_max":0,"o":"m 81 936 l 81 0 l 839 0 l 847 -204 l 985 -204 l 993 153 l 919 156 l 919 936 l 740 936 l 740 160 l 589 160 l 589 936 l 410 936 l 410 160 l 260 160 l 260 936 z "},"Ъ":{"ha":792,"x_min":0,"x_max":0,"o":"m 15 936 l 15 781 l 213 781 l 213 3 b 382 -7 254 -3 313 -7 b 682 93 517 -7 618 26 b 760 306 731 143 760 215 b 467 592 760 478 642 592 b 393 586 440 592 413 589 l 393 936 z m 394 440 b 436 444 407 443 422 444 b 571 292 522 444 571 382 b 435 139 571 208 524 139 b 394 142 421 139 407 139 z "},"Ы":{"ha":946,"x_min":0,"x_max":0,"o":"m 81 936 l 81 3 b 239 -7 122 -3 181 -7 b 536 93 371 -7 472 26 b 614 308 585 144 614 215 b 329 592 614 481 496 592 b 261 585 308 592 283 589 l 261 936 z m 263 440 b 301 444 275 443 289 444 b 425 292 376 444 425 382 b 296 139 425 208 372 139 b 263 142 286 139 275 139 z m 683 936 l 683 0 l 865 0 l 865 936 z "},"Ь":{"ha":660,"x_min":0,"x_max":0,"o":"m 81 936 l 81 3 b 250 -7 122 -3 181 -7 b 549 93 383 -7 485 26 b 626 306 597 144 626 213 b 335 592 626 483 513 592 b 261 586 297 592 276 589 l 261 936 z m 263 440 b 304 444 274 443 289 444 b 438 294 392 444 438 379 b 297 139 438 210 390 139 b 263 142 286 139 275 139 z "},"Э":{"ha":565,"x_min":0,"x_max":0,"o":"m 89 394 l 342 394 b 153 153 333 288 293 153 b 47 176 110 153 76 163 l 14 25 b 178 -11 44 10 106 -11 b 531 464 392 -11 531 176 b 199 947 531 678 467 947 b 25 908 122 947 65 928 l 67 763 b 174 786 97 776 135 786 b 344 556 296 786 343 653 l 89 556 z "},"Ю":{"ha":942,"x_min":0,"x_max":0,"o":"m 81 936 l 81 0 l 260 0 l 260 397 l 343 397 b 621 -11 357 164 444 -11 b 907 485 786 -11 907 132 b 633 947 907 699 843 947 b 344 561 465 947 367 781 l 260 561 l 260 936 z m 626 147 b 522 474 551 147 522 286 b 626 789 522 642 551 789 b 725 476 701 789 725 642 b 628 147 725 286 699 147 z "},"Я":{"ha":647,"x_min":0,"x_max":0,"o":"m 200 0 b 226 82 213 26 221 54 b 289 340 242 153 249 288 b 365 374 307 363 333 374 l 385 374 l 385 0 l 567 0 l 567 922 b 368 940 510 935 438 940 b 131 871 272 940 189 919 b 43 667 79 829 43 764 b 204 443 43 549 107 472 l 204 440 b 138 399 181 432 156 417 b 43 100 68 326 69 194 b 8 0 33 64 21 29 z m 385 515 b 358 514 375 514 371 514 b 228 660 279 514 228 571 b 349 799 228 732 264 799 b 385 794 363 799 375 797 z "},"Ё":{"ha":547,"x_min":0,"x_max":0,"o":"m 475 563 l 263 563 l 263 778 l 488 778 l 488 936 l 81 936 l 81 0 l 503 0 l 503 158 l 263 158 l 263 411 l 475 411 z m 160 993 b 242 1082 204 993 242 1032 b 160 1169 242 1131 204 1169 b 78 1082 117 1169 78 1131 b 158 993 78 1032 115 993 z m 415 993 b 497 1082 460 993 497 1032 b 415 1169 497 1131 460 1169 b 332 1082 371 1169 332 1131 b 414 993 332 1032 369 993 z "},"Ђ":{"ha":747,"x_min":0,"x_max":0,"o":"m 17 936 l 17 768 l 178 768 l 178 0 l 360 0 l 360 443 b 413 457 375 453 393 457 b 497 400 449 457 479 435 b 526 231 517 363 526 313 b 488 29 526 129 511 63 b 404 -32 463 -3 438 -21 l 443 -193 b 638 -56 506 -179 581 -136 b 715 226 696 24 715 124 b 674 468 715 319 708 389 b 468 613 638 551 568 613 b 363 588 429 613 389 601 l 360 588 l 360 768 l 590 768 l 590 936 z "},"Ѓ":{"ha":528,"x_min":0,"x_max":0,"o":"m 81 936 l 81 0 l 263 0 l 263 778 l 511 778 l 511 936 z m 314 1143 l 200 986 l 329 986 l 499 1143 z "},"Є":{"ha":560,"x_min":0,"x_max":0,"o":"m 535 911 b 389 947 507 925 471 947 b 35 458 126 947 35 686 b 381 -11 35 161 175 -11 b 542 26 456 -11 513 11 l 518 179 b 403 154 492 165 436 154 b 224 388 275 154 235 275 l 476 388 l 476 547 l 221 547 b 404 785 226 644 269 785 b 504 754 449 785 485 768 z "},"Ѕ":{"ha":547,"x_min":0,"x_max":0,"o":"m 33 29 b 213 -8 65 11 138 -8 b 521 275 394 -8 521 104 b 351 543 521 374 476 468 b 224 690 251 604 224 633 b 339 786 224 739 261 786 b 457 754 390 786 431 771 l 486 911 b 339 944 460 926 401 944 b 44 669 144 944 44 819 b 221 408 44 585 93 486 b 342 256 300 357 342 324 b 214 150 342 194 299 150 b 60 186 163 150 97 165 z "},"І":{"ha":344,"x_min":0,"x_max":0,"o":"m 81 936 l 81 0 l 263 0 l 263 936 z "},"Ї":{"ha":344,"x_min":0,"x_max":0,"o":"m 81 936 l 81 0 l 263 0 l 263 936 z m 43 993 b 125 1082 88 993 125 1032 b 43 1169 125 1131 88 1169 b -39 1082 0 1169 -39 1131 b 42 993 -39 1032 -1 993 z m 299 993 b 381 1082 343 993 381 1032 b 299 1169 381 1131 343 1169 b 215 1082 254 1169 215 1131 b 297 993 215 1032 253 993 z "},"Ј":{"ha":411,"x_min":0,"x_max":0,"o":"m 160 290 b 63 149 160 171 115 149 b 3 156 39 149 19 151 l -12 3 b 79 -11 7 -6 42 -11 b 342 299 211 -11 342 29 l 342 936 l 160 936 z "},"Љ":{"ha":989,"x_min":0,"x_max":0,"o":"m 114 936 l 114 517 b 49 176 114 333 100 231 b -12 139 33 158 8 144 l 26 -15 b 147 28 67 -15 113 0 b 282 529 265 121 282 315 l 282 778 l 408 778 l 408 3 b 578 -8 450 -4 508 -8 b 878 93 713 -8 814 26 b 956 306 926 144 956 215 b 663 592 956 478 838 592 b 589 586 636 592 608 589 l 589 936 z m 590 440 b 632 444 603 443 618 444 b 767 296 718 444 767 382 b 631 139 767 208 719 139 b 590 142 617 139 603 139 z "},"Њ":{"ha":1011,"x_min":0,"x_max":0,"o":"m 81 936 l 81 0 l 263 0 l 263 411 l 431 411 l 431 3 b 600 -7 472 -3 531 -7 b 899 93 733 -7 835 26 b 976 306 947 144 976 215 b 685 590 976 478 858 590 b 611 585 658 590 632 588 l 611 936 l 431 936 l 431 572 l 263 572 l 263 936 z m 613 439 b 654 443 625 442 640 443 b 788 294 736 443 788 383 b 653 139 788 210 742 139 b 613 142 639 139 625 139 z "},"Ћ":{"ha":774,"x_min":0,"x_max":0,"o":"m 17 936 l 17 768 l 171 768 l 171 0 l 353 0 l 353 439 b 438 471 371 457 403 471 b 499 444 464 471 485 463 b 525 346 519 424 525 389 l 525 0 l 706 0 l 706 344 b 663 544 706 425 693 494 b 507 624 632 594 579 624 b 357 569 449 624 394 600 l 353 569 l 353 768 l 564 768 l 564 936 z "},"Ќ":{"ha":631,"x_min":0,"x_max":0,"o":"m 81 936 l 81 0 l 258 0 l 258 397 l 272 397 b 394 217 346 397 371 326 b 446 0 410 144 422 67 l 626 0 b 564 267 600 86 583 175 b 410 504 538 381 506 467 l 624 936 l 424 936 l 272 529 l 258 529 l 258 936 z m 354 1136 l 240 979 l 369 979 l 539 1136 z "},"Ў":{"ha":550,"x_min":0,"x_max":0,"o":"m -15 936 l 203 285 b 204 229 210 264 211 249 b 104 135 190 183 151 135 b 60 139 82 135 67 138 l 51 -10 b 126 -18 71 -15 94 -18 b 315 104 204 -18 272 31 b 432 431 363 183 399 313 l 569 936 l 385 936 l 324 581 b 301 426 314 528 308 471 l 296 426 b 265 576 289 468 279 524 l 181 936 z m 110 1136 b 285 976 117 1017 190 976 b 464 1136 386 976 450 1017 l 349 1136 b 286 1057 346 1085 324 1057 b 225 1136 243 1057 228 1086 z "},"Џ":{"ha":711,"x_min":0,"x_max":0,"o":"m 81 936 l 81 0 l 272 0 l 281 -215 l 429 -215 l 438 0 l 631 0 l 631 936 l 449 936 l 449 158 l 263 158 l 263 936 z "},"а":{"ha":586,"x_min":0,"x_max":0,"o":"m 522 407 b 282 690 522 546 489 690 b 69 639 186 690 108 660 l 103 515 b 242 556 144 540 188 556 b 338 463 307 556 338 517 l 338 447 b 26 194 183 446 26 374 b 206 -11 26 75 103 -11 b 356 67 265 -11 319 14 l 360 67 l 369 0 l 532 0 b 522 156 525 46 522 101 z m 343 213 b 339 181 343 200 342 189 b 264 122 326 139 294 122 b 199 214 236 122 199 147 b 343 331 199 308 283 329 z "},"б":{"ha":628,"x_min":0,"x_max":0,"o":"m 536 972 b 372 936 504 958 417 946 b 124 776 251 915 174 858 b 46 407 65 682 46 554 b 321 -15 46 218 97 -15 b 589 344 499 -15 589 147 b 368 679 589 567 496 679 b 201 569 292 679 229 629 l 197 569 b 233 692 201 615 214 658 b 418 793 263 742 307 778 b 524 818 457 800 496 806 z m 410 335 b 317 128 410 271 399 128 b 221 350 238 128 221 269 b 238 468 221 381 224 428 b 315 538 250 506 276 538 b 410 336 393 538 410 415 z "},"в":{"ha":628,"x_min":0,"x_max":0,"o":"m 63 0 b 231 -8 101 -6 165 -8 b 590 199 368 -8 590 18 b 431 360 590 279 532 344 l 431 364 b 561 519 500 381 561 433 b 261 690 561 671 381 690 b 63 675 192 690 118 685 z m 239 568 b 285 572 251 571 267 572 b 392 493 349 572 392 546 b 279 408 392 439 340 408 l 239 408 z m 238 292 l 281 292 b 410 200 351 292 410 263 b 283 110 410 133 347 110 b 238 114 268 110 250 111 z "},"г":{"ha":456,"x_min":0,"x_max":0,"o":"m 63 679 l 63 0 l 244 0 l 244 529 l 439 529 l 439 679 z "},"ґ":{"ha":454,"x_min":0,"x_max":0,"o":"m 63 679 l 63 0 l 244 0 l 244 528 l 439 528 l 450 833 l 318 833 l 301 679 z "},"д":{"ha":668,"x_min":0,"x_max":0,"o":"m 140 679 l 140 494 b 119 271 140 419 135 342 b 68 133 110 222 90 171 l 13 131 l 18 -187 l 157 -187 l 167 0 l 494 0 l 503 -187 l 642 -187 l 647 131 l 586 133 l 586 679 z m 301 539 l 407 539 l 407 136 l 243 136 b 285 275 264 179 278 226 b 301 482 296 343 301 415 z "},"е":{"ha":582,"x_min":0,"x_max":0,"o":"m 538 275 b 543 369 540 294 543 321 b 313 690 543 575 458 690 b 40 326 160 690 40 554 b 328 -8 40 114 142 -8 b 513 24 396 -8 467 4 l 489 153 b 360 131 456 142 411 131 b 217 275 279 131 218 169 z m 217 403 b 301 557 218 471 242 557 b 378 403 356 557 378 489 z "},"ж":{"ha":833,"x_min":0,"x_max":0,"o":"m 6 679 l 176 376 b 64 193 115 353 82 271 b 6 0 53 140 26 46 l 182 0 b 226 161 201 36 211 92 b 314 288 243 236 267 288 l 329 288 l 329 0 l 504 0 l 504 288 l 519 288 b 607 164 560 288 590 239 b 650 0 621 94 633 35 l 828 0 b 771 194 808 44 782 140 b 657 376 753 282 718 354 l 828 679 l 638 679 l 532 403 l 504 403 l 504 679 l 329 679 l 329 403 l 303 403 l 196 679 z "},"з":{"ha":522,"x_min":0,"x_max":0,"o":"m 113 292 l 171 292 b 300 203 238 292 300 267 b 175 118 300 160 265 118 b 43 147 129 118 75 133 l 13 28 b 196 -11 61 4 125 -11 b 486 196 349 -11 486 57 b 322 364 486 285 419 349 l 322 367 b 460 518 403 386 460 438 b 236 690 460 613 386 690 b 32 644 153 690 79 671 l 60 532 b 179 564 94 550 139 564 b 276 490 242 564 276 535 b 168 411 276 442 233 411 l 111 411 z "},"и":{"ha":631,"x_min":0,"x_max":0,"o":"m 64 679 l 64 0 l 233 0 b 344 261 272 82 326 215 b 411 454 371 326 389 382 l 415 454 b 403 149 410 363 403 286 l 403 0 l 568 0 l 568 679 l 396 679 l 293 419 b 218 219 271 365 240 290 l 214 219 b 228 532 221 289 228 408 l 228 679 z "},"й":{"ha":631,"x_min":0,"x_max":0,"o":"m 64 679 l 64 0 l 233 0 b 344 261 272 82 326 215 b 411 454 371 326 389 382 l 415 454 b 403 149 410 363 403 286 l 403 0 l 568 0 l 568 679 l 396 679 l 293 419 b 218 219 271 365 240 290 l 214 219 b 228 532 221 289 228 408 l 228 679 z m 140 942 b 310 768 144 833 200 768 b 490 942 424 768 485 833 l 379 942 b 314 857 378 892 358 857 b 251 942 276 857 253 888 z "},"к":{"ha":576,"x_min":0,"x_max":0,"o":"m 64 679 l 64 0 l 242 0 l 242 281 l 254 281 b 343 165 300 281 328 233 b 393 0 358 96 372 38 l 574 0 b 514 193 553 46 525 142 b 394 388 496 281 461 364 l 568 679 l 379 679 l 261 408 l 242 408 l 242 679 z "},"л":{"ha":608,"x_min":0,"x_max":0,"o":"m 92 679 l 92 381 b 61 179 92 306 86 222 b 0 131 49 157 33 139 l 29 -14 b 122 7 58 -14 93 -7 b 261 386 243 64 261 204 l 261 532 l 363 532 l 363 0 l 544 0 l 544 679 z "},"м":{"ha":824,"x_min":0,"x_max":0,"o":"m 46 0 l 210 0 l 217 236 b 224 525 219 303 221 385 l 226 525 b 282 247 240 456 265 322 l 335 11 l 482 11 l 536 243 b 593 524 558 349 582 467 l 596 524 b 603 238 597 382 600 301 l 610 0 l 779 0 l 735 679 l 510 679 l 461 463 b 421 264 449 406 439 350 l 417 264 b 372 463 399 353 386 404 l 321 679 l 96 679 z "},"н":{"ha":635,"x_min":0,"x_max":0,"o":"m 64 679 l 64 0 l 246 0 l 246 268 l 389 268 l 389 0 l 571 0 l 571 679 l 389 679 l 389 422 l 246 422 l 246 679 z "},"о":{"ha":599,"x_min":0,"x_max":0,"o":"m 301 -11 b 560 342 403 -11 560 60 b 303 690 560 556 464 690 b 40 338 168 690 40 581 b 300 -11 40 118 138 -11 z m 303 128 b 221 340 239 128 221 225 b 301 551 221 435 235 551 b 379 340 364 551 379 435 b 304 128 379 242 364 128 z "},"п":{"ha":633,"x_min":0,"x_max":0,"o":"m 64 679 l 64 0 l 246 0 l 246 531 l 388 531 l 388 0 l 569 0 l 569 679 z "},"р":{"ha":621,"x_min":0,"x_max":0,"o":"m 63 -267 l 244 -267 l 244 54 l 247 54 b 360 -11 267 24 304 -11 b 581 340 475 -11 581 99 b 371 690 581 528 519 690 b 228 600 307 690 256 656 l 225 600 l 215 679 l 57 679 b 63 464 60 614 63 546 z m 244 431 b 253 479 244 447 246 465 b 314 536 260 510 286 536 b 400 338 368 536 400 467 b 313 138 400 232 376 138 b 254 190 292 138 268 149 b 244 247 247 204 244 225 z "},"с":{"ha":449,"x_min":0,"x_max":0,"o":"m 425 154 b 357 140 406 144 383 140 b 221 339 272 140 221 215 b 360 539 221 456 272 539 b 428 526 390 539 413 532 l 451 669 b 351 688 433 678 394 688 b 40 332 164 688 40 542 b 325 -8 40 111 153 -8 b 440 13 376 -8 422 3 z "},"т":{"ha":514,"x_min":0,"x_max":0,"o":"m 15 679 l 15 531 l 167 531 l 167 0 l 349 0 l 349 531 l 500 531 l 500 679 z "},"у":{"ha":543,"x_min":0,"x_max":0,"o":"m 7 679 l 193 50 b 199 25 196 42 199 33 b 189 -4 199 15 194 7 b 132 -86 176 -33 157 -62 b 43 -142 106 -111 74 -131 l 97 -299 b 251 -192 126 -292 194 -260 b 403 154 325 -106 369 26 l 542 679 l 364 679 l 307 322 b 292 211 301 285 296 246 l 289 211 b 269 325 283 249 276 285 l 203 679 z "},"ф":{"ha":772,"x_min":0,"x_max":0,"o":"m 304 932 l 306 690 b 40 338 131 661 40 532 b 306 -14 40 136 125 10 l 304 -267 l 467 -267 l 465 -14 b 732 336 647 10 732 138 b 465 692 732 533 639 663 l 467 932 z m 307 97 b 201 340 224 131 201 236 b 307 582 201 431 218 544 z m 464 581 b 569 340 550 540 569 429 b 464 96 569 233 546 131 z "},"х":{"ha":550,"x_min":0,"x_max":0,"o":"m 10 679 l 160 338 l 8 0 l 190 0 l 232 126 b 263 232 242 161 253 197 l 265 232 b 297 128 275 197 285 161 l 344 0 l 542 0 l 385 346 l 539 679 l 357 679 l 317 558 b 285 444 304 521 294 479 l 282 444 b 249 558 272 478 261 518 l 207 679 z "},"ц":{"ha":650,"x_min":0,"x_max":0,"o":"m 64 679 l 64 0 l 476 0 l 485 -187 l 624 -187 l 629 131 l 568 133 l 568 679 l 386 679 l 386 149 l 246 149 l 246 679 z "},"ч":{"ha":622,"x_min":0,"x_max":0,"o":"m 57 679 l 57 422 b 247 207 57 292 114 207 b 374 238 294 207 346 218 l 378 238 l 378 -7 l 560 -7 l 560 679 l 376 679 l 376 358 b 313 339 361 347 339 339 b 239 432 258 339 239 376 l 239 679 z "},"ш":{"ha":922,"x_min":0,"x_max":0,"o":"m 64 679 l 64 0 l 860 0 l 860 679 l 681 679 l 681 149 l 551 149 l 551 679 l 372 679 l 372 149 l 243 149 l 243 679 z "},"щ":{"ha":942,"x_min":0,"x_max":0,"o":"m 64 679 l 64 0 l 768 0 l 776 -187 l 915 -187 l 921 131 l 860 133 l 860 679 l 681 679 l 681 149 l 551 149 l 551 679 l 372 679 l 372 149 l 243 149 l 243 679 z "},"ъ":{"ha":736,"x_min":0,"x_max":0,"o":"m 15 679 l 15 532 l 172 532 l 172 6 b 350 -7 224 -1 292 -7 b 614 61 444 -7 544 8 b 700 242 664 97 700 156 b 422 468 700 400 567 468 b 353 463 400 468 379 467 l 353 679 z m 353 332 b 389 335 365 333 376 335 b 518 231 456 335 518 304 b 396 126 518 158 457 126 b 353 128 378 126 365 126 z "},"ы":{"ha":872,"x_min":0,"x_max":0,"o":"m 63 679 l 63 6 b 240 -7 114 -1 182 -7 b 486 61 317 -7 417 8 b 572 242 536 97 572 156 b 314 468 572 397 446 468 b 243 463 288 468 265 467 l 243 679 z m 243 332 b 279 335 256 335 267 335 b 390 231 329 335 390 304 b 281 126 390 161 331 126 b 243 128 268 126 254 126 z m 629 679 l 629 0 l 810 0 l 810 679 z "},"ь":{"ha":628,"x_min":0,"x_max":0,"o":"m 63 679 l 63 6 b 240 -7 114 -1 182 -7 b 504 61 335 -7 435 8 b 590 236 554 97 590 156 b 313 468 590 400 463 468 b 243 463 290 468 269 467 l 243 679 z m 243 332 b 279 335 256 333 267 335 b 408 231 346 335 408 304 b 281 126 408 158 347 126 b 243 128 268 126 256 126 z "},"э":{"ha":521,"x_min":0,"x_max":0,"o":"m 67 283 l 294 283 b 136 131 288 196 225 131 b 32 149 93 131 64 139 l 8 18 b 156 -11 38 3 99 -11 b 481 344 343 -11 481 119 b 390 604 481 447 449 540 b 179 690 340 657 267 690 b 15 657 114 690 47 675 l 43 532 b 150 553 68 542 99 553 b 294 406 242 553 288 486 l 67 406 z "},"ю":{"ha":847,"x_min":0,"x_max":0,"o":"m 63 679 l 63 0 l 242 0 l 242 278 l 304 278 b 553 -11 319 93 413 -11 b 807 343 653 -11 807 60 b 554 690 807 556 714 690 b 307 421 442 690 332 606 l 242 421 l 242 679 z m 554 128 b 474 342 493 128 474 226 b 553 551 474 435 489 551 b 629 342 613 551 629 435 b 556 128 629 242 613 128 z "},"я":{"ha":607,"x_min":0,"x_max":0,"o":"m 543 671 b 353 683 499 679 429 683 b 125 635 258 683 171 667 b 46 489 75 600 46 556 b 204 322 46 392 119 340 l 204 319 b 122 272 167 310 140 292 b 40 75 78 224 58 135 b 6 0 32 46 19 21 l 194 0 b 214 50 203 15 210 32 b 301 253 235 132 250 224 b 351 267 314 261 329 267 l 368 267 l 368 0 l 543 0 z m 369 376 b 344 375 360 375 356 375 b 228 476 278 375 228 418 b 331 569 228 538 268 569 b 369 565 344 569 357 568 z "},"ё":{"ha":582,"x_min":0,"x_max":0,"o":"m 538 275 b 543 369 540 294 543 321 b 313 690 543 575 458 690 b 40 326 160 690 40 554 b 328 -8 40 114 142 -8 b 513 24 396 -8 467 4 l 489 153 b 360 131 456 142 411 131 b 217 275 279 131 218 169 z m 217 403 b 301 557 218 471 242 557 b 378 403 356 557 378 489 z m 194 778 b 278 867 243 778 278 815 b 194 956 278 919 242 956 b 111 867 150 956 111 918 b 193 778 111 815 149 778 z m 440 778 b 524 867 489 778 524 815 b 440 956 524 919 488 956 b 357 867 396 956 357 918 b 439 778 357 815 394 778 z "},"ђ":{"ha":642,"x_min":0,"x_max":0,"o":"m 4 871 l 4 760 l 78 760 l 78 0 l 260 0 l 260 425 b 278 494 260 447 264 471 b 333 529 289 514 308 529 b 396 471 364 529 382 507 b 417 303 413 419 417 351 b 369 28 417 200 406 86 b 297 -26 349 -4 321 -21 l 339 -178 b 474 -107 376 -174 431 -147 b 597 308 549 -36 597 83 b 542 592 597 425 579 526 b 403 682 510 651 457 682 b 263 604 343 682 293 647 l 260 604 l 260 760 l 490 760 l 490 871 l 260 871 l 260 961 l 78 961 l 78 871 z "},"ѓ":{"ha":456,"x_min":0,"x_max":0,"o":"m 63 679 l 63 0 l 244 0 l 244 529 l 439 529 l 439 679 z m 267 957 l 171 763 l 285 763 l 425 957 z "},"є":{"ha":517,"x_min":0,"x_max":0,"o":"m 514 658 b 375 690 489 675 435 690 b 40 333 160 690 40 535 b 360 -11 40 119 171 -11 b 511 18 431 -11 481 4 l 488 144 b 388 124 458 132 424 124 b 226 283 292 124 236 189 l 457 283 l 457 406 l 226 406 b 382 557 233 485 288 557 b 485 532 432 557 463 543 z "},"ѕ":{"ha":450,"x_min":0,"x_max":0,"o":"m 26 31 b 181 -8 57 7 124 -8 b 421 206 321 -8 421 67 b 283 410 421 282 383 353 b 204 496 219 447 204 465 b 272 553 204 526 225 553 b 367 525 308 553 340 540 l 399 658 b 261 690 363 676 318 690 b 38 475 125 690 38 597 b 175 281 38 413 65 343 b 254 188 235 244 254 224 b 181 128 254 149 228 128 b 58 164 135 128 85 147 z "},"і":{"ha":310,"x_min":0,"x_max":0,"o":"m 246 0 l 246 679 l 64 679 l 64 0 z m 151 760 b 246 858 206 760 247 800 b 153 958 246 919 206 958 b 60 858 103 958 58 919 b 150 760 58 800 100 760 z "},"ї":{"ha":310,"x_min":0,"x_max":0,"o":"m 246 0 l 246 679 l 64 679 l 64 0 z m 32 778 b 115 867 81 778 115 815 b 32 956 115 919 79 956 b -51 867 -12 956 -51 918 b 31 778 -51 815 -14 778 z m 278 778 b 361 867 326 778 361 815 b 278 956 361 919 325 956 b 194 867 233 956 194 918 b 276 778 194 815 232 778 z "},"ј":{"ha":311,"x_min":0,"x_max":0,"o":"m -39 -278 b 158 -219 26 -276 108 -260 b 249 49 217 -174 249 -103 l 249 679 l 67 679 l 67 83 b 36 -97 67 -19 61 -69 b -53 -133 14 -122 -21 -129 z m 156 760 b 250 858 210 760 251 800 b 157 958 250 919 210 958 b 64 858 107 958 63 919 b 154 760 63 800 104 760 z "},"љ":{"ha":929,"x_min":0,"x_max":0,"o":"m 92 679 l 92 382 b 61 179 92 293 86 217 b 0 131 49 157 33 139 l 29 -14 b 122 7 58 -14 94 -7 b 261 386 243 63 261 204 l 261 532 l 365 532 l 365 6 b 535 -7 417 -1 475 -7 b 810 64 628 -7 736 10 b 893 238 860 101 893 157 b 614 468 893 399 761 468 b 546 464 590 468 572 467 l 546 679 z m 546 332 b 582 335 558 333 569 335 b 711 231 651 335 711 306 b 583 126 711 158 650 126 b 546 128 571 126 558 126 z "},"њ":{"ha":942,"x_min":0,"x_max":0,"o":"m 64 679 l 64 0 l 246 0 l 246 293 l 378 293 l 378 4 b 547 -7 429 -1 488 -7 b 822 64 640 -7 749 10 b 906 231 872 100 906 154 b 632 465 906 392 781 465 b 558 460 606 465 585 464 l 558 679 l 378 679 l 378 439 l 246 439 l 246 679 z m 558 329 b 594 332 571 331 582 332 b 724 229 665 332 724 303 b 597 126 724 158 667 126 b 558 128 583 126 571 126 z "},"ћ":{"ha":650,"x_min":0,"x_max":0,"o":"m 4 871 l 4 760 l 78 760 l 78 0 l 260 0 l 260 411 b 267 465 260 436 264 454 b 338 529 279 507 304 529 b 404 404 392 529 404 471 l 404 0 l 586 0 l 586 413 b 413 682 586 575 538 682 b 321 657 379 682 347 672 b 263 600 299 642 279 624 l 260 600 l 260 760 l 489 760 l 489 871 l 260 871 l 260 961 l 78 961 l 78 871 z "},"ќ":{"ha":576,"x_min":0,"x_max":0,"o":"m 64 679 l 64 0 l 242 0 l 242 281 l 254 281 b 343 165 300 281 328 233 b 393 0 358 96 372 38 l 574 0 b 514 193 553 46 525 142 b 394 388 496 281 461 364 l 568 679 l 379 679 l 261 408 l 242 408 l 242 679 z m 321 957 l 225 763 l 339 763 l 479 957 z "},"ў":{"ha":543,"x_min":0,"x_max":0,"o":"m 7 679 l 193 50 b 199 25 196 42 199 33 b 189 -4 199 15 194 7 b 132 -86 176 -33 157 -62 b 43 -142 106 -111 74 -131 l 97 -299 b 251 -192 126 -292 194 -260 b 403 154 325 -106 369 26 l 542 679 l 364 679 l 307 322 b 292 211 301 285 296 246 l 289 211 b 269 325 283 249 276 285 l 203 679 z m 97 942 b 267 768 101 833 157 768 b 447 942 381 768 442 833 l 336 942 b 271 857 335 892 315 857 b 208 942 233 857 210 888 z "},"џ":{"ha":632,"x_min":0,"x_max":0,"o":"m 64 679 l 64 0 l 236 0 l 244 -193 l 385 -193 l 394 0 l 568 0 l 568 679 l 385 679 l 385 149 l 246 149 l 246 679 z "},"ә":{"ha":582,"x_min":0,"x_max":0,"o":"m 93 525 b 226 551 126 538 171 551 b 365 403 308 551 364 513 l 44 403 b 39 314 42 383 39 356 b 272 -8 39 107 126 -8 b 542 354 426 -8 542 128 b 260 690 542 564 440 690 b 69 647 190 690 124 675 z m 365 275 b 283 125 364 213 342 125 b 204 275 229 125 204 193 z "},"€":{"ha":592,"x_min":0,"x_max":0,"o":"m 544 171 b 439 144 521 158 476 144 b 326 200 397 144 354 158 b 286 331 307 228 292 269 l 503 331 l 503 424 l 279 424 b 279 439 279 428 279 433 b 281 489 279 457 279 474 l 503 489 l 503 582 l 290 582 b 332 700 299 636 314 675 b 440 758 360 744 397 758 b 533 735 476 758 514 744 l 561 886 b 435 914 536 897 493 914 b 183 783 324 914 242 869 b 108 582 149 733 121 668 l 33 582 l 33 489 l 99 489 b 97 440 99 474 97 457 b 97 424 97 435 97 429 l 33 424 l 33 331 l 104 331 b 197 89 117 219 151 140 b 418 -11 258 15 342 -11 b 564 21 479 -11 538 8 z "},"ℓ":{"ha":632,"x_min":0,"x_max":0,"o":"m 310 656 b 357 846 310 822 333 846 b 397 765 379 846 397 826 b 310 513 397 679 367 600 z m 524 213 b 403 140 481 163 442 140 b 310 288 347 140 310 176 l 310 340 b 526 772 454 492 526 625 b 344 986 526 910 453 986 b 129 683 224 986 129 897 l 129 353 b 22 267 99 322 65 297 l 69 175 b 129 219 92 189 113 206 b 129 213 129 218 129 215 b 349 -15 135 78 200 -15 b 601 129 444 -15 542 28 z "},"№":{"ha":1044,"x_min":0,"x_max":0,"o":"m 822 892 b 638 661 719 892 638 818 b 822 432 638 517 701 432 b 1003 664 906 432 1003 479 b 824 892 1003 803 944 892 z m 821 796 b 875 663 865 796 875 724 b 821 528 875 599 868 528 b 765 663 779 528 765 588 b 819 796 765 707 774 796 z m 979 290 l 979 382 l 663 382 l 663 290 z m 235 0 l 235 206 b 224 619 235 388 228 528 l 225 619 b 306 346 249 536 279 422 l 418 0 l 583 0 l 583 910 l 431 910 l 431 706 b 446 285 431 538 440 381 l 444 285 b 358 551 419 364 383 479 l 243 910 l 81 910 l 81 0 z "},"℮":{"ha":1135,"x_min":0,"x_max":0,"o":"m 1086 439 b 1086 451 1086 443 1086 447 b 568 918 1086 710 854 918 b 49 451 282 918 49 710 b 568 -15 49 193 282 -15 b 979 167 735 -15 885 57 l 903 167 b 569 13 822 72 703 13 b 251 150 444 13 331 65 b 239 179 244 158 239 168 l 239 433 b 246 439 239 438 242 439 z m 897 472 b 890 465 897 468 894 465 l 246 465 b 239 472 242 465 239 468 l 239 722 b 253 754 239 735 244 746 b 569 890 333 838 444 890 b 883 758 692 890 803 839 b 897 728 892 750 897 740 z "},"∂":{"ha":629,"x_min":0,"x_max":0,"o":"m 108 833 b 232 868 131 849 172 868 b 418 589 332 868 418 772 b 418 572 418 583 418 576 l 417 572 b 283 635 390 607 349 635 b 26 283 143 635 26 507 b 269 -11 26 114 115 -11 b 597 543 439 -11 597 161 b 265 1019 597 856 436 1019 b 57 956 172 1019 103 985 z m 285 138 b 207 272 242 138 207 178 b 324 492 207 389 256 492 b 407 428 364 492 392 464 b 286 138 401 279 349 138 z "},"∆":{"ha":629,"x_min":0,"x_max":0,"o":"m 604 0 l 604 94 l 424 906 l 224 906 l 26 90 l 26 0 z m 426 154 l 203 154 l 267 454 b 317 714 283 536 307 651 l 321 714 b 368 444 329 651 354 524 z "},"∏":{"ha":689,"x_min":0,"x_max":0,"o":"m 674 744 l 674 903 l 3 903 l 3 744 l 92 744 l 92 -125 l 257 -125 l 257 744 l 419 744 l 419 -125 l 585 -125 l 585 744 z "},"∑":{"ha":571,"x_min":0,"x_max":0,"o":"m 560 -125 l 560 33 l 224 33 l 224 38 l 419 403 l 242 740 l 242 744 l 539 744 l 539 903 l 24 903 l 24 788 l 239 393 l 18 -14 l 18 -125 z "},"√":{"ha":751,"x_min":0,"x_max":0,"o":"m 731 1161 l 610 1161 l 425 207 b 404 65 414 150 407 92 l 403 65 b 372 201 399 92 386 149 l 265 590 l 46 513 l 71 426 l 176 461 l 344 -106 l 469 -106 z "},"∞":{"ha":1035,"x_min":0,"x_max":0,"o":"m 765 143 b 992 367 900 143 992 247 b 776 590 992 494 904 590 b 518 446 657 590 588 513 b 268 590 450 513 371 590 b 42 367 133 590 42 486 b 257 143 42 239 129 143 b 515 288 376 143 446 221 b 764 143 583 221 663 143 z m 763 256 b 592 368 692 256 639 324 b 767 478 640 417 697 478 b 871 367 826 478 871 432 b 764 256 871 307 824 256 z m 267 256 b 163 367 207 256 163 303 b 271 478 163 428 210 478 b 442 365 342 478 394 411 b 268 256 393 317 336 256 z "},"∫":{"ha":479,"x_min":0,"x_max":0,"o":"m 446 1108 b 376 1117 431 1113 404 1117 b 232 1056 328 1117 271 1099 b 161 765 179 997 161 918 b 174 124 161 543 174 363 b 151 -69 174 14 168 -40 b 100 -97 139 -89 118 -97 b 60 -90 85 -97 69 -93 l 38 -210 b 121 -224 53 -217 81 -224 b 281 -133 189 -224 244 -200 b 319 129 311 -79 319 8 b 307 753 319 365 307 542 b 331 960 307 863 311 926 b 385 999 344 985 363 999 b 428 993 400 999 417 996 z "},"≈":{"ha":828,"x_min":0,"x_max":0,"o":"m 744 586 b 582 510 708 553 646 510 b 424 557 510 510 465 539 b 244 607 379 576 329 607 b 29 506 156 607 76 554 l 82 418 b 244 493 118 451 181 493 b 404 446 317 493 363 464 b 582 396 449 426 497 396 b 797 499 671 396 750 450 z m 749 297 b 586 221 713 264 650 221 b 426 268 514 221 468 250 b 247 318 382 288 332 318 b 32 217 158 318 79 265 l 85 129 b 247 204 121 163 183 204 b 407 157 319 204 365 175 b 586 107 451 138 501 107 b 801 210 675 107 754 161 z "},"≠":{"ha":828,"x_min":0,"x_max":0,"o":"m 772 171 l 772 285 l 415 285 l 526 460 l 772 460 l 772 574 l 600 574 l 696 724 l 575 724 l 482 574 l 56 574 l 56 460 l 408 460 l 299 285 l 56 285 l 56 171 l 225 171 l 131 21 l 250 21 l 343 171 z "},"≤":{"ha":828,"x_min":0,"x_max":0,"o":"m 744 154 l 744 279 l 242 461 l 242 464 l 743 647 l 743 771 l 85 519 l 85 407 z m 743 0 l 743 107 l 85 107 l 85 0 z "},"≥":{"ha":828,"x_min":0,"x_max":0,"o":"m 743 407 l 743 519 l 85 771 l 85 647 l 586 464 l 586 461 l 85 279 l 85 154 z m 743 0 l 743 107 l 85 107 l 85 0 z "},"◊":{"ha":693,"x_min":0,"x_max":0,"o":"m 642 451 l 408 944 l 286 944 l 53 451 l 286 -42 l 408 -42 z m 500 447 l 369 144 b 351 99 365 133 356 115 l 347 99 b 331 144 343 115 335 133 l 194 456 l 325 758 b 343 804 329 769 339 788 l 346 804 b 363 758 351 788 358 769 z "},"":{"ha":417,"x_min":0,"x_max":0,"o":"m 208 993 b 296 1082 257 993 296 1033 b 208 1171 296 1132 257 1171 b 122 1082 163 1171 122 1132 b 207 993 122 1033 161 993 z "},"":{"ha":417,"x_min":0,"x_max":0,"o":"m 39 1160 b 207 997 39 1061 94 997 b 374 1160 318 997 374 1063 l 276 1160 b 206 1099 275 1122 249 1099 b 136 1160 164 1099 138 1124 z "},"":{"ha":417,"x_min":0,"x_max":0,"o":"m 131 8 b 81 -151 117 -18 81 -83 b 215 -285 81 -231 125 -285 b 338 -250 251 -285 297 -278 l 315 -158 b 261 -167 301 -164 285 -167 b 206 -108 231 -167 206 -142 b 243 8 206 -72 222 -26 z "},"":{"ha":417,"x_min":0,"x_max":0,"o":"m 182 7 l 129 -114 b 224 -165 190 -119 224 -137 b 179 -200 224 -192 201 -200 b 106 -181 156 -200 129 -192 l 81 -258 b 185 -283 106 -274 147 -283 b 338 -162 263 -283 338 -251 b 244 -61 338 -108 293 -69 l 279 7 z "},"":{"ha":556,"x_min":0,"x_max":0,"o":"m 281 1221 b 132 1090 179 1221 132 1156 b 281 965 132 1028 175 965 b 426 1094 381 965 426 1028 b 282 1221 426 1161 385 1221 z m 278 1156 b 332 1093 317 1156 332 1124 b 278 1032 332 1061 318 1032 b 226 1092 240 1032 226 1064 b 276 1156 226 1121 239 1156 z "},"":{"ha":417,"x_min":0,"x_max":0,"o":"m 125 997 b 154 1046 128 1029 139 1046 b 203 1025 171 1046 183 1036 b 278 1003 222 1013 247 1003 b 374 1163 342 1003 376 1046 l 293 1163 b 260 1110 288 1122 281 1110 b 208 1133 244 1110 228 1121 b 135 1157 189 1146 167 1157 b 43 997 78 1157 40 1100 z "},"":{"ha":417,"x_min":0,"x_max":0,"o":"m 135 1139 l 22 986 l 151 986 l 204 1058 l 207 1058 l 261 986 l 394 986 l 278 1139 z "},"":{"ha":417,"x_min":0,"x_max":0,"o":"m 247 1143 l 133 986 l 263 986 l 432 1143 z "},"":{"ha":417,"x_min":0,"x_max":0,"o":"m 282 986 l 394 1139 l 265 1139 l 213 1067 l 210 1067 l 156 1139 l 22 1139 l 139 986 z "},"":{"ha":417,"x_min":0,"x_max":0,"o":"m 79 993 b 161 1082 124 993 161 1032 b 79 1169 161 1131 124 1169 b -3 1082 36 1169 -3 1131 b 78 993 -3 1032 35 993 z m 335 993 b 417 1082 379 993 417 1032 b 335 1169 417 1131 379 1169 b 251 1082 290 1169 251 1131 b 333 993 251 1032 289 993 z "},"":{"ha":417,"x_min":0,"x_max":0,"o":"m 8 993 b 83 1072 51 993 83 1029 b 8 1153 83 1118 50 1153 b -65 1072 -29 1153 -65 1118 b 7 993 -65 1029 -31 993 z m 411 993 b 486 1072 454 993 486 1029 b 411 1153 486 1118 453 1153 b 338 1072 374 1153 338 1118 b 410 993 338 1029 372 993 z m 189 1160 l 76 986 l 190 986 l 346 1160 z "},"":{"ha":417,"x_min":0,"x_max":0,"o":"m 8 993 b 83 1072 51 993 83 1029 b 8 1153 83 1118 50 1153 b -65 1072 -29 1153 -65 1118 b 7 993 -65 1029 -31 993 z m 410 993 b 485 1072 453 993 485 1029 b 410 1153 485 1118 451 1153 b 336 1072 372 1153 336 1118 b 408 993 336 1029 371 993 z m 72 1160 l 228 986 l 342 986 l 229 1160 z "},"":{"ha":417,"x_min":0,"x_max":0,"o":"m 15 1143 l 185 986 l 314 986 l 200 1143 z "},"":{"ha":417,"x_min":0,"x_max":0,"o":"m 135 1143 l 56 990 l 157 990 l 285 1143 z m 338 1143 l 258 990 l 360 990 l 488 1143 z "},"":{"ha":417,"x_min":0,"x_max":0,"o":"m 46 1132 l 46 1022 l 372 1022 l 372 1132 z "},"":{"ha":417,"x_min":0,"x_max":0,"o":"m 32 1160 b 207 1000 39 1040 113 1000 b 386 1160 308 1000 372 1040 l 271 1160 b 208 1081 268 1108 246 1081 b 147 1160 165 1081 150 1110 z "},"":{"ha":417,"x_min":0,"x_max":0,"o":"m 386 999 b 211 1158 379 1118 306 1158 b 32 999 110 1158 46 1118 l 147 999 b 210 1078 150 1050 172 1078 b 271 999 253 1078 268 1049 z "},"":{"ha":417,"x_min":0,"x_max":0,"o":"m -94 1158 l 88 985 l 199 985 l 72 1158 z m 183 1158 l 364 985 l 476 985 l 350 1158 z "},"":{"ha":417,"x_min":0,"x_max":0,"o":"m 33 942 b 203 768 38 833 93 768 b 383 942 317 768 378 833 l 272 942 b 207 857 271 892 251 857 b 144 942 169 857 146 888 z "},"":{"ha":417,"x_min":0,"x_max":0,"o":"m 146 794 b 211 879 147 844 167 879 b 274 794 249 879 272 850 l 385 794 b 215 968 381 903 325 968 b 35 794 101 968 40 903 z "},"":{"ha":417,"x_min":0,"x_max":0,"o":"m -39 953 l 106 760 l 194 760 l 92 953 z m 168 953 l 313 760 l 401 760 l 297 953 z "},"":{"ha":418,"x_min":0,"x_max":0,"o":"m 1 771 b 83 857 51 771 83 808 b 3 943 83 908 49 943 b -79 857 -42 943 -79 907 b 0 771 -79 807 -43 771 z m 413 771 b 494 857 463 771 494 808 b 414 943 494 908 460 943 b 332 857 369 943 332 907 b 411 771 332 807 368 771 z m 189 957 l 93 763 l 199 763 l 339 957 z "},"":{"ha":418,"x_min":0,"x_max":0,"o":"m 1 771 b 83 857 51 771 83 808 b 3 943 83 908 49 943 b -79 857 -42 943 -79 907 b 0 771 -79 807 -43 771 z m 413 771 b 494 857 463 771 494 808 b 414 943 494 908 460 943 b 332 857 369 943 332 907 b 411 771 332 807 368 771 z m 82 957 l 221 763 l 328 763 l 232 957 z "},"":{"ha":417,"x_min":0,"x_max":0,"o":"m 121 -311 b 311 -158 225 -301 311 -256 b 260 -57 311 -106 283 -72 l 128 -74 b 172 -158 146 -92 172 -125 b 92 -231 172 -197 126 -221 z "},"":{"ha":592,"x_min":0,"x_max":0,"o":"m 211 343 b 204 451 206 382 204 415 b 299 758 204 661 238 758 b 363 696 331 758 351 733 z m 381 564 b 388 451 386 524 388 489 b 294 144 388 244 357 144 b 229 201 263 144 242 167 z m 553 900 l 488 939 l 447 860 b 301 914 410 894 363 914 b 32 447 115 914 32 724 b 94 122 32 328 50 197 l 39 21 l 104 -19 l 142 53 b 297 -11 181 13 232 -11 b 560 456 442 -11 560 132 b 496 793 560 574 546 701 z "},"":{"ha":592,"x_min":0,"x_max":0,"o":"m 297 -11 b 558 456 442 -11 558 132 b 301 914 558 671 511 914 b 33 447 115 914 33 707 b 296 -11 33 214 100 -11 z m 299 144 b 215 451 239 144 213 240 b 300 758 214 661 243 758 b 376 451 358 758 376 646 b 300 144 376 244 356 144 z "},"":{"ha":440,"x_min":0,"x_max":0,"o":"m 181 0 l 361 0 l 361 903 l 201 903 l -6 796 l 25 653 l 178 732 l 181 732 z "},"":{"ha":522,"x_min":0,"x_max":0,"o":"m 494 0 l 494 160 l 218 160 l 218 163 l 272 226 b 482 653 376 347 482 483 b 221 914 482 782 418 914 b 19 858 139 914 61 885 l 53 718 b 188 763 85 738 131 763 b 303 639 263 763 303 713 b 90 236 303 510 207 386 l 1 122 l 1 0 z "},"":{"ha":501,"x_min":0,"x_max":0,"o":"m -7 29 b 169 -11 32 7 97 -11 b 472 261 367 -11 472 124 b 318 490 472 382 404 461 l 318 493 b 449 696 399 531 449 606 b 210 914 449 813 368 914 b 24 867 135 914 61 890 l 49 731 b 163 765 82 751 121 765 b 267 661 226 765 267 726 b 115 544 267 574 182 546 l 97 544 l 97 411 l 122 411 b 290 268 213 410 290 368 b 153 138 290 193 242 138 b 18 172 106 138 54 153 z "},"":{"ha":581,"x_min":0,"x_max":0,"o":"m 479 0 l 479 215 l 568 215 l 568 361 l 479 361 l 479 903 l 304 903 l 8 340 l 8 215 l 318 215 l 318 0 z m 164 361 l 164 364 l 260 554 b 322 694 283 604 303 644 l 328 694 b 318 546 324 646 318 593 l 318 361 z "},"":{"ha":518,"x_min":0,"x_max":0,"o":"m 469 903 l 96 903 l 44 450 b 110 453 64 453 85 453 b 306 290 214 453 306 413 b 158 138 306 194 247 138 b 29 168 108 138 63 151 l 1 25 b 171 -11 38 6 107 -11 b 485 307 368 -11 485 132 b 407 515 485 399 457 467 b 236 583 354 564 275 582 b 210 582 226 583 218 583 l 231 744 l 469 744 z "},"":{"ha":592,"x_min":0,"x_max":0,"o":"m 493 914 b 401 904 475 913 444 913 b 179 782 328 890 239 847 b 32 363 96 693 32 560 b 307 -11 32 138 136 -11 b 565 310 483 -11 565 151 b 361 589 565 479 482 589 b 221 517 300 589 253 560 l 215 517 b 418 757 239 631 299 732 b 493 767 446 763 471 765 z m 306 121 b 217 318 250 121 217 200 b 225 399 217 361 221 388 b 300 458 242 439 271 458 b 385 310 360 458 383 386 b 307 121 385 201 365 121 z "},"":{"ha":489,"x_min":0,"x_max":0,"o":"m 1 903 l 1 743 l 308 743 l 308 740 l 32 0 l 208 0 l 493 785 l 493 903 z "},"":{"ha":592,"x_min":0,"x_max":0,"o":"m 307 914 b 53 676 169 914 53 824 b 164 478 53 606 86 528 l 164 475 b 28 235 89 428 28 347 b 292 -11 28 86 136 -11 b 563 253 440 -11 563 85 b 422 488 563 360 506 443 l 422 492 b 542 692 518 550 542 632 b 308 914 542 825 438 914 z m 296 111 b 204 254 236 111 204 176 b 282 413 204 324 236 381 b 386 244 333 385 386 331 b 297 111 386 169 356 111 z m 303 792 b 375 674 354 792 375 735 b 313 546 375 621 351 565 b 224 681 260 574 224 618 b 301 792 224 738 247 792 z "},"":{"ha":592,"x_min":0,"x_max":0,"o":"m 103 -11 b 186 -7 131 -11 158 -11 b 410 107 275 7 354 47 b 558 543 493 196 558 339 b 301 914 558 761 469 914 b 33 597 128 914 33 751 b 246 328 33 432 129 328 b 375 383 304 328 346 351 l 379 383 b 292 201 364 303 331 239 b 185 147 260 172 221 154 b 103 140 156 142 138 140 z m 293 782 b 375 596 342 782 375 714 b 367 500 375 536 374 517 b 297 453 357 476 329 453 b 213 613 242 453 214 525 b 292 782 210 722 246 782 z "},"":{"ha":942,"x_min":0,"x_max":0,"o":"m 208 857 b 25 576 90 857 25 724 b 207 304 25 442 81 304 b 386 583 299 304 386 392 b 210 857 386 708 343 857 z m 207 761 b 264 579 251 761 264 686 b 207 400 264 468 250 400 b 147 582 164 400 146 465 b 206 761 147 694 167 761 z m 289 -14 l 746 858 l 651 858 l 194 -14 z m 739 544 b 556 265 621 544 556 411 b 738 -8 556 129 611 -8 b 917 271 829 -8 917 79 b 740 544 917 396 874 544 z m 738 449 b 794 267 782 449 794 374 b 738 88 794 154 781 88 b 678 269 696 88 676 151 b 736 449 678 382 697 449 z "},"":{"ha":599,"x_min":0,"x_max":0,"o":"m 299 -11 b 558 340 426 -11 558 89 b 299 693 558 593 426 693 b 40 340 172 693 40 593 b 297 -11 40 89 172 -11 z m 299 128 b 210 340 244 128 210 193 b 299 554 210 489 243 554 b 389 340 354 554 389 489 b 300 128 389 193 356 128 z "},"":{"ha":599,"x_min":0,"x_max":0,"o":"m 449 0 l 449 681 l 306 681 l 50 578 l 75 443 l 265 522 l 268 522 l 268 0 z "},"":{"ha":599,"x_min":0,"x_max":0,"o":"m 522 0 l 522 150 l 411 150 b 290 143 381 150 321 146 l 290 147 l 326 182 b 490 476 419 268 490 354 b 275 697 490 614 400 697 b 67 635 192 697 114 665 l 110 517 b 215 549 139 533 175 549 b 318 443 279 549 318 513 b 132 164 318 351 231 257 l 71 107 l 71 0 z "},"":{"ha":599,"x_min":0,"x_max":0,"o":"m 71 -154 b 200 -171 97 -162 142 -171 b 514 97 361 -171 514 -72 b 343 303 514 207 442 283 l 343 306 b 486 500 418 325 486 397 b 261 693 486 613 394 693 b 83 653 185 693 118 674 l 108 519 b 222 544 139 533 179 544 b 318 463 281 544 318 517 b 176 351 318 397 251 358 l 139 349 l 140 210 b 196 211 154 211 176 211 b 333 99 279 211 333 168 b 175 -24 333 25 269 -24 b 89 -14 142 -24 107 -19 z "},"":{"ha":599,"x_min":0,"x_max":0,"o":"m 567 54 l 567 196 l 478 196 l 478 682 l 303 682 l 25 176 l 25 54 l 322 54 l 322 -167 l 478 -167 l 478 54 z m 322 196 l 178 196 l 178 200 l 264 363 b 324 504 285 403 311 464 l 326 504 b 322 374 322 458 322 417 z "},"":{"ha":599,"x_min":0,"x_max":0,"o":"m 72 -154 b 186 -171 94 -162 143 -171 b 508 125 368 -171 508 -56 b 446 292 508 196 486 251 b 256 374 399 338 329 365 l 281 525 l 485 525 l 506 681 l 161 681 l 93 253 b 290 203 176 254 253 239 b 326 110 317 181 326 146 b 174 -24 326 21 247 -24 b 88 -15 132 -24 107 -19 z "},"":{"ha":599,"x_min":0,"x_max":0,"o":"m 503 853 b 43 332 206 836 43 608 b 303 -11 43 88 165 -11 b 560 289 440 -11 560 104 b 361 556 560 465 463 556 b 242 496 314 556 265 531 l 238 497 b 517 717 261 603 342 700 z m 304 118 b 224 290 263 118 224 157 b 246 399 224 343 232 381 b 297 428 260 415 278 428 b 379 272 344 428 379 376 b 306 118 379 156 342 118 z "},"":{"ha":599,"x_min":0,"x_max":0,"o":"m 528 681 l 76 681 l 76 525 l 346 525 l 346 522 b 60 -142 307 375 161 43 l 228 -162 b 528 578 335 39 511 488 z "},"":{"ha":599,"x_min":0,"x_max":0,"o":"m 424 454 b 538 642 499 501 538 561 b 310 858 538 785 428 858 b 58 626 172 858 58 774 b 165 442 58 557 94 492 l 165 438 b 33 224 90 389 33 318 b 293 -11 33 85 140 -11 b 558 239 432 -11 558 76 b 424 449 558 338 500 404 z m 304 743 b 375 638 339 742 375 710 b 315 506 375 575 349 536 b 225 638 256 539 225 585 b 304 743 225 692 253 744 z m 297 110 b 206 231 242 110 206 169 b 281 376 206 297 236 347 b 386 221 339 344 386 296 b 299 110 386 158 353 110 z "},"":{"ha":599,"x_min":0,"x_max":0,"o":"m 82 -169 b 557 357 382 -160 557 54 b 301 693 557 581 438 693 b 42 399 160 693 42 579 b 238 131 42 221 143 131 b 358 185 296 131 336 153 l 361 183 b 65 -35 335 69 249 -17 z m 306 250 b 219 410 258 250 219 299 b 296 561 219 525 258 561 b 376 386 342 561 376 508 b 354 278 376 333 368 294 b 307 250 342 261 325 250 z "},"":{"ha":599,"x_min":0,"x_max":0,"o":"m 535 157 b 450 139 513 147 481 139 b 353 174 415 139 375 149 b 314 247 335 192 321 215 l 490 247 l 490 333 l 300 333 b 299 363 299 347 299 356 b 300 399 299 372 299 385 l 490 399 l 490 485 l 313 485 b 354 565 319 521 335 546 b 444 597 376 586 411 597 b 524 585 476 597 504 590 l 550 725 b 431 747 522 738 479 747 b 219 665 347 747 274 719 b 129 485 178 621 143 560 l 60 485 l 60 399 l 118 399 b 117 361 117 383 117 371 b 118 333 117 356 117 347 l 60 333 l 60 247 l 128 247 b 215 68 142 171 174 111 b 424 -11 269 14 349 -11 b 553 15 479 -11 525 3 z "},"":{"ha":599,"x_min":0,"x_max":0,"o":"m 111 347 l 200 347 l 178 103 b 92 -35 167 -8 129 -35 b 39 -25 76 -35 56 -31 l 13 -154 b 113 -176 36 -168 74 -176 b 350 97 285 -176 336 -51 l 374 347 l 510 347 l 510 488 l 383 488 l 392 568 b 494 714 400 653 429 714 b 547 706 514 714 532 711 l 571 840 b 485 857 550 850 519 857 b 218 567 318 857 232 731 l 211 488 l 111 488 z "},"":{"ha":599,"x_min":0,"x_max":0,"o":"m 238 308 l 257 468 l 356 468 l 336 308 z m 193 -44 l 224 204 l 322 204 l 290 -44 l 394 -44 l 426 204 l 543 204 l 543 308 l 439 308 l 458 468 l 571 468 l 571 572 l 472 572 l 503 814 l 400 814 l 369 572 l 271 572 l 301 814 l 199 814 l 168 572 l 50 572 l 50 468 l 154 468 l 135 308 l 21 308 l 21 204 l 121 204 l 89 -44 z "},"":{"ha":599,"x_min":0,"x_max":0,"o":"m 536 0 l 536 150 l 268 150 l 268 153 b 333 283 300 178 333 221 b 331 311 333 292 332 300 l 468 311 l 468 415 l 315 415 b 306 500 310 443 306 474 b 400 613 306 571 340 613 b 478 594 435 613 458 604 l 504 742 b 390 765 482 751 447 765 b 133 500 228 765 133 646 b 143 415 133 472 138 443 l 64 415 l 64 311 l 164 311 b 168 258 167 293 168 275 b 54 111 168 196 126 142 l 54 0 z "},"":{"ha":599,"x_min":0,"x_max":0,"o":"m 382 0 l 382 150 l 547 150 l 547 243 l 382 243 l 382 306 l 547 306 l 547 399 l 421 399 l 581 736 l 410 736 l 346 551 b 308 418 328 500 318 457 l 306 418 b 267 550 297 456 283 500 l 200 736 l 19 736 l 176 399 l 50 399 l 50 306 l 215 306 l 215 243 l 50 243 l 50 150 l 215 150 l 215 0 z "},"":{"ha":599,"x_min":0,"x_max":0,"o":"m 344 -97 l 344 14 b 522 208 451 36 522 106 b 368 403 522 293 472 358 b 251 494 268 446 251 463 b 346 547 251 524 283 547 b 463 521 393 547 432 538 l 497 650 b 365 679 463 665 424 678 l 365 785 l 247 785 l 247 668 b 81 489 142 640 81 571 b 239 296 81 403 126 350 b 351 197 328 254 351 231 b 253 136 351 158 315 136 b 106 171 210 136 144 150 l 78 42 b 226 6 114 24 167 7 l 226 -97 z "},"":{"ha":599,"x_min":0,"x_max":0,"o":"m 461 215 b 361 197 432 203 401 197 b 233 357 288 197 233 256 b 354 522 233 460 283 522 b 447 504 394 522 425 514 l 468 629 b 379 650 447 639 415 647 l 379 739 l 274 739 l 274 642 b 71 357 153 613 71 506 b 274 78 71 219 136 106 l 274 -19 l 379 -19 l 379 72 b 475 92 421 74 456 83 z "},"":{"ha":404,"x_min":0,"x_max":0,"o":"m 203 -7 b 382 274 308 -7 382 89 b 206 549 382 399 349 549 b 22 268 76 549 22 417 b 201 -7 22 135 67 -7 z m 204 100 b 151 271 169 100 151 146 b 206 442 151 394 172 442 b 253 271 239 442 253 388 b 206 100 253 146 236 100 z "},"":{"ha":332,"x_min":0,"x_max":0,"o":"m 267 0 l 267 542 l 150 542 l 13 475 l 36 381 l 133 426 l 136 426 l 136 0 z "},"":{"ha":381,"x_min":0,"x_max":0,"o":"m 10 0 l 349 0 l 349 111 l 172 111 l 172 115 l 197 142 b 343 392 265 214 343 290 b 168 549 343 465 301 549 b 17 503 101 549 46 528 l 44 407 b 133 439 67 424 99 439 b 203 364 174 439 203 417 b 75 153 203 303 146 240 l 10 74 z "},"":{"ha":361,"x_min":0,"x_max":0,"o":"m 49 426 b 131 450 74 440 99 450 b 193 393 168 450 193 429 b 92 331 193 347 138 331 l 82 331 l 82 244 l 99 244 b 201 165 157 244 201 217 b 121 92 201 122 167 92 b 28 115 83 92 51 103 l 8 19 b 126 -7 33 4 75 -7 b 338 161 257 -7 338 64 b 232 288 338 225 290 278 l 232 290 b 322 418 288 314 322 356 b 160 549 322 481 275 549 b 28 517 108 549 58 533 z "}}}
